<?xml version="1.0" encoding="utf-8"?>
<!-- Generator: Adobe Illustrator 16.0.0, SVG Export Plug-In . SVG Version: 6.00 Build 0)  -->
<!DOCTYPE svg PUBLIC "-//W3C//DTD SVG 1.1//EN" "http://www.w3.org/Graphics/SVG/1.1/DTD/svg11.dtd">
<svg version="1.1" id="Layer_1" xmlns="http://www.w3.org/2000/svg" xmlns:xlink="http://www.w3.org/1999/xlink" x="0px" y="0px"
	 width="600px" height="200px" viewBox="0 0 600 200" enable-background="new 0 0 600 200" xml:space="preserve">
<g>
	<path d="M78.043,38.927c-0.593,1.646-2.234,2.396-5.945,1.944c-7.723,11.235-19.752,25.921-32.675,38.051
		c20.792-0.146,47.534-0.598,75.903-1.194c-7.13-8.094-15.598-15.43-24.064-20.377l0.889-1.5
		c38.626,8.093,50.655,25.016,50.655,35.805c0,5.69-3.417,9.74-8.019,9.74c-1.785,0-3.864-0.751-5.943-2.097
		c-2.083-5.697-5.644-11.685-10.102-17.381c-23.174,3.895-54.662,7.94-99.23,13.184c-1.182,1.801-2.818,2.849-4.455,3.148
		L6.893,78.922c7.569,0.153,17.525,0.153,26.138,0c8.171-15.277,16.492-34.604,21.396-48.833L78.043,38.927z M104.778,109.484
		l6.834-8.84l18.123,12.884c-1.19,1.344-3.416,2.848-6.832,3.596v48.68c0,0.154-4.904,4.049-16.491,4.049v-10.191H42.688v5.848
		c0,0.295-2.081,5.842-15.747,5.842v-68.608l16.788,6.742H104.778z M42.688,156.67h63.725v-44.192H42.688V156.67z"/>
	<path d="M195.322,77.874V33.682l21.688,2.098c-0.297,2.098-1.483,3.147-6.091,3.745v125.681c0,1.799-6.682,5.692-12.476,5.692
		h-3.122v-33.253c-6.978,5.095-16.338,11.381-28.369,18.722c-0.592,1.945-2.079,3.449-3.712,4.047l-9.506-19.472
		c7.571-1.195,24.062-4.644,41.587-8.695V80.866h-38.77l-0.888-2.993H195.322z M286.974,128.357v22.321
		c5.793,2.4,6.539,3.445,6.539,5.841c0,6.738-4.754,10.033-19.903,10.033H253.7c-17.078,0-20.495-4.339-20.495-21.717v-111
		l21.832,1.944c-0.294,2.098-1.482,3.3-6.089,3.897v48.687c9.507-8.991,19.613-21.273,24.96-29.514l19.755,12.131
		c-0.447,0.75-1.337,1.201-2.529,1.201c-0.592,0-1.488-0.15-2.375-0.451c-8.915,6.74-25.551,15.883-39.812,21.725v51.98
		c0,5.989,0.599,6.594,4.752,6.594h19.612c2.075,0,3.86-0.306,5.347-2.553c1.633-2.243,4.163-11.229,6.979-21.119H286.974z"/>
	<path d="M335.778,98.548c6.984-1.5,14.411-2.996,21.687-4.649l0.446,1.8c-5.494,3.294-12.923,7.641-22.133,12.584v42.997
		c0,10.479-2.375,18.12-19.016,19.771c0-10.487-2.673-13.788-13.513-15.134v-2.099h15.298c1.784,0,2.378-0.74,2.378-2.539v-35.355
		c-2.826,1.499-5.795,2.993-8.91,4.494c-0.746,1.941-2.231,3.292-4.014,3.896l-6.685-19.477c4.163-0.602,11.144-1.794,19.608-3.442
		V67.09h-18.274l-0.739-3.001h19.014V30.387l21.096,1.8c-0.153,2.245-0.891,3.293-6.243,4.043v27.859h2.08l6.986-10.781
		l12.771,11.086c-1.186,1.946-2.971,2.696-6.98,2.696h-14.856V98.548z M427.583,109.032c-0.153,1.202-7.582,4.342-12.633,4.342
		h-2.671v-6.142h-13.514v19.325h11.436l8.168-11.085l15.148,11.535c-1.183,1.797-3.264,2.542-7.129,2.542h-27.623v22.923
		c2.967,0.153,6.234,0.298,9.651,0.298c7.874,0,26.592,0,35.353-0.298v1.799c-5.048,1.052-7.273,7.188-7.273,14.234h-28.672
		c-21.838,0-34.02-6.147-40.699-30.561c-5.645,16.03-14.414,26.812-26.741,33.405l-1.782-1.648
		c10.396-10.487,16.485-30.71,17.231-54.975l20.949,3.593c-0.45,1.944-1.642,2.992-5.201,3.448
		c-0.891,4.343-1.929,8.386-3.12,12.133c3.862,7.936,8.614,12.583,14.851,15.278v-41.947h-23.023l-0.889-2.996h23.912V87.46h-32.526
		l-0.748-2.848h33.274V68.883h-23.023l-0.889-2.994h23.912V50.759h-32.526l-0.748-2.842h33.274V30.534l21.544,1.952
		c-0.299,2.243-1.931,3.294-6.09,3.891v11.541h16.483l8.466-11.687l15.597,11.985c-1.184,1.946-2.967,2.544-6.977,2.544h-33.569
		v15.129h12.176l5.939-7.635l16.046,11.379c-0.889,1.051-2.673,2.251-5.344,2.696v12.283h0.591l5.793-9.435l10.842,9.74
		c-1.182,1.946-2.967,2.543-6.832,2.543h-10.394V109.032z M398.766,68.883v15.729h13.514V68.883H398.766z M398.766,104.236h13.514
		V87.46h-13.514V104.236z"/>
	<path d="M567.445,55.405c0.887-3.6,1.632-8.239,2.225-11.983h-61.797c0.152,0.896,0.152,1.945,0.152,2.841
		c0,8.844-4.754,15.131-12.036,15.131c-4.455,0-8.612-2.544-8.612-7.039c0-4.043,3.118-6.891,6.828-8.538
		c4.461-1.946,9.213-7.19,8.916-12.732l2.08-0.154c1.04,2.703,1.786,5.097,2.227,7.495h61.053l8.022-8.392l14.411,13.929
		c-1.191,1.05-2.68,1.501-5.649,1.654c-2.97,2.695-7.723,6.142-12.026,8.838l10.395,7.036c-1.043,2.098-2.967,2.696-6.834,2.696
		h-32.081v12.587h15.148l6.091-8.091l16.787,11.837c-1.04,1.194-3.121,2.544-6.241,3.141v29.962c0,0.301-4.013,4.194-15.147,4.194
		v-4.946h-16.638v13.633h21.83l8.168-10.336l15.304,10.79c-1.186,1.941-2.968,2.545-7.13,2.545h-38.172v14.382
		c0,0.3-2.233,4.793-15.156,4.793v-19.175h-40.405l-0.887-2.999h41.292v-13.633h-16.041v1.35c0,0.299-2.229,5.393-14.854,5.393
		V72.33l15.896,6.446h14.999V66.188h-35.049l-0.895-2.996h35.943V47.465l21.244,1.8c-0.293,2.098-1.488,3.292-6.088,3.891v10.037
		h16.483L567.445,55.405z M529.562,81.617h-16.041V94.95h16.041V81.617z M513.521,111.877h16.041V97.95h-16.041V111.877z
		 M561.355,81.617h-16.638V94.95h16.638V81.617z M544.718,111.877h16.638V97.95h-16.638V111.877z"/>
	<path d="M492.646,110.225c-1.189,1.35-3.418,2.552-7.574,3.149v27.412c10.398,10.639,20.94,12.134,47.827,12.134
		c17.092,0,40.109-0.149,58.832-0.602v1.95c-6.399,1.35-9.954,6.146-10.705,13.335h-47.824c-28.23,0-39.81-4.195-49.919-24.274
		c-6.087,8.096-15.145,18.28-20.941,23.973c0,2.093-0.887,3.146-2.225,3.75l-8.911-17.981c4.905-1.646,11.884-4.641,19.014-7.938
		v-34.907H451.5l-0.594-3.292h17.082l7.725-10.488L492.646,110.225z M454.324,64.839c22.575-0.152,29.856,8.088,29.856,14.979
		c0,4.643-3.419,8.538-7.874,8.538c-1.632,0-3.418-0.596-5.201-1.798c-3.117-7.336-10.546-15.874-17.529-20.523L454.324,64.839z"/>
	<path d="M457.104,36.712c21.685,0.743,28.817,8.838,28.817,15.576c0,4.648-3.572,8.538-7.875,8.538
		c-1.781,0-3.57-0.596-5.345-1.945c-2.827-7.344-9.657-16.181-16.492-20.973L457.104,36.712z"/>
</g>
</svg>
