<?xml version="1.0" encoding="utf-8"?>
<!-- Generator: Adobe Illustrator 16.0.0, SVG Export Plug-In . SVG Version: 6.00 Build 0)  -->
<!DOCTYPE svg PUBLIC "-//W3C//DTD SVG 1.1//EN" "http://www.w3.org/Graphics/SVG/1.1/DTD/svg11.dtd">
<svg version="1.1" xmlns="http://www.w3.org/2000/svg" xmlns:xlink="http://www.w3.org/1999/xlink" x="0px" y="0px" width="1000px"
	 height="640px" viewBox="0 0 1000 640" enable-background="new 0 0 1000 640" xml:space="preserve">
<g id="Routes">
	<path id="Xinzhuang" fill="none" stroke="#F7931E" stroke-width="5.5" stroke-miterlimit="10" d="M98.518,272.623h122
		c33,0,46-34,46-34l8-19c10-24,37-20,37-20"/>
	<path id="Zhonghe-Xinlu" fill="none" stroke="#F7931E" stroke-width="5.5" stroke-miterlimit="10" d="M363.518,587.623v-93
		c0,0-4-30.669,19-30.669h59.667c0,0,8.832-0.833,14.332-6.333l8.334-11.334c0,0,5.832-7.788,9.041-8.76
		c4.47-1.354,8.959-0.573,8.959-0.573s5,0.333,8.666-1c3.668-1.333,10.98-20.254,10.98-20.254s7.354-21.413,15.02-21.577h10.5
		c0,0,8.5-0.5,8.5-8.5v-169c0-20-19-17-19-17h-206c-24,0-46-23-46-23c-26-25-45-23-45-23l-119-0.235"/>
	
		<line id="Xiaobitan" fill="none" stroke="#C1D928" stroke-width="5.5" stroke-miterlimit="10" x1="584.856" y1="598.294" x2="532.487" y2="598.294"/>
	<path id="Xindian_1_" fill="none" stroke="#006837" stroke-width="5.5" stroke-miterlimit="10" d="M674.768,587.623H570.184
		c0,0-15.332-0.667-15.332-17.332v-78.337v-46.666c0,0,1-15.334-17.668-15.334H489.85c0,0-12.883,0.002-12.883-11.665v-8.333
		c0,0,0.883-14.827-23.449-14.827l-3.666-0.004l-3.959-0.008c0,0-17.854,0.815-29.604-10.935l-8.75-8.75
		c-6.166-6.166-18.521-5.812-18.521-5.812h-66.5c-20,0-17-19-17-19v-13c0-9.635,7.266-9.9,7.266-9.9h8.513"/>
	<path id="Bannan" fill="none" stroke="#0071BC" stroke-width="5.5" stroke-miterlimit="10" d="M874.768,255.623v46
		c0,19-16,18-16,18h-566.25c-36,0-45,12-45,12s-14,15-32,16s-49,0-49,0c-26,0.443-24,30-24,30v131c1.25,29-16,29-16,29h-16.75"/>
	<path id="Xinbeitou" fill="none" stroke="#FFBDC5" stroke-width="5.5" stroke-miterlimit="10" d="M213.251,47.051l-10.748-10.747
		c-4.769-4.231-11.519-3.532-11.519-3.532h-24.5"/>
	<path id="Danxin" fill="none" stroke="#ED1C24" stroke-width="5.5" stroke-miterlimit="10" d="M817.768,386.568l-364.375-0.013
		c0,0-20.854,0.815-32.604-10.935l-18.75-18.75c-10.646-10.646-10.25-25.25-10.25-25.25l-0.002-93l-0.233-165.036
		c0,0,0.964-27.537-27.536-27.537l-120.5,0.073c0,0-9.455-0.955-14.5,4.089l-16.5,15.411c0,0-4.844,4-14,4h-121
		c0,0-9.5,0.5-16.5,7.5l-13.25,13.25"/>
	<path id="Wenhu" fill="none" stroke="#A86935" stroke-width="5.5" stroke-miterlimit="10" d="M874.768,245.623v-138
		c0-24.889-24-24-24-24l-196-0.075c-29,0-28.088,23.075-28.088,23.075l0.088,40.765c0,13.235,10,12.235,10,12.235h17
		c17,0,11,15,11,15c-7,12-38.088,15-38.088,32v227c0,31,28.088,27,28.088,27h68c22,0,22,24,22,24v26c0,23,25,27,25,27h109"/>
</g>
<g id="Station_names">
	<g id="Interchanges">
		
			<text transform="matrix(0.74 -7.326000e-04 7.326000e-04 0.74 489.7256 360.3584)" font-family="'ATC-496e7465726368616e676573-83pv-RKSJ-H'" font-size="13">Dongmen</text>
		
			<text transform="matrix(1 -9.900000e-04 9.900000e-04 1 506.2402 374.3428)" font-family="'ATC-496e7465726368616e676573-83pv-RKSJ-H'" font-size="13">東</text>
		
			<text transform="matrix(1 -9.900000e-04 9.900000e-04 1 519.2402 374.3291)" font-family="'ATC-496e7465726368616e676573-83pv-RKSJ-H'" font-size="13">門</text>
		
			<text transform="matrix(1 -9.900000e-04 9.900000e-04 1 633.2266 403.8721)" font-family="'ATC-496e7465726368616e676573-83pv-RKSJ-H'" font-size="13">大</text>
		
			<text transform="matrix(1 -9.900000e-04 9.900000e-04 1 646.2266 403.8594)" font-family="'ATC-496e7465726368616e676573-83pv-RKSJ-H'" font-size="13">安</text>
		
			<text transform="matrix(0.74 -7.326000e-04 7.326000e-04 0.74 633.2363 413.8721)" font-family="'ATC-496e7465726368616e676573-83pv-RKSJ-H'" font-size="13">Da</text>
		
			<text transform="matrix(1 -9.900000e-04 9.900000e-04 1 645.0137 416.8604)" font-family="'ATC-496e7465726368616e676573-83pv-RKSJ-H'" font-size="13">’</text>
		
			<text transform="matrix(0.74 -7.326000e-04 7.326000e-04 0.74 648.9502 413.8564)" font-family="'ATC-496e7465726368616e676573-83pv-RKSJ-H'" font-size="13">an</text>
		<text transform="matrix(1 0 0 1 397.6353 216.6772)" font-family="'ATC-496e7465726368616e676573-83pv-RKSJ-H'" font-size="13">民</text>
		<text transform="matrix(1 0 0 1 410.6353 216.6772)" font-family="'ATC-496e7465726368616e676573-83pv-RKSJ-H'" font-size="13">權</text>
		<text transform="matrix(1 0 0 1 423.6353 216.6772)" font-family="'ATC-496e7465726368616e676573-83pv-RKSJ-H'" font-size="13">西</text>
		<text transform="matrix(1 0 0 1 436.6353 216.6772)" font-family="'ATC-496e7465726368616e676573-83pv-RKSJ-H'" font-size="13">路</text>
		
			<text transform="matrix(0.74 0 0 0.74 397.6353 226.6772)" font-family="'ATC-496e7465726368616e676573-83pv-RKSJ-H'" font-size="13">Minquan W. Rd.</text>
		<text transform="matrix(1 0 0 1 290.5918 219.957)" font-family="'ATC-496e7465726368616e676573-83pv-RKSJ-H'" font-size="13">大</text>
		<text transform="matrix(1 0 0 1 303.5918 219.957)" font-family="'ATC-496e7465726368616e676573-83pv-RKSJ-H'" font-size="13">橋</text>
		<text transform="matrix(1 0 0 1 316.5918 219.957)" font-family="'ATC-496e7465726368616e676573-83pv-RKSJ-H'" font-size="13">頭</text>
		
			<text transform="matrix(0.74 0 0 0.74 287.3652 229.957)" font-family="'ATC-496e7465726368616e676573-83pv-RKSJ-H'" font-size="13">Daqiaotou</text>
		
			<text transform="matrix(0.74 0 0 0.74 215.5615 21.9878)" font-family="'ATC-496e7465726368616e676573-83pv-RKSJ-H'" font-size="13">Beitou</text>
		<text transform="matrix(1 0 0 1 216.6689 35.9878)" font-family="'ATC-496e7465726368616e676573-83pv-RKSJ-H'" font-size="13">北</text>
		<text transform="matrix(1 0 0 1 229.6689 35.9878)" font-family="'ATC-496e7465726368616e676573-83pv-RKSJ-H'" font-size="13">投</text>
		<text transform="matrix(1 0 0 1 631.832 336.6152)" font-family="'ATC-496e7465726368616e676573-83pv-RKSJ-H'" font-size="13">忠</text>
		<text transform="matrix(1 0 0 1 644.832 336.6152)" font-family="'ATC-496e7465726368616e676573-83pv-RKSJ-H'" font-size="13">孝</text>
		<text transform="matrix(1 0 0 1 657.832 336.6152)" font-family="'ATC-496e7465726368616e676573-83pv-RKSJ-H'" font-size="13">復</text>
		<text transform="matrix(1 0 0 1 670.832 336.6152)" font-family="'ATC-496e7465726368616e676573-83pv-RKSJ-H'" font-size="13">興</text>
		
			<text transform="matrix(0.74 0 0 0.74 631.832 346.6152)" font-family="'ATC-496e7465726368616e676573-83pv-RKSJ-H'" font-size="13">Zhongxiao</text>
		
			<text transform="matrix(0.74 0 0 0.74 631.832 356.6152)" font-family="'ATC-496e7465726368616e676573-83pv-RKSJ-H'" font-size="13">Fuxing</text>
		<text transform="matrix(1 0 0 1 542.0996 335.6152)" font-family="'ATC-496e7465726368616e676573-83pv-RKSJ-H'" font-size="13">忠</text>
		<text transform="matrix(1 0 0 1 555.0996 335.6152)" font-family="'ATC-496e7465726368616e676573-83pv-RKSJ-H'" font-size="13">孝</text>
		<text transform="matrix(1 0 0 1 568.0996 335.6152)" font-family="'ATC-496e7465726368616e676573-83pv-RKSJ-H'" font-size="13">新</text>
		<text transform="matrix(1 0 0 1 581.0996 335.6152)" font-family="'ATC-496e7465726368616e676573-83pv-RKSJ-H'" font-size="13">生</text>
		
			<text transform="matrix(0.74 0 0 0.74 542.0996 345.6152)" font-family="'ATC-496e7465726368616e676573-83pv-RKSJ-H'" font-size="13">Zhongxiao</text>
		
			<text transform="matrix(0.74 0 0 0.74 542.0996 355.6152)" font-family="'ATC-496e7465726368616e676573-83pv-RKSJ-H'" font-size="13">Xinsheng</text>
		<text transform="matrix(1 0 0 1 410.8179 435.0449)" font-family="'ATC-496e7465726368616e676573-83pv-RKSJ-H'" font-size="13">中</text>
		<text transform="matrix(1 0 0 1 423.8179 435.0449)" font-family="'ATC-496e7465726368616e676573-83pv-RKSJ-H'" font-size="13">正</text>
		<text transform="matrix(1 0 0 1 436.8179 435.0449)" font-family="'ATC-496e7465726368616e676573-83pv-RKSJ-H'" font-size="13">紀</text>
		<text transform="matrix(1 0 0 1 449.8179 435.0449)" font-family="'ATC-496e7465726368616e676573-83pv-RKSJ-H'" font-size="13">念</text>
		<text transform="matrix(1 0 0 1 462.8179 435.0449)" font-family="'ATC-496e7465726368616e676573-83pv-RKSJ-H'" font-size="13">堂</text>
		
			<text transform="matrix(0.74 0 0 0.74 406.709 445.0449)" font-family="'ATC-496e7465726368616e676573-83pv-RKSJ-H'" font-size="13">Chiang Kai-shek</text>
		
			<text transform="matrix(0.74 0 0 0.74 415.8193 455.0449)" font-family="'ATC-496e7465726368616e676573-83pv-RKSJ-H'" font-size="13">Memorial Hall</text>
		
			<text transform="matrix(0.9999 0.0153 -0.0153 0.9999 401.5117 335.834)" font-family="'ATC-496e7465726368616e676573-83pv-RKSJ-H'" font-size="13">台</text>
		
			<text transform="matrix(0.9999 0.0153 -0.0153 0.9999 414.5103 336.0332)" font-family="'ATC-496e7465726368616e676573-83pv-RKSJ-H'" font-size="13">北</text>
		
			<text transform="matrix(0.9999 0.0153 -0.0153 0.9999 427.5088 336.2324)" font-family="'ATC-496e7465726368616e676573-83pv-RKSJ-H'" font-size="13">車</text>
		
			<text transform="matrix(0.9999 0.0153 -0.0153 0.9999 440.5073 336.4316)" font-family="'ATC-496e7465726368616e676573-83pv-RKSJ-H'" font-size="13">站</text>
		
			<text transform="matrix(0.7399 0.0113 -0.0113 0.7399 401.3584 345.832)" font-family="'ATC-496e7465726368616e676573-83pv-RKSJ-H'" font-size="13">Taipei Main Sta.</text>
		
			<text transform="matrix(0.74 0 0 0.74 428.3872 361.4766)" font-family="'ATC-496e7465726368616e676573-83pv-RKSJ-H'" font-size="13">Guting</text>
		<text transform="matrix(1 0 0 1 428.3872 375.4766)" font-family="'ATC-496e7465726368616e676573-83pv-RKSJ-H'" font-size="13">古</text>
		<text transform="matrix(1 0 0 1 441.3872 375.4766)" font-family="'ATC-496e7465726368616e676573-83pv-RKSJ-H'" font-size="13">亭</text>
		
			<text transform="matrix(0.74 0 0 0.74 564.9229 563.1367)" font-family="'ATC-496e7465726368616e676573-83pv-RKSJ-H'" font-size="13">Qizhang</text>
		<text transform="matrix(1 0 0 1 569.9355 577.1367)" font-family="'ATC-496e7465726368616e676573-83pv-RKSJ-H'" font-size="13">七</text>
		<text transform="matrix(1 0 0 1 582.9355 577.1367)" font-family="'ATC-496e7465726368616e676573-83pv-RKSJ-H'" font-size="13">張</text>
		<text transform="matrix(1 0 0 1 798.6504 251.5532)" font-family="'ATC-496e7465726368616e676573-83pv-RKSJ-H'" font-size="13">南</text>
		<text transform="matrix(1 0 0 1 811.6504 251.5532)" font-family="'ATC-496e7465726368616e676573-83pv-RKSJ-H'" font-size="13">港</text>
		<text transform="matrix(1 0 0 1 824.6504 251.5532)" font-family="'ATC-496e7465726368616e676573-83pv-RKSJ-H'" font-size="13">展</text>
		<text transform="matrix(1 0 0 1 837.6504 251.5532)" font-family="'ATC-496e7465726368616e676573-83pv-RKSJ-H'" font-size="13">覽</text>
		<text transform="matrix(1 0 0 1 850.6504 251.5532)" font-family="'ATC-496e7465726368616e676573-83pv-RKSJ-H'" font-size="13">館</text>
		
			<text transform="matrix(0.74 0 0 0.74 824.3242 261.5532)" font-family="'ATC-496e7465726368616e676573-83pv-RKSJ-H'" font-size="13">Nangang</text>
		
			<text transform="matrix(0.74 0 0 0.74 788.8574 271.5532)" font-family="'ATC-496e7465726368616e676573-83pv-RKSJ-H'" font-size="13">Exhibition Centre</text>
		<text transform="matrix(1 0 0 1 330.3325 335.6367)" font-family="'ATC-496e7465726368616e676573-83pv-RKSJ-H'" font-size="13">西</text>
		<text transform="matrix(1 0 0 1 343.3325 335.6367)" font-family="'ATC-496e7465726368616e676573-83pv-RKSJ-H'" font-size="13">門</text>
		
			<text transform="matrix(0.74 0 0 0.74 328.8101 345.6367)" font-family="'ATC-496e7465726368616e676573-83pv-RKSJ-H'" font-size="13">Ximen</text>
	</g>
</g>
<g id="Stations_1_">
	<g id="termini_1_">
		<g id="Xiangshan_2_">
			<g>
				<g>
					<circle fill="#FFFFFF" cx="817.768" cy="386.568" r="3.334"/>
				</g>
				<g>
					<circle fill="none" stroke="#ED1C24" stroke-width="2.5" cx="817.768" cy="386.568" r="3.334"/>
				</g>
			</g>
			<g>
				<g>
					<circle fill="#ED1C24" cx="817.768" cy="386.568" r="2.959"/>
				</g>
				<g>
					<path fill="#FFFFFF" d="M817.768,383.984c1.426,0,2.584,1.158,2.584,2.584c0,1.425-1.158,2.584-2.584,2.584
						c-1.425,0-2.584-1.159-2.584-2.584C815.184,385.143,816.343,383.984,817.768,383.984 M817.768,383.234
						c-1.841,0-3.334,1.491-3.334,3.334c0,1.842,1.493,3.334,3.334,3.334c1.842,0,3.334-1.492,3.334-3.334
						C821.102,384.726,819.609,383.234,817.768,383.234L817.768,383.234z"/>
				</g>
			</g>
		</g>
		<g id="Danshui_2_">
			<g>
				<g>
					<circle fill="#FFFFFF" cx="47.768" cy="91.322" r="3.334"/>
				</g>
				<g>
					<circle fill="none" stroke="#ED1C24" stroke-width="2.5" cx="47.768" cy="91.322" r="3.334"/>
				</g>
			</g>
			<g>
				<g>
					<path fill="#ED1C24" d="M47.768,94.281c-1.631,0-2.959-1.328-2.959-2.959c0-1.631,1.328-2.959,2.959-2.959
						s2.959,1.328,2.959,2.959C50.727,92.953,49.399,94.281,47.768,94.281z"/>
				</g>
				<g>
					<path fill="#FFFFFF" d="M47.768,88.738c1.425,0,2.584,1.159,2.584,2.584c0,1.425-1.159,2.584-2.584,2.584
						c-1.425,0-2.584-1.159-2.584-2.584C45.184,89.897,46.343,88.738,47.768,88.738 M47.768,87.988
						c-1.841,0-3.334,1.492-3.334,3.334c0,1.842,1.493,3.334,3.334,3.334c1.841,0,3.334-1.492,3.334-3.334
						C51.102,89.48,49.609,87.988,47.768,87.988L47.768,87.988z"/>
				</g>
			</g>
		</g>
		<g id="Xinbeitou_1_">
			<g>
				<g>
					<circle fill="#FFFFFF" cx="166.485" cy="33.322" r="3.334"/>
				</g>
				<g>
					<circle fill="none" stroke="#FFBDC5" stroke-width="2.5" cx="166.485" cy="33.322" r="3.334"/>
				</g>
			</g>
			<g>
				<g>
					<circle fill="#FFBDC5" cx="166.485" cy="33.322" r="2.834"/>
				</g>
				<g>
					<path fill="#FFFFFF" d="M166.485,30.988c1.287,0,2.334,1.047,2.334,2.334c0,1.287-1.047,2.334-2.334,2.334
						c-1.287,0-2.334-1.047-2.334-2.334C164.151,32.035,165.198,30.988,166.485,30.988 M166.485,29.988
						c-1.841,0-3.334,1.492-3.334,3.334c0,1.842,1.493,3.334,3.334,3.334c1.841,0,3.334-1.492,3.334-3.334
						C169.819,31.48,168.326,29.988,166.485,29.988L166.485,29.988z"/>
				</g>
			</g>
		</g>
		<g id="Taibei_Zoo_2_">
			<g>
				<g>
					<circle fill="#FFFFFF" cx="879.131" cy="537.623" r="3.334"/>
				</g>
				<g>
					<circle fill="none" stroke="#A86935" stroke-width="2.5" cx="879.131" cy="537.623" r="3.334"/>
				</g>
			</g>
			<g>
				<g>
					<path fill="#A86935" d="M879.13,540.457c-1.55,0-2.82-1.261-2.833-2.812c-0.006-0.757,0.283-1.471,0.814-2.011
						c0.53-0.539,1.239-0.84,1.997-0.846c1.572,0,2.844,1.261,2.855,2.812c0.006,0.758-0.283,1.472-0.813,2.012
						c-0.531,0.539-1.24,0.84-1.997,0.846H879.13z"/>
				</g>
				<g>
					<path fill="#FFFFFF" d="M879.132,534.289v1c1.276,0,2.323,1.039,2.333,2.314c0.005,0.624-0.232,1.213-0.671,1.656
						c-0.438,0.444-1.021,0.691-1.664,0.696c-1.276,0-2.323-1.039-2.333-2.315c-0.005-0.624,0.233-1.212,0.671-1.655
						c0.438-0.444,1.021-0.691,1.646-0.696L879.132,534.289 M879.132,534.289c-0.009,0-0.019,0-0.026,0
						c-1.842,0.015-3.322,1.519-3.309,3.36c0.016,1.833,1.505,3.308,3.333,3.308c0.009,0,0.02,0,0.027,0
						c1.841-0.015,3.322-1.52,3.308-3.36C882.451,535.764,880.96,534.289,879.132,534.289L879.132,534.289z"/>
				</g>
			</g>
		</g>
		<g id="Yongning_2_">
			<g>
				<g>
					<circle fill="#FFFFFF" cx="109.768" cy="537.623" r="3.334"/>
				</g>
				<g>
					<circle fill="none" stroke="#0071BC" stroke-width="2.5" cx="109.768" cy="537.623" r="3.334"/>
				</g>
			</g>
			<g>
				<g>
					<path fill="#0071BC" d="M109.768,540.457c-1.55,0-2.821-1.261-2.833-2.812c-0.006-0.757,0.283-1.471,0.814-2.011
						c0.531-0.539,1.24-0.84,1.997-0.846c1.573,0,2.844,1.261,2.856,2.812c0.006,0.758-0.283,1.472-0.814,2.012
						c-0.531,0.539-1.24,0.84-1.997,0.846H109.768z"/>
				</g>
				<g>
					<path fill="#FFFFFF" d="M109.769,534.289v1c1.276,0,2.323,1.039,2.333,2.314c0.005,0.624-0.233,1.213-0.67,1.656
						c-0.438,0.444-1.022,0.691-1.664,0.696c-1.277,0-2.323-1.039-2.333-2.315c-0.005-0.624,0.233-1.212,0.67-1.655
						c0.438-0.444,1.022-0.691,1.645-0.696L109.769,534.289 M109.769,534.289c-0.009,0-0.018,0-0.027,0
						c-1.841,0.015-3.322,1.519-3.308,3.36c0.015,1.833,1.505,3.308,3.333,3.308c0.009,0,0.018,0,0.027,0
						c1.841-0.015,3.322-1.52,3.308-3.36C113.087,535.764,111.597,534.289,109.769,534.289L109.769,534.289z"/>
				</g>
			</g>
		</g>
		<g id="FJU_2_">
			<g>
				<g>
					<circle fill="#FFFFFF" cx="98.518" cy="272.623" r="3.334"/>
				</g>
				<g>
					<circle fill="none" stroke="#F7931E" stroke-width="2.5" cx="98.518" cy="272.623" r="3.334"/>
				</g>
			</g>
			<g>
				<g>
					<path fill="#F7931E" d="M98.518,275.457c-1.55,0-2.821-1.261-2.833-2.812c-0.006-0.757,0.283-1.471,0.814-2.011
						c0.531-0.54,1.24-0.84,1.997-0.846c1.573,0,2.844,1.261,2.856,2.812c0.006,0.757-0.283,1.471-0.814,2.011
						c-0.531,0.54-1.24,0.84-1.997,0.846H98.518z"/>
				</g>
				<g>
					<path fill="#FFFFFF" d="M98.519,269.289v1c1.276,0,2.323,1.039,2.333,2.315c0.005,0.624-0.233,1.212-0.67,1.656
						c-0.438,0.444-1.022,0.692-1.664,0.697c-1.277,0-2.323-1.039-2.333-2.315c-0.005-0.624,0.233-1.212,0.67-1.656
						c0.438-0.444,1.022-0.692,1.645-0.697L98.519,269.289 M98.519,269.289c-0.009,0-0.018,0-0.027,0
						c-1.841,0.015-3.322,1.519-3.308,3.36c0.015,1.833,1.505,3.308,3.333,3.308c0.009,0,0.018,0,0.027,0
						c1.841-0.015,3.322-1.519,3.308-3.36C101.837,270.764,100.347,269.289,98.519,269.289L98.519,269.289z"/>
				</g>
			</g>
		</g>
		<g id="Luzhou_2_">
			<g>
				<g>
					<circle fill="#FFFFFF" cx="98.518" cy="153.388" r="3.334"/>
				</g>
				<g>
					<circle fill="none" stroke="#F7931E" stroke-width="2.5" cx="98.518" cy="153.388" r="3.334"/>
				</g>
			</g>
			<g>
				<g>
					<path fill="#F7931E" d="M98.518,156.222c-1.55,0-2.821-1.261-2.833-2.812c-0.006-0.757,0.283-1.471,0.814-2.011
						c0.531-0.54,1.24-0.84,1.997-0.846c1.573,0,2.844,1.261,2.856,2.812c0.006,0.757-0.283,1.471-0.814,2.011
						c-0.531,0.54-1.24,0.84-1.997,0.846H98.518z"/>
				</g>
				<g>
					<path fill="#FFFFFF" d="M98.519,150.054v1c1.276,0,2.323,1.039,2.333,2.315c0.005,0.624-0.233,1.211-0.67,1.656
						c-0.438,0.444-1.022,0.692-1.664,0.697c-1.277,0-2.323-1.039-2.333-2.315c-0.005-0.624,0.233-1.211,0.67-1.656
						c0.438-0.444,1.022-0.692,1.645-0.697L98.519,150.054 M98.519,150.054c-0.009,0-0.018,0-0.027,0
						c-1.841,0.015-3.322,1.519-3.308,3.36c0.015,1.833,1.505,3.308,3.333,3.308c0.009,0,0.018,0,0.027,0
						c1.841-0.015,3.322-1.519,3.308-3.36C101.837,151.529,100.347,150.054,98.519,150.054L98.519,150.054z"/>
				</g>
			</g>
		</g>
		<g id="Nanshijiao_2_">
			<g>
				<g>
					<circle fill="#FFFFFF" cx="363.518" cy="587.623" r="3.334"/>
				</g>
				<g>
					<circle fill="none" stroke="#F7931E" stroke-width="2.5" cx="363.518" cy="587.623" r="3.334"/>
				</g>
			</g>
			<g>
				<g>
					<path fill="#F7931E" d="M363.517,590.457c-1.55,0-2.821-1.261-2.833-2.812c-0.006-0.757,0.283-1.471,0.814-2.011
						c0.531-0.539,1.24-0.84,1.997-0.846c1.573,0,2.844,1.261,2.856,2.812c0.006,0.758-0.283,1.472-0.814,2.012
						c-0.531,0.539-1.24,0.84-1.997,0.846H363.517z"/>
				</g>
				<g>
					<path fill="#FFFFFF" d="M363.519,584.289v1c1.276,0,2.323,1.039,2.333,2.314c0.005,0.625-0.233,1.213-0.67,1.656
						c-0.438,0.444-1.022,0.691-1.664,0.696c-1.277,0-2.323-1.039-2.333-2.315c-0.005-0.624,0.233-1.212,0.67-1.655
						c0.438-0.444,1.022-0.691,1.645-0.696L363.519,584.289 M363.518,584.289c-0.009,0-0.018,0-0.027,0
						c-1.841,0.015-3.322,1.519-3.308,3.36c0.015,1.833,1.505,3.308,3.333,3.308c0.009,0,0.018,0,0.027,0
						c1.841-0.015,3.322-1.52,3.308-3.36C366.837,585.764,365.347,584.289,363.518,584.289L363.518,584.289z"/>
				</g>
			</g>
		</g>
		<g id="Xindian_3_">
			<g>
				<g>
					<circle fill="#FFFFFF" cx="674.768" cy="587.623" r="3.334"/>
				</g>
				<g>
					<circle fill="none" stroke="#006837" stroke-width="2.5" cx="674.768" cy="587.623" r="3.334"/>
				</g>
			</g>
			<g>
				<g>
					<path fill="#006837" d="M674.767,590.457c-1.55,0-2.819-1.261-2.833-2.812c-0.006-0.757,0.283-1.471,0.814-2.011
						c0.531-0.539,1.24-0.84,1.997-0.846c1.573,0,2.844,1.261,2.856,2.812c0.006,0.758-0.283,1.472-0.814,2.012
						c-0.531,0.539-1.24,0.84-1.997,0.846H674.767z"/>
				</g>
				<g>
					<path fill="#FFFFFF" d="M674.769,584.289v1c1.276,0,2.323,1.039,2.333,2.314c0.006,0.625-0.232,1.213-0.671,1.656
						c-0.438,0.444-1.021,0.691-1.664,0.696c-1.275,0-2.322-1.039-2.333-2.315c-0.005-0.624,0.233-1.212,0.672-1.655
						c0.438-0.444,1.021-0.691,1.645-0.696L674.769,584.289 M674.769,584.289c-0.009,0-0.019,0-0.026,0
						c-1.841,0.015-3.322,1.519-3.309,3.36c0.016,1.833,1.506,3.308,3.333,3.308c0.01,0,0.02,0,0.027,0
						c1.841-0.015,3.322-1.52,3.308-3.36C678.087,585.764,676.597,584.289,674.769,584.289L674.769,584.289z"/>
				</g>
			</g>
		</g>
		<g id="Xiaobitan_1_">
			<g>
				<g>
					<circle fill="#FFFFFF" cx="532.487" cy="598.294" r="3.334"/>
				</g>
				<g>
					<circle fill="none" stroke="#C1D928" stroke-width="2.5" cx="532.487" cy="598.294" r="3.334"/>
				</g>
			</g>
			<g>
				<g>
					<path fill="#C1D928" d="M532.486,601.128c-1.551,0-2.82-1.261-2.833-2.812c-0.006-0.758,0.282-1.472,0.813-2.012
						c0.531-0.539,1.24-0.84,1.997-0.846c1.573,0,2.844,1.261,2.856,2.812c0.006,0.757-0.283,1.471-0.814,2.011
						c-0.531,0.539-1.24,0.84-1.997,0.846H532.486z"/>
				</g>
				<g>
					<path fill="#FFFFFF" d="M532.488,594.96v1c1.275,0,2.322,1.039,2.333,2.315c0.005,0.624-0.233,1.212-0.671,1.655
						c-0.438,0.444-1.021,0.691-1.664,0.696c-1.276,0-2.323-1.039-2.333-2.314c-0.005-0.625,0.232-1.213,0.671-1.656
						c0.438-0.444,1.021-0.691,1.645-0.696L532.488,594.96 M532.488,594.96c-0.01,0-0.02,0-0.027,0
						c-1.841,0.015-3.322,1.519-3.308,3.36c0.015,1.833,1.505,3.308,3.333,3.308c0.009,0,0.019,0,0.026,0
						c1.841-0.015,3.322-1.519,3.309-3.36C535.806,596.435,534.316,594.96,532.488,594.96L532.488,594.96z"/>
				</g>
			</g>
		</g>
	</g>
	<g id="regular_1_">
		<g id="Brown_1_">
			<line fill="none" stroke="#A86935" stroke-width="4" x1="672.268" y1="164.387" x2="663.268" y2="164.387"/>
			<line fill="none" stroke="#A86935" stroke-width="4" x1="634.268" y1="266.387" x2="625.268" y2="266.387"/>
			<line fill="none" stroke="#A86935" stroke-width="4" x1="660.985" y1="84.156" x2="660.985" y2="75.156"/>
			<line fill="none" stroke="#A86935" stroke-width="4" x1="748.985" y1="84.156" x2="748.985" y2="75.156"/>
			<line fill="none" stroke="#A86935" stroke-width="4" x1="704.985" y1="92.156" x2="704.985" y2="83.156"/>
			<line fill="none" stroke="#A86935" stroke-width="4" x1="792.985" y1="92.156" x2="792.985" y2="83.156"/>
			<line fill="none" stroke="#A86935" stroke-width="4" x1="836.985" y1="84.156" x2="836.985" y2="75.156"/>
			<line fill="none" stroke="#A86935" stroke-width="4" x1="634.268" y1="222.387" x2="625.268" y2="222.387"/>
			<line fill="none" stroke="#A86935" stroke-width="4" x1="628.268" y1="137.387" x2="619.268" y2="137.387"/>
			<line fill="none" stroke="#A86935" stroke-width="4" x1="628.268" y1="105.387" x2="619.268" y2="105.387"/>
			<line fill="none" stroke="#A86935" stroke-width="4" x1="876.268" y1="127.387" x2="867.268" y2="127.387"/>
			<line fill="none" stroke="#A86935" stroke-width="4" x1="876.268" y1="167.387" x2="867.268" y2="167.387"/>
			<line fill="none" stroke="#A86935" stroke-width="4" x1="876.268" y1="207.387" x2="867.268" y2="207.387"/>
			<line fill="none" stroke="#A86935" stroke-width="4" x1="847.985" y1="546.457" x2="847.985" y2="537.457"/>
			<line fill="none" stroke="#A86935" stroke-width="4" x1="808.985" y1="537.457" x2="808.985" y2="528.457"/>
			<line fill="none" stroke="#A86935" stroke-width="4" x1="768.985" y1="546.457" x2="768.985" y2="537.457"/>
			<line fill="none" stroke="#A86935" stroke-width="4" x1="703.268" y1="469.137" x2="703.268" y2="460.137"/>
			<line fill="none" stroke="#A86935" stroke-width="4" x1="660.268" y1="461.137" x2="660.268" y2="452.137"/>
			<line fill="none" stroke="#A86935" stroke-width="4" x1="752.485" y1="509.322" x2="743.485" y2="509.322"/>
			<line fill="none" stroke="#A86935" stroke-width="4" x1="752.485" y1="479.322" x2="743.485" y2="479.322"/>
		</g>
		<g id="Red_1_">
			<line fill="none" stroke="#ED1C24" stroke-width="4" x1="262.184" y1="47.156" x2="262.184" y2="38.156"/>
			<line fill="none" stroke="#ED1C24" stroke-width="4" x1="295.184" y1="47.156" x2="295.184" y2="38.156"/>
			<line fill="none" stroke="#ED1C24" stroke-width="4" x1="326.184" y1="47.156" x2="326.184" y2="38.156"/>
			<line fill="none" stroke="#ED1C24" stroke-width="4" x1="360.184" y1="47.156" x2="360.184" y2="38.156"/>
			<line fill="none" stroke="#ED1C24" stroke-width="4" x1="389.971" y1="69.322" x2="398.971" y2="69.322"/>
			<line fill="none" stroke="#ED1C24" stroke-width="4" x1="411.839" y1="368.321" x2="418.204" y2="361.957"/>
			<line fill="none" stroke="#ED1C24" stroke-width="4" x1="389.971" y1="238.322" x2="398.971" y2="238.322"/>
			<line fill="none" stroke="#ED1C24" stroke-width="4" x1="389.971" y1="124.322" x2="398.971" y2="124.322"/>
			<line fill="none" stroke="#ED1C24" stroke-width="4" x1="384.971" y1="98.322" x2="393.971" y2="98.322"/>
			<line fill="none" stroke="#ED1C24" stroke-width="4" x1="384.971" y1="276.322" x2="393.971" y2="276.322"/>
			<line fill="none" stroke="#ED1C24" stroke-width="4" x1="384.971" y1="152.322" x2="393.971" y2="152.322"/>
			<line fill="none" stroke="#ED1C24" stroke-width="4" x1="683.936" y1="387.334" x2="683.936" y2="378.334"/>
			<line fill="none" stroke="#ED1C24" stroke-width="4" x1="754.936" y1="394.334" x2="754.936" y2="385.334"/>
			<line fill="none" stroke="#ED1C24" stroke-width="4" x1="591.936" y1="394.334" x2="591.936" y2="385.334"/>
			<line fill="none" stroke="#ED1C24" stroke-width="4" x1="482.936" y1="388.334" x2="482.936" y2="379.334"/>
			<line fill="none" stroke="#ED1C24" stroke-width="4" x1="68.351" y1="72.504" x2="61.987" y2="66.14"/>
			<line fill="none" stroke="#ED1C24" stroke-width="4" x1="215.351" y1="72.504" x2="208.987" y2="66.14"/>
			<line fill="none" stroke="#ED1C24" stroke-width="4" x1="97.184" y1="78.156" x2="97.184" y2="69.156"/>
			<line fill="none" stroke="#ED1C24" stroke-width="4" x1="139.184" y1="78.156" x2="139.184" y2="69.156"/>
			<line fill="none" stroke="#ED1C24" stroke-width="4" x1="178.184" y1="78.156" x2="178.184" y2="69.156"/>
		</g>
		<g id="Green_1_">
			<line fill="none" stroke="#006837" stroke-width="4" x1="313.018" y1="348.873" x2="304.018" y2="348.873"/>
			<line fill="none" stroke="#006837" stroke-width="4" x1="556.171" y1="561.137" x2="547.171" y2="561.137"/>
			<line fill="none" stroke="#006837" stroke-width="4" x1="556.171" y1="493.137" x2="547.171" y2="493.137"/>
			<line fill="none" stroke="#006837" stroke-width="4" x1="563.171" y1="530.137" x2="554.171" y2="530.137"/>
			<line fill="none" stroke="#006837" stroke-width="4" x1="626.524" y1="587.67" x2="626.524" y2="578.67"/>
			<line fill="none" stroke="#006837" stroke-width="4" x1="516.364" y1="437.231" x2="516.364" y2="428.231"/>
			<line fill="none" stroke="#006837" stroke-width="4" x1="563.171" y1="460.137" x2="554.171" y2="460.137"/>
		</g>
		<g id="Blue_1_">
			<line fill="none" stroke="#0071BC" stroke-width="4" x1="867.631" y1="292.918" x2="876.631" y2="292.918"/>
			<line fill="none" stroke="#0071BC" stroke-width="4" x1="709.985" y1="318.387" x2="709.985" y2="327.387"/>
			<line fill="none" stroke="#0071BC" stroke-width="4" x1="743.985" y1="311.387" x2="743.985" y2="320.387"/>
			<line fill="none" stroke="#0071BC" stroke-width="4" x1="464.985" y1="318.387" x2="464.985" y2="327.387"/>
			<line fill="none" stroke="#0071BC" stroke-width="4" x1="669.985" y1="311.387" x2="669.985" y2="320.387"/>
			<line fill="none" stroke="#0071BC" stroke-width="4" x1="781.985" y1="318.387" x2="781.985" y2="327.387"/>
			<line fill="none" stroke="#0071BC" stroke-width="4" x1="822.985" y1="318.387" x2="822.985" y2="327.387"/>
			<line fill="none" stroke="#0071BC" stroke-width="4" x1="861.985" y1="318.387" x2="861.985" y2="327.387"/>
			<line fill="none" stroke="#0071BC" stroke-width="4" x1="234.966" y1="340.191" x2="240.391" y2="347.373"/>
			<line fill="none" stroke="#0071BC" stroke-width="4" x1="184.985" y1="347.373" x2="184.985" y2="356.373"/>
			<line fill="none" stroke="#0071BC" stroke-width="4" x1="150.184" y1="412.623" x2="141.184" y2="412.623"/>
			<line fill="none" stroke="#0071BC" stroke-width="4" x1="150.184" y1="472.623" x2="141.184" y2="472.623"/>
			<line fill="none" stroke="#0071BC" stroke-width="4" x1="143.184" y1="502.623" x2="134.184" y2="502.623"/>
			<line fill="none" stroke="#0071BC" stroke-width="4" x1="143.184" y1="442.623" x2="134.184" y2="442.623"/>
			<line fill="none" stroke="#0071BC" stroke-width="4" x1="143.184" y1="382.623" x2="134.184" y2="382.623"/>
			<line fill="none" stroke="#0071BC" stroke-width="4" x1="144.366" y1="535.471" x2="138.002" y2="529.106"/>
		</g>
		<g id="Orange_1_">
			<line fill="none" stroke="#F7931E" stroke-width="4" x1="212.985" y1="155.054" x2="212.985" y2="146.054"/>
			<line fill="none" stroke="#F7931E" stroke-width="4" x1="254.002" y1="167.737" x2="260.367" y2="161.373"/>
			<line fill="none" stroke="#F7931E" stroke-width="4" x1="172.985" y1="162.054" x2="172.985" y2="153.054"/>
			<line fill="none" stroke="#F7931E" stroke-width="4" x1="133.985" y1="155.054" x2="133.985" y2="146.054"/>
			<line fill="none" stroke="#F7931E" stroke-width="4" x1="273.262" y1="222.193" x2="281.357" y2="226.124"/>
			<line fill="none" stroke="#F7931E" stroke-width="4" x1="257.123" y1="253.612" x2="264.804" y2="258.302"/>
			<line fill="none" stroke="#F7931E" stroke-width="4" x1="191.502" y1="281.374" x2="191.502" y2="272.374"/>
			<line fill="none" stroke="#F7931E" stroke-width="4" x1="129.502" y1="281.374" x2="129.502" y2="272.374"/>
			<line fill="none" stroke="#F7931E" stroke-width="4" x1="158.502" y1="272.374" x2="158.502" y2="263.374"/>
			<line fill="none" stroke="#F7931E" stroke-width="4" x1="219.502" y1="272.374" x2="219.502" y2="263.374"/>
			<line fill="none" stroke="#F7931E" stroke-width="4" x1="528.655" y1="272.322" x2="537.655" y2="272.322"/>
			<line fill="none" stroke="#F7931E" stroke-width="4" x1="535.018" y1="238.322" x2="544.018" y2="238.322"/>
			<line fill="none" stroke="#F7931E" stroke-width="4" x1="462.985" y1="199.636" x2="462.985" y2="190.636"/>
			<line fill="none" stroke="#F7931E" stroke-width="4" x1="421.303" y1="472.637" x2="421.303" y2="463.637"/>
			<line fill="none" stroke="#F7931E" stroke-width="4" x1="354.852" y1="544.322" x2="363.852" y2="544.322"/>
			<line fill="none" stroke="#F7931E" stroke-width="4" x1="362.852" y1="504.322" x2="371.852" y2="504.322"/>
		</g>
	</g>
</g>
<g id="Interchanges_1_">
	<g id="Nangang_EC_1_">
		<path fill="#FFFFFF" d="M877.817,256.873c2.729,1.133,4.651,3.823,4.651,6.964c0,4.163-3.373,7.536-7.535,7.536
			c-4.161,0-7.534-3.373-7.534-7.536c-0.002-3.097,1.866-5.758,4.539-6.917l-0.031-4.43c-2.67-1.158-4.539-3.82-4.539-6.916
			c0-4.162,3.373-7.536,7.535-7.536s7.537,3.374,7.537,7.536c0,3.14-1.923,5.83-4.652,6.963L877.817,256.873z"/>
		<path fill="none" stroke="#000000" d="M877.817,256.873c2.729,1.133,4.651,3.823,4.651,6.964c0,4.163-3.373,7.536-7.535,7.536
			c-4.161,0-7.534-3.373-7.534-7.536c-0.002-3.097,1.866-5.758,4.539-6.917l-0.031-4.43c-2.67-1.158-4.539-3.82-4.539-6.916
			c0-4.162,3.373-7.536,7.535-7.536s7.537,3.374,7.537,7.536c0,3.14-1.923,5.83-4.652,6.963L877.817,256.873z"/>
		<path fill="#A86935" d="M879.1,245.623c0,2.394-1.938,4.334-4.334,4.334c-2.393,0-4.332-1.94-4.332-4.334s1.939-4.333,4.332-4.333
			C877.161,241.29,879.1,243.229,879.1,245.623"/>
		<path fill="#0071BC" d="M879.131,263.874c0,2.394-1.938,4.333-4.334,4.333c-2.393,0-4.334-1.939-4.334-4.333
			s1.941-4.333,4.334-4.333C877.19,259.541,879.131,261.479,879.131,263.874"/>
	</g>
	<g id="Qizhang_1_">
		<path fill="#FFFFFF" d="M582.852,582.17c2.808,0,5.084,2.275,5.084,5.083v13.81c0,2.808-2.276,5.082-5.084,5.082
			c-2.807,0-5.084-2.274-5.084-5.082v-13.81C577.768,584.445,580.045,582.17,582.852,582.17"/>
		<path fill="none" stroke="#000000" d="M582.852,582.17c2.808,0,5.084,2.275,5.084,5.083v13.81c0,2.808-2.276,5.082-5.084,5.082
			c-2.807,0-5.084-2.274-5.084-5.082v-13.81C577.768,584.445,580.045,582.17,582.852,582.17z"/>
		<path fill="#006837" d="M580.676,588.812c1.472,1.562,2.396,3.365,2.433,5.533c0.02,1.127,1.77,1.129,1.75,0
			c-0.045-2.634-1.158-4.872-2.943-6.771C581.139,586.751,579.905,587.991,580.676,588.812"/>
		<path fill="#C1D928" d="M583.108,595.294c-0.054,1.97-0.849,4.043-2.435,5.297c-0.883,0.7,0.363,1.932,1.238,1.238
			c1.932-1.529,2.881-4.148,2.942-6.535C584.887,594.165,583.137,594.168,583.108,595.294"/>
	</g>
	<g id="Beitou_1_">
		<path fill="#FFFFFF" d="M218.252,49.95c-1.133,2.731-3.823,4.652-6.964,4.652c-4.162,0-7.536-3.374-7.536-7.536
			s3.374-7.535,7.536-7.535c3.097-0.001,5.758,1.869,6.917,4.539l4.429-0.031c1.16-2.67,3.821-4.539,6.917-4.539
			c4.162,0,7.536,3.374,7.536,7.536s-3.374,7.536-7.536,7.536c-3.14,0-5.831-1.921-6.963-4.652L218.252,49.95z"/>
		<path fill="none" stroke="#000000" d="M218.252,49.95c-1.133,2.731-3.823,4.652-6.964,4.652c-4.162,0-7.536-3.374-7.536-7.536
			s3.374-7.535,7.536-7.535c3.097-0.001,5.758,1.869,6.917,4.539l4.429-0.031c1.16-2.67,3.821-4.539,6.917-4.539
			c4.162,0,7.536,3.374,7.536,7.536s-3.374,7.536-7.536,7.536c-3.14,0-5.831-1.921-6.963-4.652L218.252,49.95z"/>
		<path fill="#ED1C24" d="M229.502,51.232c-2.394,0-4.333-1.94-4.333-4.334c0-2.393,1.939-4.333,4.333-4.333s4.333,1.94,4.333,4.333
			C233.835,49.292,231.896,51.232,229.502,51.232"/>
		<path fill="#FFBDC5" d="M211.251,51.263c-2.394,0-4.333-1.94-4.333-4.334c0-2.393,1.939-4.333,4.333-4.333s4.333,1.94,4.333,4.333
			C215.584,49.323,213.645,51.263,211.251,51.263"/>
	</g>
	<g id="Guting_1_">
		<path fill="#FFFFFF" d="M485.184,444.48c-2.807,0-5.084-2.275-5.084-5.084v-13.81c0-2.807,2.277-5.083,5.084-5.083
			c2.808,0,5.084,2.276,5.084,5.083v13.81C490.268,442.205,487.991,444.48,485.184,444.48"/>
		<path fill="none" stroke="#000000" d="M485.184,444.48c-2.807,0-5.084-2.275-5.084-5.084v-13.81c0-2.807,2.277-5.083,5.084-5.083
			c2.808,0,5.084,2.276,5.084,5.083v13.81C490.268,442.205,487.991,444.48,485.184,444.48z"/>
		<path fill="#F7931E" d="M485.874,439.434v-6.854c0-1.13-1.75-1.13-1.75,0v6.854C484.124,440.562,485.874,440.562,485.874,439.434"
			/>
		<path fill="#006837" d="M485.874,432.159v-5.812c0-1.129-1.75-1.129-1.75,0v5.812
			C484.124,433.288,485.874,433.288,485.874,432.159"/>
	</g>
	<g id="Da_x27_an_1_">
		<path fill="#FFFFFF" d="M629.575,379.723c2.729,1.134,4.651,3.822,4.651,6.963c0,4.164-3.373,7.537-7.534,7.537
			c-4.162,0-7.537-3.373-7.537-7.537c0-3.096,1.869-5.758,4.539-6.916l-0.029-4.43c-2.67-1.158-4.539-3.82-4.539-6.916
			c0-4.162,3.373-7.537,7.535-7.537s7.537,3.375,7.537,7.537c0,3.14-1.922,5.83-4.652,6.963L629.575,379.723z"/>
		<path fill="none" stroke="#000000" d="M629.575,379.723c2.729,1.134,4.651,3.822,4.651,6.963c0,4.164-3.373,7.537-7.534,7.537
			c-4.162,0-7.537-3.373-7.537-7.537c0-3.096,1.869-5.758,4.539-6.916l-0.029-4.43c-2.67-1.158-4.539-3.82-4.539-6.916
			c0-4.162,3.373-7.537,7.535-7.537s7.537,3.375,7.537,7.537c0,3.14-1.922,5.83-4.652,6.963L629.575,379.723z"/>
		<path fill="#A86935" d="M630.858,368.473c0,2.396-1.941,4.334-4.334,4.334c-2.394,0-4.334-1.938-4.334-4.334
			c0-2.395,1.94-4.334,4.334-4.334C628.917,364.139,630.858,366.078,630.858,368.473"/>
		<path fill="#ED1C24" d="M630.887,386.723c0,2.396-1.938,4.334-4.334,4.334c-2.393,0-4.332-1.938-4.332-4.334
			c0-2.393,1.939-4.332,4.332-4.332C628.948,382.391,630.887,384.33,630.887,386.723"/>
	</g>
	<g id="Taibei_Main_Sta._1_">
		<path fill="#FFFFFF" d="M388.753,327.553c-2.729-1.133-4.652-3.822-4.652-6.963c0-4.163,3.375-7.537,7.537-7.537
			c4.162,0,7.535,3.374,7.535,7.537c0,3.096-1.869,5.758-4.539,6.916l0.03,4.43c2.67,1.16,4.54,3.82,4.539,6.916
			c0,4.162-3.374,7.537-7.536,7.537s-7.535-3.375-7.535-7.537c0-3.139,1.921-5.83,4.652-6.963L388.753,327.553z"/>
		<path fill="none" stroke="#000000" d="M388.753,327.553c-2.729-1.133-4.652-3.822-4.652-6.963c0-4.163,3.375-7.537,7.537-7.537
			c4.162,0,7.535,3.374,7.535,7.537c0,3.096-1.869,5.758-4.539,6.916l0.03,4.43c2.67,1.16,4.54,3.82,4.539,6.916
			c0,4.162-3.374,7.537-7.536,7.537s-7.535-3.375-7.535-7.537c0-3.139,1.921-5.83,4.652-6.963L388.753,327.553z"/>
		<path fill="#ED1C24" d="M387.471,338.803c0-2.395,1.94-4.332,4.334-4.332s4.333,1.938,4.333,4.332
			c0,2.396-1.939,4.334-4.333,4.334S387.471,341.197,387.471,338.803"/>
		<path fill="#0071BC" d="M387.441,320.553c0-2.394,1.939-4.333,4.334-4.333c2.393,0,4.333,1.939,4.333,4.333
			c0,2.395-1.94,4.334-4.333,4.334C389.381,324.887,387.441,322.945,387.441,320.553"/>
	</g>
	<g id="CKS_M._Hall_1_">
		<path fill="#FFFFFF" d="M426.29,398.779c-2.225-1.709-2.646-4.901-0.934-7.127l8.418-10.947c1.711-2.225,4.901-2.644,7.129-0.932
			c2.225,1.711,2.643,4.902,0.932,7.129l-8.416,10.946C431.706,400.075,428.514,400.491,426.29,398.779"/>
		<path fill="none" stroke="#000000" d="M426.29,398.779c-2.225-1.709-2.646-4.901-0.934-7.127l8.418-10.947
			c1.711-2.225,4.901-2.644,7.129-0.932c2.225,1.711,2.643,4.902,0.932,7.129l-8.416,10.946
			C431.706,400.075,428.514,400.491,426.29,398.779z"/>
		<path fill="#006837" d="M429.975,395.107c1.394-1.812,2.785-3.623,4.181-5.437c0.688-0.895-0.834-1.765-1.513-0.883
			c-1.393,1.812-2.784,3.623-4.18,5.436C427.776,395.119,429.295,395.989,429.975,395.107"/>
		<path fill="#ED1C24" d="M434.409,389.342c1.18-1.535,2.358-3.069,3.541-4.604c0.688-0.896-0.834-1.767-1.515-0.884
			c-1.178,1.535-2.358,3.069-3.539,4.605C432.209,389.354,433.731,390.225,434.409,389.342"/>
	</g>
	<g id="Minquan_Xi_Lu_1_">
		<path fill="#FFFFFF" d="M394.551,192.304c2.731,1.133,4.652,3.823,4.652,6.964c0,4.162-3.373,7.536-7.535,7.536
			s-7.536-3.374-7.536-7.536c-0.001-3.097,1.869-5.758,4.539-6.917l-0.03-4.429c-2.67-1.16-4.539-3.821-4.539-6.917
			c0-4.162,3.373-7.536,7.535-7.536c4.162,0,7.537,3.374,7.537,7.536c0,3.14-1.922,5.831-4.652,6.963L394.551,192.304z"/>
		<path fill="none" stroke="#000000" d="M394.551,192.304c2.731,1.133,4.652,3.823,4.652,6.964c0,4.162-3.373,7.536-7.535,7.536
			s-7.536-3.374-7.536-7.536c-0.001-3.097,1.869-5.758,4.539-6.917l-0.03-4.429c-2.67-1.16-4.539-3.821-4.539-6.917
			c0-4.162,3.373-7.536,7.535-7.536c4.162,0,7.537,3.374,7.537,7.536c0,3.14-1.922,5.831-4.652,6.963L394.551,192.304z"/>
		<path fill="#ED1C24" d="M395.834,181.054c0,2.394-1.94,4.333-4.334,4.333c-2.393,0-4.333-1.938-4.333-4.333
			c0-2.394,1.94-4.333,4.333-4.333C393.894,176.721,395.834,178.66,395.834,181.054"/>
		<path fill="#F7931E" d="M395.864,199.305c0,2.394-1.94,4.333-4.334,4.333s-4.333-1.939-4.333-4.333s1.939-4.333,4.333-4.333
			S395.864,196.911,395.864,199.305"/>
	</g>
	<g id="Zhongxiao_Xinsheng_1_">
		<path fill="#FFFFFF" d="M533.801,307.418c-2.729-1.133-4.649-3.823-4.649-6.964c0-4.163,3.373-7.536,7.532-7.536
			c4.162,0,7.535,3.373,7.535,7.536c0.002,3.097-1.869,5.758-4.539,6.917l0.031,4.429c2.67,1.16,4.539,3.821,4.539,6.917
			c0,4.162-3.373,7.536-7.535,7.536s-7.537-3.374-7.537-7.536c0-3.14,1.922-5.831,4.652-6.963L533.801,307.418z"/>
		<path fill="none" stroke="#000000" d="M533.801,307.418c-2.729-1.133-4.649-3.823-4.649-6.964c0-4.163,3.373-7.536,7.532-7.536
			c4.162,0,7.535,3.373,7.535,7.536c0.002,3.097-1.869,5.758-4.539,6.917l0.031,4.429c2.67,1.16,4.539,3.821,4.539,6.917
			c0,4.162-3.373,7.536-7.535,7.536s-7.537-3.374-7.537-7.536c0-3.14,1.922-5.831,4.652-6.963L533.801,307.418z"/>
		<path fill="#0071BC" d="M532.518,318.668c0-2.395,1.939-4.333,4.336-4.333c2.394,0,4.33,1.938,4.33,4.333
			c0,2.395-1.938,4.333-4.33,4.333C534.458,323.001,532.518,321.062,532.518,318.668"/>
		<path fill="#F7931E" d="M532.487,300.417c0-2.394,1.94-4.333,4.334-4.333c2.393,0,4.334,1.939,4.334,4.333
			s-1.941,4.334-4.334,4.334C534.428,304.751,532.487,302.811,532.487,300.417"/>
	</g>
	<g id="Zhongxiao_Fuxing_1_">
		<path fill="#FFFFFF" d="M629.577,311.724c2.729,1.133,4.649,3.823,4.649,6.963c0,4.165-3.37,7.538-7.532,7.538
			s-7.537-3.373-7.537-7.538c0-3.096,1.869-5.757,4.539-6.916l-0.029-4.43c-2.67-1.158-4.539-3.82-4.539-6.916
			c0-4.162,3.373-7.536,7.535-7.536s7.537,3.374,7.537,7.536c0,3.14-1.922,5.83-4.652,6.963L629.577,311.724z"/>
		<path fill="none" stroke="#000000" d="M629.577,311.724c2.729,1.133,4.649,3.823,4.649,6.963c0,4.165-3.37,7.538-7.532,7.538
			s-7.537-3.373-7.537-7.538c0-3.096,1.869-5.757,4.539-6.916l-0.029-4.43c-2.67-1.158-4.539-3.82-4.539-6.916
			c0-4.162,3.373-7.536,7.535-7.536s7.537,3.374,7.537,7.536c0,3.14-1.922,5.83-4.652,6.963L629.577,311.724z"/>
		<path fill="#A86935" d="M630.86,300.474c0,2.394-1.941,4.334-4.334,4.334c-2.396,0-4.334-1.94-4.334-4.334
			s1.938-4.333,4.334-4.333C628.918,296.141,630.86,298.08,630.86,300.474"/>
		<path fill="#0071BC" d="M630.889,318.725c0,2.395-1.938,4.333-4.334,4.333c-2.393,0-4.332-1.938-4.332-4.333
			c0-2.393,1.939-4.333,4.332-4.333C628.95,314.392,630.889,316.332,630.889,318.725"/>
	</g>
	<g id="Dongmen_1_">
		<path fill="#FFFFFF" d="M521.448,400.861c-2.808,0-5.084-2.275-5.084-5.084V381.97c0-2.808,2.276-5.084,5.084-5.084
			c2.807,0,5.084,2.276,5.084,5.084v13.81C526.532,398.586,524.254,400.861,521.448,400.861"/>
		<path fill="none" stroke="#000000" d="M521.448,400.861c-2.808,0-5.084-2.275-5.084-5.084V381.97c0-2.808,2.276-5.084,5.084-5.084
			c2.807,0,5.084,2.276,5.084,5.084v13.81C526.532,398.586,524.254,400.861,521.448,400.861z"/>
		<path fill="#F7931E" d="M522.139,395.812v-6.854c0-1.129-1.75-1.129-1.75,0v6.854
			C520.389,396.941,522.139,396.941,522.139,395.812"/>
		<path fill="#ED1C24" d="M522.139,388.54v-5.812c0-1.129-1.75-1.129-1.75,0v5.812C520.389,389.669,522.139,389.669,522.139,388.54"
			/>
	</g>
	<g id="Ximen_1_">
		<path fill="#FFFFFF" d="M322.358,335.782c-2.807,0-5.084-2.275-5.084-5.083V316.89c0-2.806,2.277-5.083,5.084-5.083
			s5.084,2.277,5.084,5.083v13.809C327.442,333.507,325.165,335.782,322.358,335.782"/>
		<path fill="none" stroke="#000000" d="M322.358,335.782c-2.807,0-5.084-2.275-5.084-5.083V316.89c0-2.806,2.277-5.083,5.084-5.083
			s5.084,2.277,5.084,5.083v13.809C327.442,333.507,325.165,335.782,322.358,335.782z"/>
		<path fill="#006837" d="M323.047,330.734v-6.855c0-1.128-1.75-1.128-1.75,0v6.855
			C321.297,331.861,323.047,331.861,323.047,330.734"/>
		<path fill="#3A9EB5" d="M323.047,323.461v-5.811c0-1.127-1.75-1.127-1.75,0v5.811
			C321.297,324.589,323.047,324.589,323.047,323.461"/>
	</g>
	<g id="Daqiaotou_1_">
		<path fill="#FFFFFF" d="M323.505,199.374c0,2.807-2.275,5.083-5.082,5.083h-13.809c-2.806,0-5.084-2.276-5.084-5.083
			c0-2.808,2.278-5.084,5.084-5.084h13.809C321.23,194.29,323.505,196.565,323.505,199.374"/>
		<path fill="none" stroke="#000000" d="M323.505,199.374c0,2.807-2.275,5.083-5.082,5.083h-13.809
			c-2.806,0-5.084-2.276-5.084-5.083c0-2.808,2.278-5.084,5.084-5.084h13.809C321.23,194.29,323.505,196.565,323.505,199.374z"/>
		<path fill="#F7931E" d="M304.624,200.286c4.597-0.025,9.192-0.049,13.789-0.074c1.128-0.006,1.129-1.757,0-1.75
			c-4.597,0.025-9.192,0.049-13.789,0.074C303.495,198.541,303.494,200.291,304.624,200.286"/>
	</g>
</g>
</svg>
