<?xml version="1.0" encoding="utf-8"?>
<!-- Generator: Adobe Illustrator 16.0.0, SVG Export Plug-In . SVG Version: 6.00 Build 0)  -->
<!DOCTYPE svg PUBLIC "-//W3C//DTD SVG 1.1//EN" "http://www.w3.org/Graphics/SVG/1.1/DTD/svg11.dtd">
<svg version="1.1" xmlns="http://www.w3.org/2000/svg" xmlns:xlink="http://www.w3.org/1999/xlink" x="0px" y="0px" width="1000px"
	 height="640px" viewBox="-44.015 -46.678 1000 640" enable-background="new -44.015 -46.678 1000 640" xml:space="preserve">
<g id="Routes">
	<path id="Xinzhuang" fill="none" stroke="#F7931E" stroke-width="5" stroke-miterlimit="10" d="M52.518,233.623h122
		c33,0,46-34,46-34l8-19c10-24,37-20,37-20"/>
	<path id="Zhonghe-Xinlu" fill="none" stroke="#F7931E" stroke-width="5" stroke-miterlimit="10" d="M317.518,548.623v-93
		c0,0-4-30.669,19-30.669h59.668c0,0,8.833-0.833,14.333-6.333l8.333-11.334c0,0,5.833-7.788,9.042-8.76
		c4.469-1.354,8.959-0.573,8.959-0.573s5,0.333,8.666-1c3.668-1.333,10.98-20.254,10.98-20.254s7.354-21.413,15.02-21.577h10.5
		c0,0,8.5-0.5,8.5-8.5v-169c0-20-19-17-19-17h-206c-24,0-46-23-46-23c-26-25-45-23-45-23l-119-0.235"/>
	
		<line id="Xiaobitan" fill="none" stroke="#C1D928" stroke-width="5" stroke-miterlimit="10" x1="538.856" y1="559.294" x2="486.487" y2="559.294"/>
	<path id="Xindian_1_" fill="none" stroke="#006837" stroke-width="5" stroke-miterlimit="10" d="M628.768,548.623H524.184
		c0,0-15.332-0.667-15.332-17.332v-78.337v-46.666c0,0,1-15.334-17.668-15.334H443.85c0,0-12.883,0.002-12.883-11.665v-8.333
		c0,0,0.883-14.827-23.45-14.827l-3.666-0.004l-3.958-0.008c0,0-17.854,0.816-29.604-10.934l-8.75-8.75
		c-6.166-6.166-18.521-5.812-18.521-5.812h-66.5c-20,0-17-19-17-19v-13c0-9.634,7.266-9.901,7.266-9.901h8.513"/>
	<path id="Bannan" fill="none" stroke="#0071BC" stroke-width="5" stroke-miterlimit="10" d="M828.768,216.623v46c0,19-16,18-16,18
		h-566.25c-36,0-45,12-45,12s-14,15-32,16s-49,0-49,0c-26,0.443-24,30-24,30v131c1.25,29-16,29-16,29h-16.75"/>
	<path id="Xinbeitou" fill="none" stroke="#FFBDC5" stroke-width="5" stroke-miterlimit="10" d="M167.251,8.051L156.503-2.696
		c-4.769-4.231-11.519-3.532-11.519-3.532h-24.5"/>
	<path id="Danxin" fill="none" stroke="#ED1C24" stroke-width="5" stroke-miterlimit="10" d="M771.768,347.568l-364.375-0.012
		c0,0-20.854,0.815-32.604-10.935l-18.75-18.75c-10.646-10.646-10.25-25.25-10.25-25.25l-0.002-93l-0.233-165.036
		c0,0,0.964-27.537-27.536-27.537l-120.5,0.073c0,0-9.455-0.955-14.5,4.089l-16.5,15.411c0,0-4.844,4-14,4h-121
		c0,0-9.5,0.5-16.5,7.5l-13.25,13.25"/>
	<path id="Wenhu" fill="none" stroke="#A86935" stroke-width="5" stroke-miterlimit="10" d="M828.768,206.623v-138
		c0-24.889-24-24-24-24l-196-0.075c-29,0-28.088,23.075-28.088,23.075l0.088,40.765c0,13.235,10,12.235,10,12.235h17
		c17,0,11,15,11,15c-7,12-38.088,15-38.088,32v227c0,31,28.088,27,28.088,27h68c22,0,22,24,22,24v26c0,23,25,27,25,27h109"/>
</g>
<g id="Stations">
	<g id="termini">
		<g id="Xiangshan">
			<g>
				<g>
					<circle fill="#FFFFFF" cx="771.768" cy="347.568" r="3.334"/>
				</g>
				<g>
					<circle fill="none" stroke="#ED1C24" stroke-width="2.5" cx="771.768" cy="347.568" r="3.334"/>
				</g>
			</g>
			<g>
				<g>
					<circle fill="#ED1C24" cx="771.768" cy="347.568" r="2.959"/>
				</g>
				<g>
					<path fill="#FFFFFF" d="M771.768,344.984c1.425,0,2.584,1.159,2.584,2.584s-1.159,2.584-2.584,2.584s-2.584-1.159-2.584-2.584
						S770.343,344.984,771.768,344.984 M771.768,344.234c-1.841,0-3.334,1.492-3.334,3.334s1.493,3.334,3.334,3.334
						s3.334-1.492,3.334-3.334S773.609,344.234,771.768,344.234L771.768,344.234z"/>
				</g>
			</g>
		</g>
		<g id="Danshui">
			<g>
				<g>
					<circle fill="#FFFFFF" cx="1.768" cy="52.322" r="3.334"/>
				</g>
				<g>
					<circle fill="none" stroke="#ED1C24" stroke-width="2.5" cx="1.768" cy="52.322" r="3.334"/>
				</g>
			</g>
			<g>
				<g>
					<path fill="#ED1C24" d="M1.768,55.281c-1.631,0-2.959-1.328-2.959-2.959s1.328-2.959,2.959-2.959s2.959,1.328,2.959,2.959
						S3.399,55.281,1.768,55.281z"/>
				</g>
				<g>
					<path fill="#FFFFFF" d="M1.768,49.738c1.425,0,2.584,1.159,2.584,2.584s-1.159,2.584-2.584,2.584s-2.584-1.159-2.584-2.584
						S0.343,49.738,1.768,49.738 M1.768,48.988c-1.841,0-3.334,1.492-3.334,3.334s1.493,3.334,3.334,3.334s3.334-1.492,3.334-3.334
						S3.609,48.988,1.768,48.988L1.768,48.988z"/>
				</g>
			</g>
		</g>
		<g id="Xinbeitou_1_">
			<g>
				<g>
					<circle fill="#FFFFFF" cx="120.485" cy="-5.678" r="3.334"/>
				</g>
				<g>
					<circle fill="none" stroke="#FFBDC5" stroke-width="2.5" cx="120.485" cy="-5.678" r="3.334"/>
				</g>
			</g>
			<g>
				<g>
					<circle fill="#FFBDC5" cx="120.485" cy="-5.678" r="2.834"/>
				</g>
				<g>
					<path fill="#FFFFFF" d="M120.485-8.012c1.287,0,2.334,1.047,2.334,2.334s-1.047,2.334-2.334,2.334s-2.334-1.047-2.334-2.334
						S119.198-8.012,120.485-8.012 M120.485-9.012c-1.841,0-3.334,1.492-3.334,3.334s1.493,3.334,3.334,3.334
						s3.334-1.492,3.334-3.334S122.326-9.012,120.485-9.012L120.485-9.012z"/>
				</g>
			</g>
		</g>
		<g id="Taibei_Zoo">
			<g>
				<g>
					<circle fill="#FFFFFF" cx="833.131" cy="498.623" r="3.334"/>
				</g>
				<g>
					<circle fill="none" stroke="#A86935" stroke-width="2.5" cx="833.131" cy="498.623" r="3.334"/>
				</g>
			</g>
			<g>
				<g>
					<path fill="#A86935" d="M833.13,501.457c-1.55,0-2.82-1.261-2.833-2.812c-0.006-0.757,0.283-1.471,0.814-2.011
						c0.531-0.539,1.24-0.84,1.997-0.846c1.573,0,2.844,1.261,2.856,2.812c0.006,0.757-0.283,1.471-0.814,2.011
						c-0.531,0.539-1.24,0.84-1.997,0.846H833.13z"/>
				</g>
				<g>
					<path fill="#FFFFFF" d="M833.132,495.289v1c1.276,0,2.323,1.039,2.333,2.315c0.005,0.624-0.233,1.212-0.671,1.656
						s-1.021,0.691-1.664,0.696c-1.276,0-2.323-1.039-2.333-2.315c-0.005-0.624,0.233-1.212,0.671-1.656s1.021-0.691,1.645-0.696
						L833.132,495.289 M833.132,495.289c-0.009,0-0.019,0-0.027,0c-1.841,0.015-3.322,1.519-3.308,3.36
						c0.015,1.833,1.505,3.308,3.333,3.308c0.009,0,0.019,0,0.027,0c1.841-0.015,3.322-1.519,3.308-3.36
						C836.451,496.764,834.96,495.289,833.132,495.289L833.132,495.289z"/>
				</g>
			</g>
		</g>
		<g id="Yongning">
			<g>
				<g>
					<circle fill="#FFFFFF" cx="63.768" cy="498.623" r="3.334"/>
				</g>
				<g>
					<circle fill="none" stroke="#0071BC" stroke-width="2.5" cx="63.768" cy="498.623" r="3.334"/>
				</g>
			</g>
			<g>
				<g>
					<path fill="#0071BC" d="M63.768,501.457c-1.55,0-2.821-1.261-2.833-2.812c-0.006-0.757,0.283-1.471,0.814-2.011
						c0.531-0.539,1.24-0.84,1.997-0.846c1.573,0,2.844,1.261,2.856,2.812c0.006,0.757-0.283,1.471-0.814,2.011
						c-0.531,0.539-1.24,0.84-1.997,0.846H63.768z"/>
				</g>
				<g>
					<path fill="#FFFFFF" d="M63.769,495.289v1c1.276,0,2.323,1.039,2.333,2.315c0.005,0.624-0.233,1.212-0.67,1.656
						c-0.438,0.444-1.022,0.691-1.664,0.696c-1.277,0-2.323-1.039-2.333-2.315c-0.005-0.624,0.233-1.212,0.67-1.656
						c0.438-0.444,1.022-0.691,1.645-0.696L63.769,495.289 M63.769,495.289c-0.009,0-0.018,0-0.027,0
						c-1.841,0.015-3.322,1.519-3.308,3.36c0.015,1.833,1.505,3.308,3.333,3.308c0.009,0,0.018,0,0.027,0
						c1.841-0.015,3.322-1.519,3.308-3.36C67.087,496.764,65.597,495.289,63.769,495.289L63.769,495.289z"/>
				</g>
			</g>
		</g>
		<g id="FJU">
			<g>
				<g>
					<circle fill="#FFFFFF" cx="52.518" cy="233.623" r="3.334"/>
				</g>
				<g>
					<circle fill="none" stroke="#F7931E" stroke-width="2.5" cx="52.518" cy="233.623" r="3.334"/>
				</g>
			</g>
			<g>
				<g>
					<path fill="#F7931E" d="M52.518,236.457c-1.55,0-2.821-1.261-2.833-2.812c-0.006-0.757,0.283-1.471,0.814-2.011
						c0.531-0.54,1.24-0.84,1.997-0.846c1.573,0,2.844,1.261,2.856,2.812c0.006,0.757-0.283,1.471-0.814,2.011
						c-0.531,0.54-1.24,0.84-1.997,0.846H52.518z"/>
				</g>
				<g>
					<path fill="#FFFFFF" d="M52.519,230.289v1c1.276,0,2.323,1.039,2.333,2.315c0.005,0.624-0.233,1.212-0.67,1.656
						c-0.438,0.444-1.022,0.692-1.664,0.697c-1.277,0-2.323-1.039-2.333-2.315c-0.005-0.624,0.233-1.212,0.67-1.656
						c0.438-0.444,1.022-0.692,1.645-0.697L52.519,230.289 M52.519,230.289c-0.009,0-0.018,0-0.027,0
						c-1.841,0.015-3.322,1.519-3.308,3.36c0.015,1.833,1.505,3.308,3.333,3.308c0.009,0,0.018,0,0.027,0
						c1.841-0.015,3.322-1.519,3.308-3.36C55.837,231.764,54.347,230.289,52.519,230.289L52.519,230.289z"/>
				</g>
			</g>
		</g>
		<g id="Luzhou">
			<g>
				<g>
					<circle fill="#FFFFFF" cx="52.518" cy="114.388" r="3.334"/>
				</g>
				<g>
					<circle fill="none" stroke="#F7931E" stroke-width="2.5" cx="52.518" cy="114.388" r="3.334"/>
				</g>
			</g>
			<g>
				<g>
					<path fill="#F7931E" d="M52.518,117.222c-1.55,0-2.821-1.261-2.833-2.812c-0.006-0.757,0.283-1.471,0.814-2.011
						c0.531-0.54,1.24-0.84,1.997-0.846c1.573,0,2.844,1.261,2.856,2.812c0.006,0.757-0.283,1.471-0.814,2.011
						c-0.531,0.54-1.24,0.84-1.997,0.846H52.518z"/>
				</g>
				<g>
					<path fill="#FFFFFF" d="M52.519,111.054v1c1.276,0,2.323,1.039,2.333,2.315c0.005,0.624-0.233,1.212-0.67,1.656
						c-0.438,0.444-1.022,0.692-1.664,0.697c-1.277,0-2.323-1.039-2.333-2.315c-0.005-0.624,0.233-1.212,0.67-1.656
						c0.438-0.444,1.022-0.692,1.645-0.697L52.519,111.054 M52.519,111.054c-0.009,0-0.018,0-0.027,0
						c-1.841,0.015-3.322,1.519-3.308,3.36c0.015,1.833,1.505,3.308,3.333,3.308c0.009,0,0.018,0,0.027,0
						c1.841-0.015,3.322-1.519,3.308-3.36C55.837,112.529,54.347,111.054,52.519,111.054L52.519,111.054z"/>
				</g>
			</g>
		</g>
		<g id="Nanshijiao">
			<g>
				<g>
					<circle fill="#FFFFFF" cx="317.518" cy="548.623" r="3.334"/>
				</g>
				<g>
					<circle fill="none" stroke="#F7931E" stroke-width="2.5" cx="317.518" cy="548.623" r="3.334"/>
				</g>
			</g>
			<g>
				<g>
					<path fill="#F7931E" d="M317.517,551.457c-1.55,0-2.821-1.261-2.833-2.812c-0.006-0.757,0.283-1.471,0.814-2.011
						c0.531-0.539,1.24-0.84,1.997-0.846c1.573,0,2.844,1.261,2.856,2.812c0.006,0.757-0.283,1.471-0.814,2.011
						c-0.531,0.539-1.24,0.84-1.997,0.846H317.517z"/>
				</g>
				<g>
					<path fill="#FFFFFF" d="M317.519,545.289v1c1.276,0,2.323,1.039,2.333,2.315c0.005,0.624-0.233,1.212-0.67,1.656
						c-0.438,0.444-1.022,0.691-1.664,0.696c-1.277,0-2.323-1.039-2.333-2.315c-0.005-0.624,0.233-1.212,0.67-1.656
						c0.438-0.444,1.022-0.691,1.645-0.696L317.519,545.289 M317.518,545.289c-0.009,0-0.018,0-0.027,0
						c-1.841,0.015-3.322,1.519-3.308,3.36c0.015,1.833,1.505,3.308,3.333,3.308c0.009,0,0.018,0,0.027,0
						c1.841-0.015,3.322-1.519,3.308-3.36C320.837,546.764,319.347,545.289,317.518,545.289L317.518,545.289z"/>
				</g>
			</g>
		</g>
		<g id="Xindian">
			<g>
				<g>
					<circle fill="#FFFFFF" cx="628.768" cy="548.623" r="3.334"/>
				</g>
				<g>
					<circle fill="none" stroke="#006837" stroke-width="2.5" cx="628.768" cy="548.623" r="3.334"/>
				</g>
			</g>
			<g>
				<g>
					<path fill="#006837" d="M628.767,551.457c-1.55,0-2.82-1.261-2.833-2.812c-0.006-0.757,0.283-1.471,0.814-2.011
						c0.531-0.539,1.24-0.84,1.997-0.846c1.573,0,2.844,1.261,2.856,2.812c0.006,0.757-0.283,1.471-0.814,2.011
						c-0.531,0.539-1.24,0.84-1.997,0.846H628.767z"/>
				</g>
				<g>
					<path fill="#FFFFFF" d="M628.769,545.289v1c1.276,0,2.323,1.039,2.333,2.315c0.005,0.624-0.233,1.212-0.671,1.656
						s-1.021,0.691-1.664,0.696c-1.276,0-2.323-1.039-2.333-2.315c-0.005-0.624,0.233-1.212,0.671-1.656s1.021-0.691,1.645-0.696
						L628.769,545.289 M628.769,545.289c-0.009,0-0.019,0-0.027,0c-1.841,0.015-3.322,1.519-3.308,3.36
						c0.015,1.833,1.505,3.308,3.333,3.308c0.009,0,0.019,0,0.027,0c1.841-0.015,3.322-1.519,3.308-3.36
						C632.087,546.764,630.597,545.289,628.769,545.289L628.769,545.289z"/>
				</g>
			</g>
		</g>
		<g id="Xiaobitan_1_">
			<g>
				<g>
					<circle fill="#FFFFFF" cx="486.487" cy="559.294" r="3.334"/>
				</g>
				<g>
					<circle fill="none" stroke="#C1D928" stroke-width="2.5" cx="486.487" cy="559.294" r="3.334"/>
				</g>
			</g>
			<g>
				<g>
					<path fill="#C1D928" d="M486.486,562.128c-1.55,0-2.82-1.261-2.833-2.812c-0.006-0.757,0.283-1.471,0.814-2.011
						c0.531-0.539,1.24-0.84,1.997-0.846c1.573,0,2.844,1.261,2.856,2.812c0.006,0.757-0.283,1.471-0.814,2.011
						c-0.531,0.539-1.24,0.84-1.997,0.846H486.486z"/>
				</g>
				<g>
					<path fill="#FFFFFF" d="M486.488,555.96v1c1.276,0,2.323,1.039,2.333,2.315c0.005,0.624-0.233,1.212-0.671,1.656
						s-1.021,0.691-1.664,0.696c-1.276,0-2.323-1.039-2.333-2.315c-0.005-0.624,0.233-1.212,0.671-1.656s1.021-0.691,1.645-0.696
						L486.488,555.96 M486.488,555.96c-0.009,0-0.019,0-0.027,0c-1.841,0.015-3.322,1.519-3.308,3.36
						c0.015,1.833,1.505,3.308,3.333,3.308c0.009,0,0.019,0,0.027,0c1.841-0.015,3.322-1.519,3.308-3.36
						C489.806,557.435,488.316,555.96,486.488,555.96L486.488,555.96z"/>
				</g>
			</g>
		</g>
	</g>
	<g id="regular">
		<line fill="none" stroke="#ED1C24" stroke-width="4" x1="336.971" y1="108.322" x2="345.971" y2="108.322"/>
	</g>
</g>
<g id="Interchanges">
	<g id="Nangang_EC">
		<path fill="#FFFFFF" d="M831.817,217.873c2.73,1.133,4.652,3.823,4.652,6.964c0,4.163-3.373,7.536-7.535,7.536
			s-7.535-3.373-7.535-7.536c-0.002-3.097,1.867-5.758,4.539-6.917l-0.031-4.43c-2.67-1.158-4.539-3.82-4.539-6.916
			c0-4.162,3.373-7.536,7.535-7.536s7.537,3.374,7.537,7.536c0,3.14-1.922,5.83-4.652,6.963L831.817,217.873z"/>
		<path fill="none" stroke="#000000" d="M831.817,217.873c2.73,1.133,4.652,3.823,4.652,6.964c0,4.163-3.373,7.536-7.535,7.536
			s-7.535-3.373-7.535-7.536c-0.002-3.097,1.867-5.758,4.539-6.917l-0.031-4.43c-2.67-1.158-4.539-3.82-4.539-6.916
			c0-4.162,3.373-7.536,7.535-7.536s7.537,3.374,7.537,7.536c0,3.14-1.922,5.83-4.652,6.963L831.817,217.873z"/>
		<path fill="#A86935" d="M833.1,206.623c0,2.394-1.939,4.334-4.334,4.334c-2.393,0-4.332-1.94-4.332-4.334s1.939-4.333,4.332-4.333
			C831.161,202.29,833.1,204.229,833.1,206.623"/>
		<path fill="#0071BC" d="M833.131,224.874c0,2.394-1.939,4.333-4.334,4.333c-2.393,0-4.334-1.939-4.334-4.333
			s1.941-4.333,4.334-4.333S833.131,222.479,833.131,224.874"/>
	</g>
	<g id="Qizhang">
		<path fill="#FFFFFF" d="M536.852,543.17c2.807,0,5.084,2.275,5.084,5.083v13.81c0,2.807-2.277,5.082-5.084,5.082
			s-5.084-2.275-5.084-5.082v-13.81C531.768,545.445,534.045,543.17,536.852,543.17"/>
		<path fill="none" stroke="#000000" d="M536.852,543.17c2.807,0,5.084,2.275,5.084,5.083v13.81c0,2.807-2.277,5.082-5.084,5.082
			s-5.084-2.275-5.084-5.082v-13.81C531.768,545.445,534.045,543.17,536.852,543.17z"/>
		<path fill="#006837" d="M534.676,549.812c1.471,1.562,2.395,3.366,2.432,5.534c0.02,1.127,1.77,1.129,1.75,0
			c-0.045-2.634-1.158-4.872-2.943-6.771C535.139,547.751,533.905,548.991,534.676,549.812"/>
		<path fill="#C1D928" d="M537.108,556.294c-0.053,1.97-0.848,4.043-2.434,5.297c-0.883,0.7,0.363,1.931,1.238,1.238
			c1.932-1.529,2.881-4.148,2.943-6.535C538.887,555.165,537.137,555.168,537.108,556.294"/>
	</g>
	<g id="Beitou">
		<path fill="#FFFFFF" d="M172.252,10.95c-1.133,2.731-3.823,4.652-6.964,4.652c-4.162,0-7.536-3.374-7.536-7.536
			s3.374-7.535,7.536-7.535c3.097-0.001,5.758,1.869,6.917,4.539l4.429-0.031c1.16-2.67,3.821-4.539,6.917-4.539
			c4.162,0,7.536,3.374,7.536,7.536s-3.374,7.536-7.536,7.536c-3.14,0-5.831-1.921-6.963-4.652L172.252,10.95z"/>
		<path fill="none" stroke="#000000" d="M172.252,10.95c-1.133,2.731-3.823,4.652-6.964,4.652c-4.162,0-7.536-3.374-7.536-7.536
			s3.374-7.535,7.536-7.535c3.097-0.001,5.758,1.869,6.917,4.539l4.429-0.031c1.16-2.67,3.821-4.539,6.917-4.539
			c4.162,0,7.536,3.374,7.536,7.536s-3.374,7.536-7.536,7.536c-3.14,0-5.831-1.921-6.963-4.652L172.252,10.95z"/>
		<path fill="#C1272D" d="M183.502,12.232c-2.394,0-4.333-1.94-4.333-4.334c0-2.393,1.939-4.333,4.333-4.333s4.333,1.94,4.333,4.333
			C187.835,10.292,185.896,12.232,183.502,12.232"/>
		<path fill="#FFBDC5" d="M165.251,12.263c-2.394,0-4.333-1.94-4.333-4.334c0-2.393,1.939-4.333,4.333-4.333s4.333,1.94,4.333,4.333
			C169.584,10.323,167.645,12.263,165.251,12.263"/>
	</g>
	<g id="Guting">
		<path fill="#FFFFFF" d="M439.184,405.48c-2.807,0-5.084-2.275-5.084-5.084v-13.809c0-2.807,2.277-5.083,5.084-5.083
			s5.084,2.276,5.084,5.083v13.809C444.268,403.205,441.991,405.48,439.184,405.48"/>
		<path fill="none" stroke="#000000" d="M439.184,405.48c-2.807,0-5.084-2.275-5.084-5.084v-13.809c0-2.807,2.277-5.083,5.084-5.083
			s5.084,2.276,5.084,5.083v13.809C444.268,403.205,441.991,405.48,439.184,405.48z"/>
		<path fill="#F7931E" d="M439.874,400.434v-6.854c0-1.13-1.75-1.13-1.75,0v6.854C438.124,401.562,439.874,401.562,439.874,400.434"
			/>
		<path fill="#006837" d="M439.874,393.159v-5.812c0-1.129-1.75-1.129-1.75,0v5.812
			C438.124,394.288,439.874,394.288,439.874,393.159"/>
	</g>
	<g id="Da_x27_an">
		<path fill="#FFFFFF" d="M583.575,340.723c2.729,1.133,4.652,3.822,4.652,6.963c0,4.164-3.373,7.537-7.535,7.537
			s-7.537-3.373-7.537-7.537c0-3.096,1.869-5.758,4.539-6.916l-0.029-4.43c-2.67-1.158-4.539-3.82-4.539-6.916
			c0-4.162,3.373-7.537,7.535-7.537s7.537,3.375,7.537,7.537c0,3.139-1.922,5.83-4.652,6.963L583.575,340.723z"/>
		<path fill="none" stroke="#000000" d="M583.575,340.723c2.729,1.133,4.652,3.822,4.652,6.963c0,4.164-3.373,7.537-7.535,7.537
			s-7.537-3.373-7.537-7.537c0-3.096,1.869-5.758,4.539-6.916l-0.029-4.43c-2.67-1.158-4.539-3.82-4.539-6.916
			c0-4.162,3.373-7.537,7.535-7.537s7.537,3.375,7.537,7.537c0,3.139-1.922,5.83-4.652,6.963L583.575,340.723z"/>
		<path fill="#A86935" d="M584.858,329.473c0,2.396-1.941,4.334-4.334,4.334s-4.334-1.938-4.334-4.334
			c0-2.395,1.941-4.334,4.334-4.334S584.858,327.078,584.858,329.473"/>
		<path fill="#C1272D" d="M584.887,347.723c0,2.396-1.938,4.334-4.334,4.334c-2.393,0-4.332-1.938-4.332-4.334
			c0-2.393,1.939-4.332,4.332-4.332C582.948,343.391,584.887,345.33,584.887,347.723"/>
	</g>
	<g id="Taibei_Main_Sta.">
		<path fill="#FFFFFF" d="M342.753,288.553c-2.729-1.133-4.652-3.822-4.652-6.963c0-4.163,3.375-7.537,7.537-7.537
			s7.535,3.374,7.535,7.537c0,3.096-1.869,5.758-4.539,6.916l0.03,4.43c2.67,1.16,4.54,3.82,4.539,6.916
			c0,4.162-3.374,7.537-7.536,7.537s-7.535-3.375-7.535-7.537c0-3.139,1.921-5.83,4.652-6.963L342.753,288.553z"/>
		<path fill="none" stroke="#000000" d="M342.753,288.553c-2.729-1.133-4.652-3.822-4.652-6.963c0-4.163,3.375-7.537,7.537-7.537
			s7.535,3.374,7.535,7.537c0,3.096-1.869,5.758-4.539,6.916l0.03,4.43c2.67,1.16,4.54,3.82,4.539,6.916
			c0,4.162-3.374,7.537-7.536,7.537s-7.535-3.375-7.535-7.537c0-3.139,1.921-5.83,4.652-6.963L342.753,288.553z"/>
		<path fill="#C1272D" d="M341.471,299.803c0-2.395,1.94-4.332,4.334-4.332s4.333,1.938,4.333,4.332
			c0,2.395-1.939,4.334-4.333,4.334S341.471,302.197,341.471,299.803"/>
		<path fill="#0071BC" d="M341.441,281.553c0-2.394,1.939-4.333,4.334-4.333c2.393,0,4.333,1.939,4.333,4.333
			s-1.94,4.334-4.333,4.334C343.381,285.887,341.441,283.945,341.441,281.553"/>
	</g>
	<g id="CKS_M._Hall">
		<path fill="#FFFFFF" d="M380.289,359.779c-2.225-1.709-2.646-4.901-0.933-7.127l8.417-10.947c1.711-2.225,4.903-2.643,7.129-0.932
			c2.225,1.711,2.643,4.903,0.932,7.129l-8.416,10.947C385.706,361.075,382.514,361.491,380.289,359.779"/>
		<path fill="none" stroke="#000000" d="M380.289,359.779c-2.225-1.709-2.646-4.901-0.933-7.127l8.417-10.947
			c1.711-2.225,4.903-2.643,7.129-0.932c2.225,1.711,2.643,4.903,0.932,7.129l-8.416,10.947
			C385.706,361.075,382.514,361.491,380.289,359.779z"/>
		<path fill="#006837" d="M383.975,356.107c1.394-1.812,2.786-3.623,4.181-5.436c0.687-0.895-0.834-1.765-1.513-0.883
			c-1.393,1.812-2.785,3.623-4.18,5.436C381.775,356.119,383.296,356.989,383.975,356.107"/>
		<path fill="#C1272D" d="M388.408,350.342c1.18-1.535,2.359-3.07,3.541-4.605c0.688-0.896-0.834-1.766-1.513-0.883
			c-1.179,1.535-2.359,3.069-3.54,4.605C386.209,350.354,387.73,351.225,388.408,350.342"/>
	</g>
	<g id="Minquan_Xi_Lu">
		<path fill="#FFFFFF" d="M348.551,153.304c2.731,1.133,4.652,3.823,4.652,6.964c0,4.162-3.373,7.536-7.535,7.536
			s-7.536-3.374-7.536-7.536c-0.001-3.097,1.869-5.758,4.539-6.917l-0.03-4.429c-2.67-1.16-4.539-3.821-4.539-6.917
			c0-4.162,3.373-7.536,7.535-7.536s7.537,3.374,7.537,7.536c0,3.14-1.922,5.831-4.652,6.963L348.551,153.304z"/>
		<path fill="none" stroke="#000000" d="M348.551,153.304c2.731,1.133,4.652,3.823,4.652,6.964c0,4.162-3.373,7.536-7.535,7.536
			s-7.536-3.374-7.536-7.536c-0.001-3.097,1.869-5.758,4.539-6.917l-0.03-4.429c-2.67-1.16-4.539-3.821-4.539-6.917
			c0-4.162,3.373-7.536,7.535-7.536s7.537,3.374,7.537,7.536c0,3.14-1.922,5.831-4.652,6.963L348.551,153.304z"/>
		<path fill="#C1272D" d="M349.834,142.054c0,2.394-1.94,4.333-4.334,4.333c-2.393,0-4.333-1.938-4.333-4.333
			c0-2.394,1.94-4.333,4.333-4.333C347.894,137.721,349.834,139.66,349.834,142.054"/>
		<path fill="#F7931E" d="M349.864,160.305c0,2.394-1.94,4.333-4.334,4.333s-4.333-1.939-4.333-4.333s1.939-4.333,4.333-4.333
			S349.864,157.911,349.864,160.305"/>
	</g>
	<g id="Zhongxiao_Xinsheng">
		<path fill="#FFFFFF" d="M487.801,268.418c-2.73-1.133-4.65-3.823-4.65-6.964c0-4.163,3.373-7.536,7.533-7.536
			c4.162,0,7.535,3.373,7.535,7.536c0.002,3.097-1.869,5.758-4.539,6.917l0.031,4.429c2.67,1.16,4.539,3.821,4.539,6.917
			c0,4.162-3.373,7.536-7.535,7.536s-7.537-3.374-7.537-7.536c0-3.14,1.922-5.831,4.652-6.963L487.801,268.418z"/>
		<path fill="none" stroke="#000000" d="M487.801,268.418c-2.73-1.133-4.65-3.823-4.65-6.964c0-4.163,3.373-7.536,7.533-7.536
			c4.162,0,7.535,3.373,7.535,7.536c0.002,3.097-1.869,5.758-4.539,6.917l0.031,4.429c2.67,1.16,4.539,3.821,4.539,6.917
			c0,4.162-3.373,7.536-7.535,7.536s-7.537-3.374-7.537-7.536c0-3.14,1.922-5.831,4.652-6.963L487.801,268.418z"/>
		<path fill="#0071BC" d="M486.518,279.668c0-2.395,1.939-4.333,4.336-4.333c2.393,0,4.33,1.938,4.33,4.333
			c0,2.394-1.938,4.333-4.33,4.333C488.458,284.001,486.518,282.062,486.518,279.668"/>
		<path fill="#F7931E" d="M486.487,261.417c0-2.394,1.941-4.333,4.334-4.333s4.334,1.939,4.334,4.333s-1.941,4.334-4.334,4.334
			S486.487,263.811,486.487,261.417"/>
	</g>
	<g id="Zhongxiao_Fuxing">
		<path fill="#FFFFFF" d="M583.577,272.724c2.73,1.133,4.65,3.823,4.65,6.963c0,4.165-3.371,7.538-7.533,7.538
			s-7.537-3.373-7.537-7.538c0-3.096,1.869-5.757,4.539-6.916l-0.029-4.43c-2.67-1.158-4.539-3.82-4.539-6.916
			c0-4.162,3.373-7.536,7.535-7.536s7.537,3.374,7.537,7.536c0,3.14-1.922,5.83-4.652,6.963L583.577,272.724z"/>
		<path fill="none" stroke="#000000" d="M583.577,272.724c2.73,1.133,4.65,3.823,4.65,6.963c0,4.165-3.371,7.538-7.533,7.538
			s-7.537-3.373-7.537-7.538c0-3.096,1.869-5.757,4.539-6.916l-0.029-4.43c-2.67-1.158-4.539-3.82-4.539-6.916
			c0-4.162,3.373-7.536,7.535-7.536s7.537,3.374,7.537,7.536c0,3.14-1.922,5.83-4.652,6.963L583.577,272.724z"/>
		<path fill="#A86935" d="M584.86,261.474c0,2.394-1.941,4.334-4.334,4.334c-2.395,0-4.334-1.94-4.334-4.334
			s1.939-4.333,4.334-4.333C582.918,257.141,584.86,259.08,584.86,261.474"/>
		<path fill="#0071BC" d="M584.889,279.725c0,2.395-1.939,4.334-4.334,4.334c-2.393,0-4.332-1.939-4.332-4.334
			c0-2.393,1.939-4.333,4.332-4.333C582.95,275.392,584.889,277.332,584.889,279.725"/>
	</g>
	<g id="Dongmen">
		<path fill="#FFFFFF" d="M475.448,361.861c-2.807,0-5.084-2.275-5.084-5.084v-13.807c0-2.808,2.277-5.084,5.084-5.084
			s5.084,2.276,5.084,5.084v13.809C480.532,359.586,478.254,361.861,475.448,361.861"/>
		<path fill="none" stroke="#000000" d="M475.448,361.861c-2.807,0-5.084-2.275-5.084-5.084v-13.807
			c0-2.808,2.277-5.084,5.084-5.084s5.084,2.276,5.084,5.084v13.809C480.532,359.586,478.254,361.861,475.448,361.861z"/>
		<path fill="#F7931E" d="M476.139,356.812v-6.854c0-1.129-1.75-1.129-1.75,0v6.854
			C474.389,357.941,476.139,357.941,476.139,356.812"/>
		<path fill="#C1272D" d="M476.139,349.54v-5.812c0-1.129-1.75-1.129-1.75,0v5.812C474.389,350.669,476.139,350.669,476.139,349.54"
			/>
	</g>
	<g id="Ximen">
		<path fill="#FFFFFF" d="M276.358,296.782c-2.807,0-5.084-2.275-5.084-5.083V277.89c0-2.806,2.277-5.083,5.084-5.083
			s5.084,2.277,5.084,5.083v13.809C281.442,294.507,279.165,296.782,276.358,296.782"/>
		<path fill="none" stroke="#000000" d="M276.358,296.782c-2.807,0-5.084-2.275-5.084-5.083V277.89c0-2.806,2.277-5.083,5.084-5.083
			s5.084,2.277,5.084,5.083v13.809C281.442,294.507,279.165,296.782,276.358,296.782z"/>
		<path fill="#006837" d="M277.047,291.734v-6.855c0-1.128-1.75-1.128-1.75,0v6.855
			C275.297,292.861,277.047,292.861,277.047,291.734"/>
		<path fill="#3A9EB5" d="M277.047,284.461v-5.811c0-1.127-1.75-1.127-1.75,0v5.811
			C275.297,285.589,277.047,285.589,277.047,284.461"/>
	</g>
	<g id="Daqiaotou">
		<path fill="#FFFFFF" d="M277.505,160.374c0,2.807-2.275,5.083-5.082,5.083h-13.809c-2.806,0-5.084-2.276-5.084-5.083
			c0-2.808,2.278-5.084,5.084-5.084h13.809C275.23,155.29,277.505,157.565,277.505,160.374"/>
		<path fill="none" stroke="#000000" d="M277.505,160.374c0,2.807-2.275,5.083-5.082,5.083h-13.809
			c-2.806,0-5.084-2.276-5.084-5.083c0-2.808,2.278-5.084,5.084-5.084h13.809C275.23,155.29,277.505,157.565,277.505,160.374z"/>
		<path fill="#F7931E" d="M258.624,161.286c4.597-0.025,9.192-0.049,13.789-0.074c1.128-0.006,1.129-1.757,0-1.75
			c-4.597,0.025-9.192,0.049-13.789,0.074C257.495,159.541,257.494,161.291,258.624,161.286"/>
	</g>
</g>
</svg>
