<?xml version="1.0" encoding="utf-8"?>
<!-- Generator: Adobe Illustrator 16.0.0, SVG Export Plug-In . SVG Version: 6.00 Build 0)  -->
<!DOCTYPE svg PUBLIC "-//W3C//DTD SVG 1.1//EN" "http://www.w3.org/Graphics/SVG/1.1/DTD/svg11.dtd">
<svg version="1.1" xmlns="http://www.w3.org/2000/svg" xmlns:xlink="http://www.w3.org/1999/xlink" x="0px" y="0px" width="1000px"
	 height="640px" viewBox="-44.015 -46.678 1000 640" enable-background="new -44.015 -46.678 1000 640" xml:space="preserve">
<g id="Routes">
	<path id="Xinzhuang" fill="none" stroke="#F7931E" stroke-width="5.5" stroke-miterlimit="10" d="M98.518,233.623h122
		c33,0,46-34,46-34l8-19c10-24,37-20,37-20"/>
	<path id="Zhonghe-Xinlu" fill="none" stroke="#F7931E" stroke-width="5.5" stroke-miterlimit="10" d="M363.518,548.623v-93
		c0,0-4-30.669,19-30.669h59.668c0,0,8.832-0.833,14.332-6.333l8.334-11.334c0,0,5.832-7.788,9.041-8.76
		c4.469-1.354,8.959-0.573,8.959-0.573s5,0.333,8.666-1c3.668-1.333,10.98-20.254,10.98-20.254s7.354-21.413,15.02-21.577h10.5
		c0,0,8.5-0.5,8.5-8.5v-169c0-20-19-17-19-17h-206c-24,0-46-23-46-23c-26-25-45-23-45-23l-119-0.235"/>
	
		<line id="Xiaobitan" fill="none" stroke="#C1D928" stroke-width="5.5" stroke-miterlimit="10" x1="584.856" y1="559.294" x2="532.487" y2="559.294"/>
	<path id="Xindian_1_" fill="none" stroke="#006837" stroke-width="5.5" stroke-miterlimit="10" d="M674.768,548.623H570.184
		c0,0-15.332-0.667-15.332-17.332v-78.337v-46.666c0,0,1-15.334-17.668-15.334H489.85c0,0-12.883,0.002-12.883-11.665v-8.333
		c0,0,0.883-14.827-23.449-14.827l-3.666-0.004l-3.959-0.008c0,0-17.854,0.816-29.604-10.934l-8.75-8.75
		c-6.166-6.166-18.521-5.812-18.521-5.812h-66.5c-20,0-17-19-17-19v-13c0-9.634,7.266-9.901,7.266-9.901h8.513"/>
	<path id="Bannan" fill="none" stroke="#0071BC" stroke-width="5.5" stroke-miterlimit="10" d="M874.768,216.623v46
		c0,19-16,18-16,18h-566.25c-36,0-45,12-45,12s-14,15-32,16s-49,0-49,0c-26,0.443-24,30-24,30v131c1.25,29-16,29-16,29h-16.75"/>
	<path id="Xinbeitou" fill="none" stroke="#FFBDC5" stroke-width="5.5" stroke-miterlimit="10" d="M213.251,8.051L202.503-2.696
		c-4.769-4.231-11.519-3.532-11.519-3.532h-24.5"/>
	<path id="Danxin" fill="none" stroke="#ED1C24" stroke-width="5.5" stroke-miterlimit="10" d="M817.768,347.568l-364.375-0.012
		c0,0-20.854,0.815-32.604-10.935l-18.75-18.75c-10.646-10.646-10.25-25.25-10.25-25.25l-0.002-93l-0.233-165.036
		c0,0,0.964-27.537-27.536-27.537l-120.5,0.073c0,0-9.455-0.955-14.5,4.089l-16.5,15.411c0,0-4.844,4-14,4h-121
		c0,0-9.5,0.5-16.5,7.5l-13.25,13.25"/>
	<path id="Wenhu" fill="none" stroke="#A86935" stroke-width="5.5" stroke-miterlimit="10" d="M874.768,206.623v-138
		c0-24.889-24-24-24-24l-196-0.075c-29,0-28.088,23.075-28.088,23.075l0.088,40.765c0,13.235,10,12.235,10,12.235h17
		c17,0,11,15,11,15c-7,12-38.088,15-38.088,32v227c0,31,28.088,27,28.088,27h68c22,0,22,24,22,24v26c0,23,25,27,25,27h109"/>
</g>
<g id="Stations">
	<g id="termini">
		<g id="Xiangshan_1_">
			<g>
				<g>
					<circle fill="#FFFFFF" cx="817.768" cy="347.568" r="3.334"/>
				</g>
				<g>
					<circle fill="none" stroke="#ED1C24" stroke-width="2.5" cx="817.768" cy="347.568" r="3.334"/>
				</g>
			</g>
			<g>
				<g>
					<circle fill="#ED1C24" cx="817.768" cy="347.568" r="2.959"/>
				</g>
				<g>
					<path fill="#FFFFFF" d="M817.768,344.984c1.425,0,2.584,1.159,2.584,2.584s-1.159,2.584-2.584,2.584s-2.584-1.159-2.584-2.584
						S816.343,344.984,817.768,344.984 M817.768,344.234c-1.841,0-3.334,1.492-3.334,3.334s1.493,3.334,3.334,3.334
						s3.334-1.492,3.334-3.334S819.609,344.234,817.768,344.234L817.768,344.234z"/>
				</g>
			</g>
		</g>
		<g id="Danshui_1_">
			<g>
				<g>
					<circle fill="#FFFFFF" cx="47.768" cy="52.322" r="3.334"/>
				</g>
				<g>
					<circle fill="none" stroke="#ED1C24" stroke-width="2.5" cx="47.768" cy="52.322" r="3.334"/>
				</g>
			</g>
			<g>
				<g>
					<path fill="#ED1C24" d="M47.768,55.281c-1.631,0-2.959-1.328-2.959-2.959s1.328-2.959,2.959-2.959s2.959,1.328,2.959,2.959
						S49.399,55.281,47.768,55.281z"/>
				</g>
				<g>
					<path fill="#FFFFFF" d="M47.768,49.738c1.425,0,2.584,1.159,2.584,2.584s-1.159,2.584-2.584,2.584s-2.584-1.159-2.584-2.584
						S46.343,49.738,47.768,49.738 M47.768,48.988c-1.841,0-3.334,1.492-3.334,3.334s1.493,3.334,3.334,3.334
						s3.334-1.492,3.334-3.334S49.609,48.988,47.768,48.988L47.768,48.988z"/>
				</g>
			</g>
		</g>
		<g id="Xinbeitou_2_">
			<g>
				<g>
					<circle fill="#FFFFFF" cx="166.485" cy="-5.678" r="3.334"/>
				</g>
				<g>
					<circle fill="none" stroke="#FFBDC5" stroke-width="2.5" cx="166.485" cy="-5.678" r="3.334"/>
				</g>
			</g>
			<g>
				<g>
					<circle fill="#FFBDC5" cx="166.485" cy="-5.678" r="2.834"/>
				</g>
				<g>
					<path fill="#FFFFFF" d="M166.485-8.012c1.287,0,2.334,1.047,2.334,2.334s-1.047,2.334-2.334,2.334s-2.334-1.047-2.334-2.334
						S165.198-8.012,166.485-8.012 M166.485-9.012c-1.841,0-3.334,1.492-3.334,3.334s1.493,3.334,3.334,3.334
						s3.334-1.492,3.334-3.334S168.326-9.012,166.485-9.012L166.485-9.012z"/>
				</g>
			</g>
		</g>
		<g id="Taibei_Zoo_1_">
			<g>
				<g>
					<circle fill="#FFFFFF" cx="879.131" cy="498.623" r="3.334"/>
				</g>
				<g>
					<circle fill="none" stroke="#A86935" stroke-width="2.5" cx="879.131" cy="498.623" r="3.334"/>
				</g>
			</g>
			<g>
				<g>
					<path fill="#A86935" d="M879.13,501.457c-1.55,0-2.82-1.261-2.833-2.812c-0.006-0.757,0.283-1.471,0.814-2.011
						c0.531-0.539,1.24-0.84,1.997-0.846c1.573,0,2.844,1.261,2.856,2.812c0.006,0.757-0.283,1.471-0.814,2.011
						c-0.531,0.539-1.24,0.84-1.997,0.846H879.13z"/>
				</g>
				<g>
					<path fill="#FFFFFF" d="M879.132,495.289v1c1.276,0,2.323,1.039,2.333,2.315c0.005,0.624-0.233,1.212-0.671,1.656
						s-1.021,0.691-1.664,0.696c-1.276,0-2.323-1.039-2.333-2.315c-0.005-0.624,0.233-1.212,0.671-1.656s1.021-0.691,1.645-0.696
						L879.132,495.289 M879.132,495.289c-0.009,0-0.019,0-0.027,0c-1.841,0.015-3.322,1.519-3.308,3.36
						c0.015,1.833,1.505,3.308,3.333,3.308c0.009,0,0.019,0,0.027,0c1.841-0.015,3.322-1.519,3.308-3.36
						C882.451,496.764,880.96,495.289,879.132,495.289L879.132,495.289z"/>
				</g>
			</g>
		</g>
		<g id="Yongning_1_">
			<g>
				<g>
					<circle fill="#FFFFFF" cx="109.768" cy="498.623" r="3.334"/>
				</g>
				<g>
					<circle fill="none" stroke="#0071BC" stroke-width="2.5" cx="109.768" cy="498.623" r="3.334"/>
				</g>
			</g>
			<g>
				<g>
					<path fill="#0071BC" d="M109.768,501.457c-1.55,0-2.821-1.261-2.833-2.812c-0.006-0.757,0.283-1.471,0.814-2.011
						c0.531-0.539,1.24-0.84,1.997-0.846c1.573,0,2.844,1.261,2.856,2.812c0.006,0.757-0.283,1.471-0.814,2.011
						c-0.531,0.539-1.24,0.84-1.997,0.846H109.768z"/>
				</g>
				<g>
					<path fill="#FFFFFF" d="M109.769,495.289v1c1.276,0,2.323,1.039,2.333,2.315c0.005,0.624-0.233,1.212-0.67,1.656
						c-0.438,0.444-1.022,0.691-1.664,0.696c-1.277,0-2.323-1.039-2.333-2.315c-0.005-0.624,0.233-1.212,0.67-1.656
						c0.438-0.444,1.022-0.691,1.645-0.696L109.769,495.289 M109.769,495.289c-0.009,0-0.018,0-0.027,0
						c-1.841,0.015-3.322,1.519-3.308,3.36c0.015,1.833,1.505,3.308,3.333,3.308c0.009,0,0.018,0,0.027,0
						c1.841-0.015,3.322-1.519,3.308-3.36C113.087,496.764,111.597,495.289,109.769,495.289L109.769,495.289z"/>
				</g>
			</g>
		</g>
		<g id="FJU_1_">
			<g>
				<g>
					<circle fill="#FFFFFF" cx="98.518" cy="233.623" r="3.334"/>
				</g>
				<g>
					<circle fill="none" stroke="#F7931E" stroke-width="2.5" cx="98.518" cy="233.623" r="3.334"/>
				</g>
			</g>
			<g>
				<g>
					<path fill="#F7931E" d="M98.518,236.457c-1.55,0-2.821-1.261-2.833-2.812c-0.006-0.757,0.283-1.471,0.814-2.011
						c0.531-0.54,1.24-0.84,1.997-0.846c1.573,0,2.844,1.261,2.856,2.812c0.006,0.757-0.283,1.471-0.814,2.011
						c-0.531,0.54-1.24,0.84-1.997,0.846H98.518z"/>
				</g>
				<g>
					<path fill="#FFFFFF" d="M98.519,230.289v1c1.276,0,2.323,1.039,2.333,2.315c0.005,0.624-0.233,1.212-0.67,1.656
						c-0.438,0.444-1.022,0.692-1.664,0.697c-1.277,0-2.323-1.039-2.333-2.315c-0.005-0.624,0.233-1.212,0.67-1.656
						c0.438-0.444,1.022-0.692,1.645-0.697L98.519,230.289 M98.519,230.289c-0.009,0-0.018,0-0.027,0
						c-1.841,0.015-3.322,1.519-3.308,3.36c0.015,1.833,1.505,3.308,3.333,3.308c0.009,0,0.018,0,0.027,0
						c1.841-0.015,3.322-1.519,3.308-3.36C101.837,231.764,100.347,230.289,98.519,230.289L98.519,230.289z"/>
				</g>
			</g>
		</g>
		<g id="Luzhou_1_">
			<g>
				<g>
					<circle fill="#FFFFFF" cx="98.518" cy="114.388" r="3.334"/>
				</g>
				<g>
					<circle fill="none" stroke="#F7931E" stroke-width="2.5" cx="98.518" cy="114.388" r="3.334"/>
				</g>
			</g>
			<g>
				<g>
					<path fill="#F7931E" d="M98.518,117.222c-1.55,0-2.821-1.261-2.833-2.812c-0.006-0.757,0.283-1.471,0.814-2.011
						c0.531-0.54,1.24-0.84,1.997-0.846c1.573,0,2.844,1.261,2.856,2.812c0.006,0.757-0.283,1.471-0.814,2.011
						c-0.531,0.54-1.24,0.84-1.997,0.846H98.518z"/>
				</g>
				<g>
					<path fill="#FFFFFF" d="M98.519,111.054v1c1.276,0,2.323,1.039,2.333,2.315c0.005,0.624-0.233,1.211-0.67,1.656
						c-0.438,0.444-1.022,0.692-1.664,0.697c-1.277,0-2.323-1.039-2.333-2.315c-0.005-0.624,0.233-1.211,0.67-1.656
						c0.438-0.444,1.022-0.692,1.645-0.697L98.519,111.054 M98.519,111.054c-0.009,0-0.018,0-0.027,0
						c-1.841,0.015-3.322,1.519-3.308,3.36c0.015,1.833,1.505,3.308,3.333,3.308c0.009,0,0.018,0,0.027,0
						c1.841-0.015,3.322-1.519,3.308-3.36C101.837,112.529,100.347,111.054,98.519,111.054L98.519,111.054z"/>
				</g>
			</g>
		</g>
		<g id="Nanshijiao_1_">
			<g>
				<g>
					<circle fill="#FFFFFF" cx="363.518" cy="548.623" r="3.334"/>
				</g>
				<g>
					<circle fill="none" stroke="#F7931E" stroke-width="2.5" cx="363.518" cy="548.623" r="3.334"/>
				</g>
			</g>
			<g>
				<g>
					<path fill="#F7931E" d="M363.517,551.457c-1.55,0-2.821-1.261-2.833-2.812c-0.006-0.757,0.283-1.471,0.814-2.011
						c0.531-0.539,1.24-0.84,1.997-0.846c1.573,0,2.844,1.261,2.856,2.812c0.006,0.757-0.283,1.471-0.814,2.011
						c-0.531,0.539-1.24,0.84-1.997,0.846H363.517z"/>
				</g>
				<g>
					<path fill="#FFFFFF" d="M363.519,545.289v1c1.276,0,2.323,1.039,2.333,2.315c0.005,0.624-0.233,1.212-0.67,1.656
						c-0.438,0.444-1.022,0.691-1.664,0.696c-1.277,0-2.323-1.039-2.333-2.315c-0.005-0.624,0.233-1.212,0.67-1.656
						c0.438-0.444,1.022-0.691,1.645-0.696L363.519,545.289 M363.518,545.289c-0.009,0-0.018,0-0.027,0
						c-1.841,0.015-3.322,1.519-3.308,3.36c0.015,1.833,1.505,3.308,3.333,3.308c0.009,0,0.018,0,0.027,0
						c1.841-0.015,3.322-1.519,3.308-3.36C366.837,546.764,365.347,545.289,363.518,545.289L363.518,545.289z"/>
				</g>
			</g>
		</g>
		<g id="Xindian_2_">
			<g>
				<g>
					<circle fill="#FFFFFF" cx="674.768" cy="548.623" r="3.334"/>
				</g>
				<g>
					<circle fill="none" stroke="#006837" stroke-width="2.5" cx="674.768" cy="548.623" r="3.334"/>
				</g>
			</g>
			<g>
				<g>
					<path fill="#006837" d="M674.767,551.457c-1.55,0-2.82-1.261-2.833-2.812c-0.006-0.757,0.283-1.471,0.814-2.011
						c0.531-0.539,1.24-0.84,1.997-0.846c1.573,0,2.844,1.261,2.856,2.812c0.006,0.757-0.283,1.471-0.814,2.011
						c-0.531,0.539-1.24,0.84-1.997,0.846H674.767z"/>
				</g>
				<g>
					<path fill="#FFFFFF" d="M674.769,545.289v1c1.276,0,2.323,1.039,2.333,2.315c0.005,0.624-0.233,1.212-0.671,1.656
						s-1.021,0.691-1.664,0.696c-1.276,0-2.323-1.039-2.333-2.315c-0.005-0.624,0.233-1.212,0.671-1.656s1.021-0.691,1.645-0.696
						L674.769,545.289 M674.769,545.289c-0.009,0-0.019,0-0.027,0c-1.841,0.015-3.322,1.519-3.308,3.36
						c0.015,1.833,1.505,3.308,3.333,3.308c0.009,0,0.019,0,0.027,0c1.841-0.015,3.322-1.519,3.308-3.36
						C678.087,546.764,676.597,545.289,674.769,545.289L674.769,545.289z"/>
				</g>
			</g>
		</g>
		<g id="Xiaobitan_2_">
			<g>
				<g>
					<circle fill="#FFFFFF" cx="532.487" cy="559.294" r="3.334"/>
				</g>
				<g>
					<circle fill="none" stroke="#C1D928" stroke-width="2.5" cx="532.487" cy="559.294" r="3.334"/>
				</g>
			</g>
			<g>
				<g>
					<path fill="#C1D928" d="M532.486,562.128c-1.55,0-2.82-1.261-2.833-2.812c-0.006-0.757,0.283-1.471,0.814-2.011
						c0.531-0.539,1.24-0.84,1.997-0.846c1.573,0,2.844,1.261,2.856,2.812c0.006,0.757-0.283,1.471-0.814,2.011
						c-0.531,0.539-1.24,0.84-1.997,0.846H532.486z"/>
				</g>
				<g>
					<path fill="#FFFFFF" d="M532.488,555.96v1c1.276,0,2.323,1.039,2.333,2.315c0.005,0.624-0.233,1.212-0.671,1.656
						s-1.021,0.691-1.664,0.696c-1.276,0-2.323-1.039-2.333-2.315c-0.005-0.624,0.233-1.212,0.671-1.656s1.021-0.691,1.645-0.696
						L532.488,555.96 M532.488,555.96c-0.009,0-0.019,0-0.027,0c-1.841,0.015-3.322,1.519-3.308,3.36
						c0.015,1.833,1.505,3.308,3.333,3.308c0.009,0,0.019,0,0.027,0c1.841-0.015,3.322-1.519,3.308-3.36
						C535.806,557.435,534.316,555.96,532.488,555.96L532.488,555.96z"/>
				</g>
			</g>
		</g>
	</g>
	<g id="regular">
		<g id="Brown">
			<line fill="none" stroke="#A86935" stroke-width="4" x1="672.268" y1="125.387" x2="663.268" y2="125.387"/>
			<line fill="none" stroke="#A86935" stroke-width="4" x1="634.268" y1="227.387" x2="625.268" y2="227.387"/>
			<line fill="none" stroke="#A86935" stroke-width="4" x1="660.985" y1="45.156" x2="660.985" y2="36.156"/>
			<line fill="none" stroke="#A86935" stroke-width="4" x1="748.985" y1="45.156" x2="748.985" y2="36.156"/>
			<line fill="none" stroke="#A86935" stroke-width="4" x1="704.985" y1="53.156" x2="704.985" y2="44.156"/>
			<line fill="none" stroke="#A86935" stroke-width="4" x1="792.985" y1="53.156" x2="792.985" y2="44.156"/>
			<line fill="none" stroke="#A86935" stroke-width="4" x1="836.985" y1="45.156" x2="836.985" y2="36.156"/>
			<line fill="none" stroke="#A86935" stroke-width="4" x1="634.268" y1="183.387" x2="625.268" y2="183.387"/>
			<line fill="none" stroke="#A86935" stroke-width="4" x1="628.268" y1="98.387" x2="619.268" y2="98.387"/>
			<line fill="none" stroke="#A86935" stroke-width="4" x1="628.268" y1="66.387" x2="619.268" y2="66.387"/>
			<line fill="none" stroke="#A86935" stroke-width="4" x1="876.268" y1="88.387" x2="867.268" y2="88.387"/>
			<line fill="none" stroke="#A86935" stroke-width="4" x1="876.268" y1="128.387" x2="867.268" y2="128.387"/>
			<line fill="none" stroke="#A86935" stroke-width="4" x1="876.268" y1="168.387" x2="867.268" y2="168.387"/>
			<line fill="none" stroke="#A86935" stroke-width="4" x1="847.985" y1="507.457" x2="847.985" y2="498.457"/>
			<line fill="none" stroke="#A86935" stroke-width="4" x1="808.985" y1="498.457" x2="808.985" y2="489.457"/>
			<line fill="none" stroke="#A86935" stroke-width="4" x1="768.985" y1="507.457" x2="768.985" y2="498.457"/>
			<line fill="none" stroke="#A86935" stroke-width="4" x1="703.268" y1="430.137" x2="703.268" y2="421.137"/>
			<line fill="none" stroke="#A86935" stroke-width="4" x1="660.268" y1="422.137" x2="660.268" y2="413.137"/>
			<line fill="none" stroke="#A86935" stroke-width="4" x1="752.485" y1="470.322" x2="743.485" y2="470.322"/>
			<line fill="none" stroke="#A86935" stroke-width="4" x1="752.485" y1="440.322" x2="743.485" y2="440.322"/>
		</g>
		<g id="Red">
			<line fill="none" stroke="#ED1C24" stroke-width="4" x1="262.184" y1="8.156" x2="262.184" y2="-0.844"/>
			<line fill="none" stroke="#ED1C24" stroke-width="4" x1="295.184" y1="8.156" x2="295.184" y2="-0.844"/>
			<line fill="none" stroke="#ED1C24" stroke-width="4" x1="326.184" y1="8.156" x2="326.184" y2="-0.844"/>
			<line fill="none" stroke="#ED1C24" stroke-width="4" x1="360.184" y1="8.156" x2="360.184" y2="-0.844"/>
			<line fill="none" stroke="#ED1C24" stroke-width="4" x1="389.971" y1="30.322" x2="398.971" y2="30.322"/>
			<line fill="none" stroke="#ED1C24" stroke-width="4" x1="411.839" y1="329.321" x2="418.204" y2="322.957"/>
			<line fill="none" stroke="#ED1C24" stroke-width="4" x1="389.971" y1="199.322" x2="398.971" y2="199.322"/>
			<line fill="none" stroke="#ED1C24" stroke-width="4" x1="389.971" y1="85.322" x2="398.971" y2="85.322"/>
			<line fill="none" stroke="#ED1C24" stroke-width="4" x1="384.971" y1="59.322" x2="393.971" y2="59.322"/>
			<line fill="none" stroke="#ED1C24" stroke-width="4" x1="384.971" y1="237.322" x2="393.971" y2="237.322"/>
			<line fill="none" stroke="#ED1C24" stroke-width="4" x1="384.971" y1="113.322" x2="393.971" y2="113.322"/>
			<line fill="none" stroke="#ED1C24" stroke-width="4" x1="683.936" y1="348.334" x2="683.936" y2="339.334"/>
			<line fill="none" stroke="#ED1C24" stroke-width="4" x1="754.936" y1="355.334" x2="754.936" y2="346.334"/>
			<line fill="none" stroke="#ED1C24" stroke-width="4" x1="591.936" y1="355.334" x2="591.936" y2="346.334"/>
			<line fill="none" stroke="#ED1C24" stroke-width="4" x1="482.936" y1="349.334" x2="482.936" y2="340.334"/>
			<line fill="none" stroke="#ED1C24" stroke-width="4" x1="68.351" y1="33.504" x2="61.987" y2="27.14"/>
			<line fill="none" stroke="#ED1C24" stroke-width="4" x1="215.351" y1="33.504" x2="208.987" y2="27.14"/>
			<line fill="none" stroke="#ED1C24" stroke-width="4" x1="97.184" y1="39.156" x2="97.184" y2="30.156"/>
			<line fill="none" stroke="#ED1C24" stroke-width="4" x1="139.184" y1="39.156" x2="139.184" y2="30.156"/>
			<line fill="none" stroke="#ED1C24" stroke-width="4" x1="178.184" y1="39.156" x2="178.184" y2="30.156"/>
		</g>
		<g id="Green">
			<line fill="none" stroke="#006837" stroke-width="4" x1="313.018" y1="309.873" x2="304.018" y2="309.873"/>
			<line fill="none" stroke="#006837" stroke-width="4" x1="556.171" y1="522.137" x2="547.171" y2="522.137"/>
			<line fill="none" stroke="#006837" stroke-width="4" x1="556.171" y1="454.137" x2="547.171" y2="454.137"/>
			<line fill="none" stroke="#006837" stroke-width="4" x1="563.171" y1="491.137" x2="554.171" y2="491.137"/>
			<line fill="none" stroke="#006837" stroke-width="4" x1="626.524" y1="548.67" x2="626.524" y2="539.67"/>
			<line fill="none" stroke="#006837" stroke-width="4" x1="516.364" y1="398.231" x2="516.364" y2="389.231"/>
			<line fill="none" stroke="#006837" stroke-width="4" x1="563.171" y1="421.137" x2="554.171" y2="421.137"/>
		</g>
		<g id="Blue">
			<line fill="none" stroke="#0071BC" stroke-width="4" x1="867.631" y1="253.918" x2="876.631" y2="253.918"/>
			<line fill="none" stroke="#0071BC" stroke-width="4" x1="709.985" y1="279.387" x2="709.985" y2="288.387"/>
			<line fill="none" stroke="#0071BC" stroke-width="4" x1="743.985" y1="272.387" x2="743.985" y2="281.387"/>
			<line fill="none" stroke="#0071BC" stroke-width="4" x1="464.985" y1="279.387" x2="464.985" y2="288.387"/>
			<line fill="none" stroke="#0071BC" stroke-width="4" x1="669.985" y1="272.387" x2="669.985" y2="281.387"/>
			<line fill="none" stroke="#0071BC" stroke-width="4" x1="781.985" y1="279.387" x2="781.985" y2="288.387"/>
			<line fill="none" stroke="#0071BC" stroke-width="4" x1="822.985" y1="279.387" x2="822.985" y2="288.387"/>
			<line fill="none" stroke="#0071BC" stroke-width="4" x1="861.985" y1="279.387" x2="861.985" y2="288.387"/>
			<line fill="none" stroke="#0071BC" stroke-width="4" x1="234.966" y1="301.191" x2="240.391" y2="308.373"/>
			<line fill="none" stroke="#0071BC" stroke-width="4" x1="184.985" y1="308.373" x2="184.985" y2="317.373"/>
			<line fill="none" stroke="#0071BC" stroke-width="4" x1="150.184" y1="373.623" x2="141.184" y2="373.623"/>
			<line fill="none" stroke="#0071BC" stroke-width="4" x1="150.184" y1="433.623" x2="141.184" y2="433.623"/>
			<line fill="none" stroke="#0071BC" stroke-width="4" x1="143.184" y1="463.623" x2="134.184" y2="463.623"/>
			<line fill="none" stroke="#0071BC" stroke-width="4" x1="143.184" y1="403.623" x2="134.184" y2="403.623"/>
			<line fill="none" stroke="#0071BC" stroke-width="4" x1="143.184" y1="343.623" x2="134.184" y2="343.623"/>
			<line fill="none" stroke="#0071BC" stroke-width="4" x1="144.366" y1="496.471" x2="138.002" y2="490.106"/>
		</g>
		<g id="Orange">
			<line fill="none" stroke="#F7931E" stroke-width="4" x1="212.985" y1="116.054" x2="212.985" y2="107.054"/>
			<line fill="none" stroke="#F7931E" stroke-width="4" x1="254.002" y1="128.737" x2="260.367" y2="122.373"/>
			<line fill="none" stroke="#F7931E" stroke-width="4" x1="172.985" y1="123.054" x2="172.985" y2="114.054"/>
			<line fill="none" stroke="#F7931E" stroke-width="4" x1="133.985" y1="116.054" x2="133.985" y2="107.054"/>
			<line fill="none" stroke="#F7931E" stroke-width="4" x1="273.262" y1="183.193" x2="281.357" y2="187.124"/>
			<line fill="none" stroke="#F7931E" stroke-width="4" x1="257.123" y1="214.612" x2="264.804" y2="219.302"/>
			<line fill="none" stroke="#F7931E" stroke-width="4" x1="191.502" y1="242.374" x2="191.502" y2="233.374"/>
			<line fill="none" stroke="#F7931E" stroke-width="4" x1="129.502" y1="242.374" x2="129.502" y2="233.374"/>
			<line fill="none" stroke="#F7931E" stroke-width="4" x1="158.502" y1="233.374" x2="158.502" y2="224.374"/>
			<line fill="none" stroke="#F7931E" stroke-width="4" x1="219.502" y1="233.374" x2="219.502" y2="224.374"/>
			<line fill="none" stroke="#F7931E" stroke-width="4" x1="528.655" y1="233.322" x2="537.655" y2="233.322"/>
			<line fill="none" stroke="#F7931E" stroke-width="4" x1="535.018" y1="199.322" x2="544.018" y2="199.322"/>
			<line fill="none" stroke="#F7931E" stroke-width="4" x1="462.985" y1="160.636" x2="462.985" y2="151.636"/>
			<line fill="none" stroke="#F7931E" stroke-width="4" x1="421.303" y1="433.637" x2="421.303" y2="424.637"/>
			<line fill="none" stroke="#F7931E" stroke-width="4" x1="354.852" y1="505.322" x2="363.852" y2="505.322"/>
			<line fill="none" stroke="#F7931E" stroke-width="4" x1="362.852" y1="465.322" x2="371.852" y2="465.322"/>
		</g>
	</g>
</g>
<g id="Interchanges">
	<g id="Nangang_EC_1_">
		<path fill="#FFFFFF" d="M877.817,217.873c2.73,1.133,4.652,3.823,4.652,6.964c0,4.163-3.373,7.536-7.535,7.536
			s-7.535-3.373-7.535-7.536c-0.002-3.097,1.867-5.758,4.539-6.917l-0.031-4.43c-2.67-1.158-4.539-3.82-4.539-6.916
			c0-4.162,3.373-7.536,7.535-7.536s7.537,3.374,7.537,7.536c0,3.14-1.922,5.83-4.652,6.963L877.817,217.873z"/>
		<path fill="none" stroke="#000000" d="M877.817,217.873c2.73,1.133,4.652,3.823,4.652,6.964c0,4.163-3.373,7.536-7.535,7.536
			s-7.535-3.373-7.535-7.536c-0.002-3.097,1.867-5.758,4.539-6.917l-0.031-4.43c-2.67-1.158-4.539-3.82-4.539-6.916
			c0-4.162,3.373-7.536,7.535-7.536s7.537,3.374,7.537,7.536c0,3.14-1.922,5.83-4.652,6.963L877.817,217.873z"/>
		<path fill="#A86935" d="M879.1,206.623c0,2.394-1.939,4.334-4.334,4.334c-2.393,0-4.332-1.94-4.332-4.334s1.939-4.333,4.332-4.333
			C877.161,202.29,879.1,204.229,879.1,206.623"/>
		<path fill="#0071BC" d="M879.131,224.874c0,2.394-1.939,4.333-4.334,4.333c-2.393,0-4.334-1.939-4.334-4.333
			s1.941-4.333,4.334-4.333S879.131,222.479,879.131,224.874"/>
	</g>
	<g id="Qizhang_1_">
		<path fill="#FFFFFF" d="M582.852,543.17c2.807,0,5.084,2.275,5.084,5.083v13.81c0,2.807-2.277,5.082-5.084,5.082
			s-5.084-2.275-5.084-5.082v-13.81C577.768,545.445,580.045,543.17,582.852,543.17"/>
		<path fill="none" stroke="#000000" d="M582.852,543.17c2.807,0,5.084,2.275,5.084,5.083v13.81c0,2.807-2.277,5.082-5.084,5.082
			s-5.084-2.275-5.084-5.082v-13.81C577.768,545.445,580.045,543.17,582.852,543.17z"/>
		<path fill="#006837" d="M580.676,549.812c1.471,1.562,2.395,3.366,2.432,5.534c0.02,1.127,1.77,1.129,1.75,0
			c-0.045-2.634-1.158-4.872-2.943-6.771C581.139,547.751,579.905,548.991,580.676,549.812"/>
		<path fill="#C1D928" d="M583.108,556.294c-0.053,1.97-0.848,4.043-2.434,5.297c-0.883,0.7,0.363,1.931,1.238,1.238
			c1.932-1.529,2.881-4.148,2.943-6.535C584.887,555.165,583.137,555.168,583.108,556.294"/>
	</g>
	<g id="Beitou_1_">
		<path fill="#FFFFFF" d="M218.252,10.95c-1.133,2.731-3.823,4.652-6.964,4.652c-4.162,0-7.536-3.374-7.536-7.536
			s3.374-7.535,7.536-7.535c3.097-0.001,5.758,1.869,6.917,4.539l4.429-0.031c1.16-2.67,3.821-4.539,6.917-4.539
			c4.162,0,7.536,3.374,7.536,7.536s-3.374,7.536-7.536,7.536c-3.14,0-5.831-1.921-6.963-4.652L218.252,10.95z"/>
		<path fill="none" stroke="#000000" d="M218.252,10.95c-1.133,2.731-3.823,4.652-6.964,4.652c-4.162,0-7.536-3.374-7.536-7.536
			s3.374-7.535,7.536-7.535c3.097-0.001,5.758,1.869,6.917,4.539l4.429-0.031c1.16-2.67,3.821-4.539,6.917-4.539
			c4.162,0,7.536,3.374,7.536,7.536s-3.374,7.536-7.536,7.536c-3.14,0-5.831-1.921-6.963-4.652L218.252,10.95z"/>
		<path fill="#ED1C24" d="M229.502,12.232c-2.394,0-4.333-1.94-4.333-4.334c0-2.393,1.939-4.333,4.333-4.333s4.333,1.94,4.333,4.333
			C233.835,10.292,231.896,12.232,229.502,12.232"/>
		<path fill="#FFBDC5" d="M211.251,12.263c-2.394,0-4.333-1.94-4.333-4.334c0-2.393,1.939-4.333,4.333-4.333s4.333,1.94,4.333,4.333
			C215.584,10.323,213.645,12.263,211.251,12.263"/>
	</g>
	<g id="Guting_1_">
		<path fill="#FFFFFF" d="M485.184,405.48c-2.807,0-5.084-2.275-5.084-5.084v-13.809c0-2.807,2.277-5.083,5.084-5.083
			s5.084,2.276,5.084,5.083v13.809C490.268,403.205,487.991,405.48,485.184,405.48"/>
		<path fill="none" stroke="#000000" d="M485.184,405.48c-2.807,0-5.084-2.275-5.084-5.084v-13.809c0-2.807,2.277-5.083,5.084-5.083
			s5.084,2.276,5.084,5.083v13.809C490.268,403.205,487.991,405.48,485.184,405.48z"/>
		<path fill="#F7931E" d="M485.874,400.434v-6.854c0-1.13-1.75-1.13-1.75,0v6.854C484.124,401.562,485.874,401.562,485.874,400.434"
			/>
		<path fill="#006837" d="M485.874,393.159v-5.812c0-1.129-1.75-1.129-1.75,0v5.812
			C484.124,394.288,485.874,394.288,485.874,393.159"/>
	</g>
	<g id="Da_x27_an_1_">
		<path fill="#FFFFFF" d="M629.575,340.723c2.729,1.133,4.652,3.822,4.652,6.963c0,4.164-3.373,7.537-7.535,7.537
			s-7.537-3.373-7.537-7.537c0-3.096,1.869-5.758,4.539-6.916l-0.029-4.43c-2.67-1.158-4.539-3.82-4.539-6.916
			c0-4.162,3.373-7.537,7.535-7.537s7.537,3.375,7.537,7.537c0,3.139-1.922,5.83-4.652,6.963L629.575,340.723z"/>
		<path fill="none" stroke="#000000" d="M629.575,340.723c2.729,1.133,4.652,3.822,4.652,6.963c0,4.164-3.373,7.537-7.535,7.537
			s-7.537-3.373-7.537-7.537c0-3.096,1.869-5.758,4.539-6.916l-0.029-4.43c-2.67-1.158-4.539-3.82-4.539-6.916
			c0-4.162,3.373-7.537,7.535-7.537s7.537,3.375,7.537,7.537c0,3.139-1.922,5.83-4.652,6.963L629.575,340.723z"/>
		<path fill="#A86935" d="M630.858,329.473c0,2.396-1.941,4.334-4.334,4.334s-4.334-1.938-4.334-4.334
			c0-2.395,1.941-4.334,4.334-4.334S630.858,327.078,630.858,329.473"/>
		<path fill="#ED1C24" d="M630.887,347.723c0,2.396-1.938,4.334-4.334,4.334c-2.393,0-4.332-1.938-4.332-4.334
			c0-2.393,1.939-4.332,4.332-4.332C628.948,343.391,630.887,345.33,630.887,347.723"/>
	</g>
	<g id="Taibei_Main_Sta._1_">
		<path fill="#FFFFFF" d="M388.753,288.553c-2.729-1.133-4.652-3.822-4.652-6.963c0-4.163,3.375-7.537,7.537-7.537
			s7.535,3.374,7.535,7.537c0,3.096-1.869,5.758-4.539,6.916l0.03,4.43c2.67,1.16,4.54,3.82,4.539,6.916
			c0,4.162-3.374,7.537-7.536,7.537s-7.535-3.375-7.535-7.537c0-3.139,1.921-5.83,4.652-6.963L388.753,288.553z"/>
		<path fill="none" stroke="#000000" d="M388.753,288.553c-2.729-1.133-4.652-3.822-4.652-6.963c0-4.163,3.375-7.537,7.537-7.537
			s7.535,3.374,7.535,7.537c0,3.096-1.869,5.758-4.539,6.916l0.03,4.43c2.67,1.16,4.54,3.82,4.539,6.916
			c0,4.162-3.374,7.537-7.536,7.537s-7.535-3.375-7.535-7.537c0-3.139,1.921-5.83,4.652-6.963L388.753,288.553z"/>
		<path fill="#ED1C24" d="M387.471,299.803c0-2.395,1.94-4.332,4.334-4.332s4.333,1.938,4.333,4.332
			c0,2.395-1.939,4.334-4.333,4.334S387.471,302.197,387.471,299.803"/>
		<path fill="#0071BC" d="M387.441,281.553c0-2.394,1.939-4.333,4.334-4.333c2.393,0,4.333,1.939,4.333,4.333
			s-1.94,4.334-4.333,4.334C389.381,285.887,387.441,283.945,387.441,281.553"/>
	</g>
	<g id="CKS_M._Hall_1_">
		<path fill="#FFFFFF" d="M426.29,359.779c-2.225-1.709-2.646-4.901-0.934-7.127l8.418-10.947c1.711-2.225,4.902-2.643,7.129-0.932
			c2.225,1.711,2.643,4.903,0.932,7.129l-8.416,10.947C431.706,361.075,428.514,361.491,426.29,359.779"/>
		<path fill="none" stroke="#000000" d="M426.29,359.779c-2.225-1.709-2.646-4.901-0.934-7.127l8.418-10.947
			c1.711-2.225,4.902-2.643,7.129-0.932c2.225,1.711,2.643,4.903,0.932,7.129l-8.416,10.947
			C431.706,361.075,428.514,361.491,426.29,359.779z"/>
		<path fill="#006837" d="M429.975,356.107c1.393-1.812,2.785-3.623,4.18-5.436c0.688-0.895-0.834-1.765-1.512-0.883
			c-1.393,1.812-2.785,3.623-4.18,5.436C427.776,356.119,429.295,356.989,429.975,356.107"/>
		<path fill="#ED1C24" d="M434.409,350.342c1.18-1.535,2.359-3.07,3.541-4.605c0.688-0.896-0.834-1.766-1.514-0.883
			c-1.178,1.535-2.359,3.069-3.539,4.605C432.209,350.354,433.731,351.225,434.409,350.342"/>
	</g>
	<g id="Minquan_Xi_Lu_1_">
		<path fill="#FFFFFF" d="M394.551,153.304c2.731,1.133,4.652,3.823,4.652,6.964c0,4.162-3.373,7.536-7.535,7.536
			s-7.536-3.374-7.536-7.536c-0.001-3.097,1.869-5.758,4.539-6.917l-0.03-4.429c-2.67-1.16-4.539-3.821-4.539-6.917
			c0-4.162,3.373-7.536,7.535-7.536s7.537,3.374,7.537,7.536c0,3.14-1.922,5.831-4.652,6.963L394.551,153.304z"/>
		<path fill="none" stroke="#000000" d="M394.551,153.304c2.731,1.133,4.652,3.823,4.652,6.964c0,4.162-3.373,7.536-7.535,7.536
			s-7.536-3.374-7.536-7.536c-0.001-3.097,1.869-5.758,4.539-6.917l-0.03-4.429c-2.67-1.16-4.539-3.821-4.539-6.917
			c0-4.162,3.373-7.536,7.535-7.536s7.537,3.374,7.537,7.536c0,3.14-1.922,5.831-4.652,6.963L394.551,153.304z"/>
		<path fill="#ED1C24" d="M395.834,142.054c0,2.394-1.94,4.333-4.334,4.333c-2.393,0-4.333-1.938-4.333-4.333
			c0-2.394,1.94-4.333,4.333-4.333C393.894,137.721,395.834,139.66,395.834,142.054"/>
		<path fill="#F7931E" d="M395.864,160.305c0,2.394-1.94,4.333-4.334,4.333s-4.333-1.939-4.333-4.333s1.939-4.333,4.333-4.333
			S395.864,157.911,395.864,160.305"/>
	</g>
	<g id="Zhongxiao_Xinsheng_1_">
		<path fill="#FFFFFF" d="M533.801,268.418c-2.73-1.133-4.65-3.823-4.65-6.964c0-4.163,3.373-7.536,7.533-7.536
			c4.162,0,7.535,3.373,7.535,7.536c0.002,3.097-1.869,5.758-4.539,6.917l0.031,4.429c2.67,1.16,4.539,3.821,4.539,6.917
			c0,4.162-3.373,7.536-7.535,7.536s-7.537-3.374-7.537-7.536c0-3.14,1.922-5.831,4.652-6.963L533.801,268.418z"/>
		<path fill="none" stroke="#000000" d="M533.801,268.418c-2.73-1.133-4.65-3.823-4.65-6.964c0-4.163,3.373-7.536,7.533-7.536
			c4.162,0,7.535,3.373,7.535,7.536c0.002,3.097-1.869,5.758-4.539,6.917l0.031,4.429c2.67,1.16,4.539,3.821,4.539,6.917
			c0,4.162-3.373,7.536-7.535,7.536s-7.537-3.374-7.537-7.536c0-3.14,1.922-5.831,4.652-6.963L533.801,268.418z"/>
		<path fill="#0071BC" d="M532.518,279.668c0-2.395,1.939-4.333,4.336-4.333c2.393,0,4.33,1.938,4.33,4.333
			c0,2.394-1.938,4.333-4.33,4.333C534.458,284.001,532.518,282.062,532.518,279.668"/>
		<path fill="#F7931E" d="M532.487,261.417c0-2.394,1.941-4.333,4.334-4.333s4.334,1.939,4.334,4.333s-1.941,4.334-4.334,4.334
			S532.487,263.811,532.487,261.417"/>
	</g>
	<g id="Zhongxiao_Fuxing_1_">
		<path fill="#FFFFFF" d="M629.577,272.724c2.73,1.133,4.65,3.823,4.65,6.963c0,4.165-3.371,7.538-7.533,7.538
			s-7.537-3.373-7.537-7.538c0-3.096,1.869-5.757,4.539-6.916l-0.029-4.43c-2.67-1.158-4.539-3.82-4.539-6.916
			c0-4.162,3.373-7.536,7.535-7.536s7.537,3.374,7.537,7.536c0,3.14-1.922,5.83-4.652,6.963L629.577,272.724z"/>
		<path fill="none" stroke="#000000" d="M629.577,272.724c2.73,1.133,4.65,3.823,4.65,6.963c0,4.165-3.371,7.538-7.533,7.538
			s-7.537-3.373-7.537-7.538c0-3.096,1.869-5.757,4.539-6.916l-0.029-4.43c-2.67-1.158-4.539-3.82-4.539-6.916
			c0-4.162,3.373-7.536,7.535-7.536s7.537,3.374,7.537,7.536c0,3.14-1.922,5.83-4.652,6.963L629.577,272.724z"/>
		<path fill="#A86935" d="M630.86,261.474c0,2.394-1.941,4.334-4.334,4.334c-2.395,0-4.334-1.94-4.334-4.334
			s1.939-4.333,4.334-4.333C628.918,257.141,630.86,259.08,630.86,261.474"/>
		<path fill="#0071BC" d="M630.889,279.725c0,2.395-1.939,4.334-4.334,4.334c-2.393,0-4.332-1.939-4.332-4.334
			c0-2.393,1.939-4.333,4.332-4.333C628.95,275.392,630.889,277.332,630.889,279.725"/>
	</g>
	<g id="Dongmen_1_">
		<path fill="#FFFFFF" d="M521.448,361.861c-2.807,0-5.084-2.275-5.084-5.084v-13.807c0-2.808,2.277-5.084,5.084-5.084
			s5.084,2.276,5.084,5.084v13.809C526.532,359.586,524.254,361.861,521.448,361.861"/>
		<path fill="none" stroke="#000000" d="M521.448,361.861c-2.807,0-5.084-2.275-5.084-5.084v-13.807
			c0-2.808,2.277-5.084,5.084-5.084s5.084,2.276,5.084,5.084v13.809C526.532,359.586,524.254,361.861,521.448,361.861z"/>
		<path fill="#F7931E" d="M522.139,356.812v-6.854c0-1.129-1.75-1.129-1.75,0v6.854
			C520.389,357.941,522.139,357.941,522.139,356.812"/>
		<path fill="#ED1C24" d="M522.139,349.54v-5.812c0-1.129-1.75-1.129-1.75,0v5.812C520.389,350.669,522.139,350.669,522.139,349.54"
			/>
	</g>
	<g id="Ximen_1_">
		<path fill="#FFFFFF" d="M322.358,296.782c-2.807,0-5.084-2.275-5.084-5.083V277.89c0-2.806,2.277-5.083,5.084-5.083
			s5.084,2.277,5.084,5.083v13.809C327.442,294.507,325.165,296.782,322.358,296.782"/>
		<path fill="none" stroke="#000000" d="M322.358,296.782c-2.807,0-5.084-2.275-5.084-5.083V277.89c0-2.806,2.277-5.083,5.084-5.083
			s5.084,2.277,5.084,5.083v13.809C327.442,294.507,325.165,296.782,322.358,296.782z"/>
		<path fill="#006837" d="M323.047,291.734v-6.855c0-1.128-1.75-1.128-1.75,0v6.855
			C321.297,292.861,323.047,292.861,323.047,291.734"/>
		<path fill="#3A9EB5" d="M323.047,284.461v-5.811c0-1.127-1.75-1.127-1.75,0v5.811
			C321.297,285.589,323.047,285.589,323.047,284.461"/>
	</g>
	<g id="Daqiaotou_1_">
		<path fill="#FFFFFF" d="M323.505,160.374c0,2.807-2.275,5.083-5.082,5.083h-13.809c-2.806,0-5.084-2.276-5.084-5.083
			c0-2.808,2.278-5.084,5.084-5.084h13.809C321.23,155.29,323.505,157.565,323.505,160.374"/>
		<path fill="none" stroke="#000000" d="M323.505,160.374c0,2.807-2.275,5.083-5.082,5.083h-13.809
			c-2.806,0-5.084-2.276-5.084-5.083c0-2.808,2.278-5.084,5.084-5.084h13.809C321.23,155.29,323.505,157.565,323.505,160.374z"/>
		<path fill="#F7931E" d="M304.624,161.286c4.597-0.025,9.192-0.049,13.789-0.074c1.128-0.006,1.129-1.757,0-1.75
			c-4.597,0.025-9.192,0.049-13.789,0.074C303.495,159.541,303.494,161.291,304.624,161.286"/>
	</g>
</g>
</svg>
