<?xml version="1.0" encoding="iso-8859-1"?>
<!-- Generator: Adobe Illustrator 13.0.1, SVG Export Plug-In . SVG Version: 6.00 Build 14948)  -->
<!DOCTYPE svg PUBLIC "-//W3C//DTD SVG 1.1//EN" "http://www.w3.org/Graphics/SVG/1.1/DTD/svg11.dtd">
<svg version="1.1" id="&#x5716;&#x5C64;_1" xmlns="http://www.w3.org/2000/svg" xmlns:xlink="http://www.w3.org/1999/xlink" x="0px"
	 y="0px" width="860px" height="600px" viewBox="0 0 860 600" style="enable-background:new 0 0 860 600;" xml:space="preserve">
<g>
	<defs>
		<rect id="SVGID_1_" width="860" height="600"/>
	</defs>
	<clipPath id="SVGID_2_">
		<use xlink:href="#SVGID_1_"  style="overflow:visible;"/>
	</clipPath>
	<g style="opacity:0.5;clip-path:url(#SVGID_2_);">
		<g>
			<defs>
				<rect id="SVGID_3_" x="21" y="3" width="833" height="596"/>
			</defs>
			<clipPath id="SVGID_4_">
				<use xlink:href="#SVGID_3_"  style="overflow:visible;"/>
			</clipPath>
		</g>
	</g>
</g>
<g>
	<defs>
		<rect id="SVGID_5_" width="860" height="600"/>
	</defs>
	<clipPath id="SVGID_6_">
		<use xlink:href="#SVGID_5_"  style="overflow:visible;"/>
	</clipPath>
	<path style="clip-path:url(#SVGID_6_);fill:none;stroke:#F7931E;stroke-width:5;stroke-miterlimit:10;" d="M65.75,254h122
		c33,0,46-34,46-34l8-19c10-24,37-20,37-20"/>
	<path style="clip-path:url(#SVGID_6_);fill:none;stroke:#F7931E;stroke-width:5;stroke-miterlimit:10;" d="M330.75,569v-93
		c0,0-4-30.669,19-30.669h59.668c0,0,8.833-0.833,14.333-6.333l8.333-11.334c0,0,5.833-7.788,9.042-8.76
		c4.467-1.353,8.958-0.573,8.958-0.573s5,0.333,8.667-1s10.979-20.254,10.979-20.254s7.354-21.413,15.02-21.577h10.5
		c0,0,8.5-0.5,8.5-8.5V198c0-20-19-17-19-17h-206c-24,0-46-23-46-23c-26-25-45-23-45-23l-119-0.235"/>
	<path style="clip-path:url(#SVGID_6_);fill:none;stroke:#006837;stroke-width:5;stroke-miterlimit:10;" d="M642,569H537.417
		c0,0-15.333-0.667-15.333-17.332v-78.337v-46.666c0,0,1-15.334-17.667-15.334h-47.334c0,0-12.883,0.002-12.883-11.665v-8.333
		c0,0,0.883-14.827-23.45-14.827l-3.666-0.004l-3.958-0.008c0,0-17.855,0.816-29.605-10.934l-8.75-8.75
		C368.605,350.645,356.25,351,356.25,351h-49.5c-20,0-17-19-17-19v-29"/>
	<path style="clip-path:url(#SVGID_6_);fill:none;stroke:#0071BC;stroke-width:5;stroke-miterlimit:10;" d="M842,237v46
		c0,19-16,18-16,18H259.75c-36,0-45,12-45,12s-14,15-32,16s-49,0-49,0c-26,0.444-24,30-24,30v131c1.25,29-16,29-16,29H77"/>
	<path style="clip-path:url(#SVGID_6_);fill:none;stroke:#ED1C24;stroke-width:5;stroke-miterlimit:10;" d="M785,367.945
		l-364.374-0.012c0,0-20.855,0.816-32.605-10.934l-18.75-18.75c-10.646-10.646-10.25-25.25-10.25-25.25l-0.002-93l-0.233-165.036
		c0,0,0.964-27.537-27.536-27.537L210.75,27.5c0,0-9.455-0.955-14.5,4.089L179.75,47c0,0-4.844,4-14,4h-121c0,0-9.5,0.5-16.5,7.5
		L15,71.75"/>
	<path style="clip-path:url(#SVGID_6_);fill:none;stroke:#A86935;stroke-width:5;stroke-miterlimit:10;" d="M842,227V89
		c0-24.889-24-24-24-24l-196-0.075C593,64.925,593.912,88,593.912,88L594,128.765C594,142,604,141,604,141h17c17,0,11,15,11,15
		c-7,12-38.088,15-38.088,32v227c0,31,28.088,27,28.088,27h68c22,0,22,24,22,24v26c0,23,25,27,25,27h109"/>
</g>
<g style="display:none;">
	<defs>
		<rect id="SVGID_7_" width="860" height="600"/>
	</defs>
	<clipPath id="SVGID_8_" style="display:inline;">
		<use xlink:href="#SVGID_7_"  style="overflow:visible;"/>
	</clipPath>
	<path style="display:inline;clip-path:url(#SVGID_8_);fill:#FFFFFF;" d="M596.808,361.1c2.729,1.133,4.652,3.822,4.652,6.963
		c0,4.164-3.373,7.537-7.535,7.537s-7.537-3.373-7.537-7.537c0-3.096,1.869-5.758,4.539-6.916l-0.029-4.43
		c-2.67-1.158-4.539-3.82-4.539-6.916c0-4.162,3.373-7.537,7.535-7.537s7.537,3.375,7.537,7.537c0,3.139-1.922,5.83-4.652,6.963
		L596.808,361.1z"/>
	<path style="display:inline;clip-path:url(#SVGID_8_);fill:none;stroke:#000000;" d="M596.808,361.1
		c2.729,1.133,4.652,3.822,4.652,6.963c0,4.164-3.373,7.537-7.535,7.537s-7.537-3.373-7.537-7.537c0-3.096,1.869-5.758,4.539-6.916
		l-0.029-4.43c-2.67-1.158-4.539-3.82-4.539-6.916c0-4.162,3.373-7.537,7.535-7.537s7.537,3.375,7.537,7.537
		c0,3.139-1.922,5.83-4.652,6.963L596.808,361.1z"/>
	<path style="display:inline;clip-path:url(#SVGID_8_);fill:#A86935;" d="M598.091,349.85c0,2.395-1.941,4.334-4.334,4.334
		s-4.334-1.939-4.334-4.334s1.941-4.334,4.334-4.334S598.091,347.455,598.091,349.85"/>
	<path style="display:inline;clip-path:url(#SVGID_8_);fill:#C1272D;" d="M598.12,368.1c0,2.395-1.939,4.334-4.334,4.334
		c-2.393,0-4.332-1.939-4.332-4.334c0-2.393,1.939-4.332,4.332-4.332C596.181,363.768,598.12,365.707,598.12,368.1"/>
	<path style="display:inline;clip-path:url(#SVGID_8_);fill:#FFFFFF;" d="M596.809,293.101c2.731,1.133,4.652,3.823,4.652,6.963
		c0,4.165-3.373,7.538-7.535,7.538s-7.536-3.373-7.536-7.538c-0.001-3.096,1.869-5.757,4.539-6.916l-0.03-4.43
		c-2.67-1.158-4.539-3.82-4.539-6.916c0-4.162,3.373-7.536,7.535-7.536s7.537,3.374,7.537,7.536c0,3.14-1.922,5.83-4.652,6.963
		L596.809,293.101z"/>
	<path style="display:inline;clip-path:url(#SVGID_8_);fill:none;stroke:#000000;" d="M596.809,293.101
		c2.731,1.133,4.652,3.823,4.652,6.963c0,4.165-3.373,7.538-7.535,7.538s-7.536-3.373-7.536-7.538
		c-0.001-3.096,1.869-5.757,4.539-6.916l-0.03-4.43c-2.67-1.158-4.539-3.82-4.539-6.916c0-4.162,3.373-7.536,7.535-7.536
		s7.537,3.374,7.537,7.536c0,3.14-1.922,5.83-4.652,6.963L596.809,293.101z"/>
	<path style="display:inline;clip-path:url(#SVGID_8_);fill:#A86935;" d="M598.092,281.851c0,2.394-1.94,4.334-4.334,4.334
		c-2.393,0-4.333-1.94-4.333-4.334s1.94-4.333,4.333-4.333C596.151,277.518,598.092,279.457,598.092,281.851"/>
	<path style="display:inline;clip-path:url(#SVGID_8_);fill:#0071BC;" d="M598.122,300.102c0,2.395-1.94,4.334-4.334,4.334
		c-2.393,0-4.333-1.939-4.333-4.334c0-2.393,1.94-4.333,4.333-4.333C596.182,295.769,598.122,297.708,598.122,300.102"/>
	<path style="display:inline;clip-path:url(#SVGID_8_);fill:#FFFFFF;" d="M845.05,238.25c2.731,1.133,4.652,3.823,4.652,6.964
		c0,4.163-3.373,7.536-7.535,7.536s-7.536-3.373-7.536-7.536c-0.001-3.097,1.869-5.758,4.539-6.917l-0.03-4.43
		c-2.67-1.158-4.539-3.82-4.539-6.916c0-4.162,3.373-7.536,7.535-7.536s7.537,3.374,7.537,7.536c0,3.14-1.922,5.83-4.652,6.963
		L845.05,238.25z"/>
	<path style="display:inline;clip-path:url(#SVGID_8_);fill:none;stroke:#000000;" d="M845.05,238.25
		c2.731,1.133,4.652,3.823,4.652,6.964c0,4.163-3.373,7.536-7.535,7.536s-7.536-3.373-7.536-7.536
		c-0.001-3.097,1.869-5.758,4.539-6.917l-0.03-4.43c-2.67-1.158-4.539-3.82-4.539-6.916c0-4.162,3.373-7.536,7.535-7.536
		s7.537,3.374,7.537,7.536c0,3.14-1.922,5.83-4.652,6.963L845.05,238.25z"/>
	<path style="display:inline;clip-path:url(#SVGID_8_);fill:#A86935;" d="M846.333,227c0,2.394-1.94,4.334-4.334,4.334
		c-2.393,0-4.333-1.94-4.333-4.334s1.94-4.333,4.333-4.333C844.393,222.667,846.333,224.605,846.333,227"/>
	<path style="display:inline;clip-path:url(#SVGID_8_);fill:#0071BC;" d="M846.363,245.25c0,2.394-1.94,4.333-4.334,4.333
		c-2.393,0-4.333-1.939-4.333-4.333s1.94-4.333,4.333-4.333C844.423,240.917,846.363,242.856,846.363,245.25"/>
	<path style="display:inline;clip-path:url(#SVGID_8_);fill:#FFFFFF;" d="M501.034,288.795c-2.732-1.133-4.652-3.823-4.652-6.964
		c0-4.163,3.373-7.536,7.535-7.536s7.535,3.373,7.535,7.536c0.002,3.097-1.869,5.758-4.539,6.917l0.031,4.429
		c2.67,1.16,4.539,3.821,4.539,6.917c0,4.162-3.373,7.536-7.535,7.536s-7.537-3.374-7.537-7.536c0-3.14,1.922-5.831,4.652-6.963
		L501.034,288.795z"/>
	<path style="display:inline;clip-path:url(#SVGID_8_);fill:none;stroke:#000000;" d="M501.034,288.795
		c-2.732-1.133-4.652-3.823-4.652-6.964c0-4.163,3.373-7.536,7.535-7.536s7.535,3.373,7.535,7.536
		c0.002,3.097-1.869,5.758-4.539,6.917l0.031,4.429c2.67,1.16,4.539,3.821,4.539,6.917c0,4.162-3.373,7.536-7.535,7.536
		s-7.537-3.374-7.537-7.536c0-3.14,1.922-5.831,4.652-6.963L501.034,288.795z"/>
	<path style="display:inline;clip-path:url(#SVGID_8_);fill:#F7931E;" d="M499.751,300.045c0-2.395,1.939-4.333,4.334-4.333
		c2.393,0,4.332,1.938,4.332,4.333c0,2.394-1.939,4.333-4.332,4.333C501.69,304.378,499.751,302.438,499.751,300.045"/>
	<path style="display:inline;clip-path:url(#SVGID_8_);fill:#0071BC;" d="M499.72,281.794c0-2.394,1.941-4.333,4.334-4.333
		s4.334,1.939,4.334,4.333s-1.941,4.334-4.334,4.334S499.72,284.188,499.72,281.794"/>
	<path style="display:inline;clip-path:url(#SVGID_8_);fill:#FFFFFF;" d="M355.986,308.93c-2.73-1.133-4.652-3.822-4.652-6.963
		c0-4.163,3.375-7.537,7.537-7.537c4.162,0,7.535,3.374,7.535,7.537c0,3.096-1.869,5.758-4.539,6.916l0.03,4.43
		c2.67,1.16,4.54,3.82,4.539,6.916c0,4.162-3.374,7.537-7.536,7.537s-7.535-3.375-7.535-7.537c0-3.139,1.921-5.83,4.652-6.963
		L355.986,308.93z"/>
	<path style="display:inline;clip-path:url(#SVGID_8_);fill:none;stroke:#000000;" d="M355.986,308.93
		c-2.73-1.133-4.652-3.822-4.652-6.963c0-4.163,3.375-7.537,7.537-7.537c4.162,0,7.535,3.374,7.535,7.537
		c0,3.096-1.869,5.758-4.539,6.916l0.03,4.43c2.67,1.16,4.54,3.82,4.539,6.916c0,4.162-3.374,7.537-7.536,7.537
		s-7.535-3.375-7.535-7.537c0-3.139,1.921-5.83,4.652-6.963L355.986,308.93z"/>
	<path style="display:inline;clip-path:url(#SVGID_8_);fill:#C1272D;" d="M354.704,320.18c0-2.395,1.94-4.332,4.334-4.332
		c2.393,0,4.333,1.938,4.333,4.332s-1.94,4.334-4.333,4.334C356.644,324.514,354.704,322.574,354.704,320.18"/>
	<path style="display:inline;clip-path:url(#SVGID_8_);fill:#0071BC;" d="M354.673,301.93c0-2.394,1.94-4.333,4.334-4.333
		c2.393,0,4.333,1.939,4.333,4.333c0,2.393-1.94,4.334-4.333,4.334C356.613,306.264,354.673,304.322,354.673,301.93"/>
	<path style="display:inline;clip-path:url(#SVGID_8_);fill:#FFFFFF;" d="M361.783,173.681c2.731,1.133,4.652,3.823,4.652,6.964
		c0,4.162-3.373,7.536-7.535,7.536c-4.162,0-7.536-3.374-7.536-7.536c-0.001-3.097,1.869-5.758,4.539-6.917l-0.03-4.429
		c-2.67-1.16-4.539-3.821-4.539-6.917c0-4.162,3.373-7.536,7.535-7.536s7.537,3.374,7.537,7.536c0,3.14-1.922,5.831-4.652,6.963
		L361.783,173.681z"/>
	<path style="display:inline;clip-path:url(#SVGID_8_);fill:none;stroke:#000000;" d="M361.783,173.681
		c2.731,1.133,4.652,3.823,4.652,6.964c0,4.162-3.373,7.536-7.535,7.536c-4.162,0-7.536-3.374-7.536-7.536
		c-0.001-3.097,1.869-5.758,4.539-6.917l-0.03-4.429c-2.67-1.16-4.539-3.821-4.539-6.917c0-4.162,3.373-7.536,7.535-7.536
		s7.537,3.374,7.537,7.536c0,3.14-1.922,5.831-4.652,6.963L361.783,173.681z"/>
	<path style="display:inline;clip-path:url(#SVGID_8_);fill:#C1272D;" d="M363.066,162.431c0,2.394-1.94,4.333-4.334,4.333
		c-2.393,0-4.333-1.939-4.333-4.333s1.94-4.333,4.333-4.333C361.126,158.098,363.066,160.037,363.066,162.431"/>
	<path style="display:inline;clip-path:url(#SVGID_8_);fill:#F7931E;" d="M363.097,180.682c0,2.394-1.94,4.333-4.334,4.333
		c-2.393,0-4.333-1.939-4.333-4.333s1.94-4.333,4.333-4.333C361.157,176.349,363.097,178.288,363.097,180.682"/>
	<path style="display:inline;clip-path:url(#SVGID_8_);fill:#FFFFFF;" d="M185.484,31.327c-1.133,2.731-3.823,4.652-6.964,4.652
		c-4.162,0-7.536-3.374-7.536-7.536c0-4.162,3.374-7.535,7.536-7.535c3.097-0.001,5.758,1.869,6.917,4.539l4.429-0.031
		c1.16-2.67,3.821-4.539,6.917-4.539c4.162,0,7.536,3.374,7.536,7.536c0,4.162-3.374,7.536-7.536,7.536
		c-3.14,0-5.831-1.921-6.963-4.652L185.484,31.327z"/>
	<path style="display:inline;clip-path:url(#SVGID_8_);fill:none;stroke:#000000;" d="M185.484,31.327
		c-1.133,2.731-3.823,4.652-6.964,4.652c-4.162,0-7.536-3.374-7.536-7.536c0-4.162,3.374-7.535,7.536-7.535
		c3.097-0.001,5.758,1.869,6.917,4.539l4.429-0.031c1.16-2.67,3.821-4.539,6.917-4.539c4.162,0,7.536,3.374,7.536,7.536
		c0,4.162-3.374,7.536-7.536,7.536c-3.14,0-5.831-1.921-6.963-4.652L185.484,31.327z"/>
	<path style="display:inline;clip-path:url(#SVGID_8_);fill:#C1272D;" d="M196.734,32.609c-2.394,0-4.333-1.94-4.333-4.334
		c0-2.393,1.939-4.333,4.333-4.333s4.333,1.94,4.333,4.333C201.067,30.669,199.128,32.609,196.734,32.609"/>
	<path style="display:inline;clip-path:url(#SVGID_8_);fill:#FFBDC5;" d="M178.483,32.64c-2.394,0-4.333-1.94-4.333-4.334
		c0-2.393,1.939-4.333,4.333-4.333s4.333,1.94,4.333,4.333C182.816,30.7,180.877,32.64,178.483,32.64"/>
	<path style="display:inline;clip-path:url(#SVGID_8_);fill:#FFFFFF;" d="M550.084,563.547c2.807,0,5.084,2.275,5.084,5.083v13.809
		c0,2.807-2.277,5.083-5.084,5.083S545,585.245,545,582.438V568.63C545,565.822,547.277,563.547,550.084,563.547"/>
	<path style="display:inline;clip-path:url(#SVGID_8_);fill:none;stroke:#000000;" d="M550.084,563.547
		c2.807,0,5.084,2.275,5.084,5.083v13.809c0,2.807-2.277,5.083-5.084,5.083S545,585.245,545,582.438V568.63
		C545,565.822,547.277,563.547,550.084,563.547z"/>
	<path style="display:inline;clip-path:url(#SVGID_8_);fill:#006837;" d="M547.908,570.19c1.47,1.562,2.395,3.366,2.432,5.534
		c0.02,1.127,1.77,1.129,1.75,0c-0.045-2.634-1.158-4.872-2.943-6.772C548.372,568.128,547.137,569.368,547.908,570.19"/>
	<path style="display:inline;clip-path:url(#SVGID_8_);fill:#C1D928;" d="M550.34,576.671c-0.052,1.97-0.846,4.043-2.432,5.297
		c-0.884,0.7,0.363,1.93,1.238,1.238c1.932-1.529,2.88-4.148,2.943-6.535C552.12,575.542,550.37,575.545,550.34,576.671"/>
	<path style="display:inline;clip-path:url(#SVGID_8_);fill:#FFFFFF;" d="M289.59,317.159c-2.807,0-5.084-2.275-5.084-5.083v-13.809
		c0-2.806,2.277-5.083,5.084-5.083s5.084,2.277,5.084,5.083v13.809C294.674,314.884,292.397,317.159,289.59,317.159"/>
	<path style="display:inline;clip-path:url(#SVGID_8_);fill:none;stroke:#000000;" d="M289.59,317.159
		c-2.807,0-5.084-2.275-5.084-5.083v-13.809c0-2.806,2.277-5.083,5.084-5.083s5.084,2.277,5.084,5.083v13.809
		C294.674,314.884,292.397,317.159,289.59,317.159z"/>
	<path style="display:inline;clip-path:url(#SVGID_8_);fill:#006837;" d="M290.28,312.111v-6.855c0-1.128-1.75-1.128-1.75,0v6.855
		C288.53,313.239,290.28,313.239,290.28,312.111"/>
	<path style="display:inline;clip-path:url(#SVGID_8_);fill:#3A9EB5;" d="M290.28,304.838v-5.811c0-1.127-1.75-1.127-1.75,0v5.811
		C288.53,305.966,290.28,305.966,290.28,304.838"/>
	<path style="display:inline;clip-path:url(#SVGID_8_);fill:#FFFFFF;" d="M488.681,382.238c-2.807,0-5.084-2.275-5.084-5.083
		v-13.809c0-2.807,2.277-5.083,5.084-5.083s5.084,2.276,5.084,5.083v13.809C493.765,379.963,491.487,382.238,488.681,382.238"/>
	<path style="display:inline;clip-path:url(#SVGID_8_);fill:none;stroke:#000000;" d="M488.681,382.238
		c-2.807,0-5.084-2.275-5.084-5.083v-13.809c0-2.807,2.277-5.083,5.084-5.083s5.084,2.276,5.084,5.083v13.809
		C493.765,379.963,491.487,382.238,488.681,382.238z"/>
	<path style="display:inline;clip-path:url(#SVGID_8_);fill:#F7931E;" d="M489.371,377.19v-6.855c0-1.129-1.75-1.129-1.75,0v6.855
		C487.621,378.319,489.371,378.319,489.371,377.19"/>
	<path style="display:inline;clip-path:url(#SVGID_8_);fill:#C1272D;" d="M489.371,369.917v-5.811c0-1.129-1.75-1.129-1.75,0v5.811
		C487.621,371.046,489.371,371.046,489.371,369.917"/>
	<path style="display:inline;clip-path:url(#SVGID_8_);fill:#FFFFFF;" d="M452.416,425.857c-2.807,0-5.084-2.275-5.084-5.083
		v-13.809c0-2.807,2.277-5.083,5.084-5.083s5.084,2.276,5.084,5.083v13.809C457.5,423.582,455.223,425.857,452.416,425.857"/>
	<path style="display:inline;clip-path:url(#SVGID_8_);fill:none;stroke:#000000;" d="M452.416,425.857
		c-2.807,0-5.084-2.275-5.084-5.083v-13.809c0-2.807,2.277-5.083,5.084-5.083s5.084,2.276,5.084,5.083v13.809
		C457.5,423.582,455.223,425.857,452.416,425.857z"/>
	<path style="display:inline;clip-path:url(#SVGID_8_);fill:#F7931E;" d="M453.106,420.81v-6.854c0-1.13-1.75-1.13-1.75,0v6.854
		C451.356,421.938,453.106,421.938,453.106,420.81"/>
	<path style="display:inline;clip-path:url(#SVGID_8_);fill:#006837;" d="M453.106,413.536v-5.812c0-1.128-1.75-1.128-1.75,0v5.812
		C451.356,414.665,453.106,414.665,453.106,413.536"/>
	<path style="display:inline;clip-path:url(#SVGID_8_);fill:#FFFFFF;" d="M393.521,380.157c-2.225-1.71-2.645-4.902-0.933-7.128
		l8.417-10.947c1.711-2.225,4.904-2.642,7.129-0.931c2.225,1.71,2.643,4.903,0.932,7.128l-8.416,10.947
		C398.938,381.452,395.747,381.868,393.521,380.157"/>
	<path style="display:inline;clip-path:url(#SVGID_8_);fill:none;stroke:#000000;" d="M393.521,380.157
		c-2.225-1.71-2.645-4.902-0.933-7.128l8.417-10.947c1.711-2.225,4.904-2.642,7.129-0.931c2.225,1.71,2.643,4.903,0.932,7.128
		l-8.416,10.947C398.938,381.452,395.747,381.868,393.521,380.157z"/>
	<path style="display:inline;clip-path:url(#SVGID_8_);fill:#006837;" d="M397.207,376.484c1.393-1.812,2.786-3.623,4.18-5.435
		c0.687-0.895-0.834-1.765-1.512-0.883c-1.393,1.812-2.786,3.623-4.18,5.435C395.008,376.496,396.529,377.366,397.207,376.484"/>
	<path style="display:inline;clip-path:url(#SVGID_8_);fill:#C1272D;" d="M401.641,370.719c1.18-1.535,2.36-3.07,3.541-4.605
		c0.688-0.896-0.834-1.766-1.512-0.884c-1.179,1.535-2.36,3.07-3.541,4.606C399.441,370.73,400.962,371.601,401.641,370.719"/>
	<path style="display:inline;clip-path:url(#SVGID_8_);fill:#FFFFFF;" d="M290.737,180.75c0,2.807-2.275,5.083-5.082,5.083h-13.809
		c-2.806,0-5.084-2.276-5.084-5.083c0-2.808,2.278-5.084,5.084-5.084h13.809C288.462,175.667,290.737,177.942,290.737,180.75"/>
	<path style="display:inline;clip-path:url(#SVGID_8_);fill:none;stroke:#000000;" d="M290.737,180.75
		c0,2.807-2.275,5.083-5.082,5.083h-13.809c-2.806,0-5.084-2.276-5.084-5.083c0-2.808,2.278-5.084,5.084-5.084h13.809
		C288.462,175.667,290.737,177.942,290.737,180.75z"/>
	<path style="display:inline;clip-path:url(#SVGID_8_);fill:#F7931E;" d="M272.056,183.331c4.597-0.025,9.192-0.049,13.789-0.074
		c1.128-0.006,1.129-1.757,0-1.75c-4.597,0.025-9.192,0.049-13.789,0.074C270.928,181.586,270.927,183.336,272.056,183.331"/>
	<path style="display:inline;clip-path:url(#SVGID_8_);fill:#F7931E;" d="M278.267,177.756v4.625c0,1.128,1.75,1.128,1.75,0v-4.625
		C280.017,176.628,278.267,176.628,278.267,177.756"/>
</g>
</svg>
