<?xml version="1.0" encoding="iso-8859-1"?>
<!-- Generator: Adobe Illustrator 13.0.1, SVG Export Plug-In . SVG Version: 6.00 Build 14948)  -->
<!DOCTYPE svg PUBLIC "-//W3C//DTD SVG 1.1//EN" "http://www.w3.org/Graphics/SVG/1.1/DTD/svg11.dtd">
<svg version="1.1" xmlns="http://www.w3.org/2000/svg" xmlns:xlink="http://www.w3.org/1999/xlink" x="0px" y="0px"
	 width="836.97px" height="567.645px" viewBox="0 0 836.97 567.645" style="enable-background:new 0 0 836.97 567.645;"
	 xml:space="preserve">
<g id="routes">
	<path id="Xinzhuang" style="fill:none;stroke:#F7931E;stroke-width:5;stroke-miterlimit:10;" d="M52.518,233.623h122
		c33,0,46-34,46-34l8-19c10-24,37-20,37-20"/>
	<path id="Zhonghe-Xinlu" style="fill:none;stroke:#F7931E;stroke-width:5;stroke-miterlimit:10;" d="M317.518,548.623v-93
		c0,0-4-30.669,19-30.669h59.668c0,0,8.833-0.833,14.333-6.333l8.333-11.334c0,0,5.833-7.788,9.042-8.76
		c4.467-1.353,8.958-0.573,8.958-0.573s5,0.333,8.667-1s10.979-20.254,10.979-20.254s7.354-21.413,15.02-21.577h10.5
		c0,0,8.5-0.5,8.5-8.5v-169c0-20-19-17-19-17h-206c-24,0-46-23-46-23c-26-25-45-23-45-23l-119-0.235"/>
	<path id="Xindian" style="fill:none;stroke:#006837;stroke-width:5;stroke-miterlimit:10;" d="M628.768,548.623H524.185
		c0,0-15.333-0.667-15.333-17.332v-78.337v-46.666c0,0,1-15.334-17.667-15.334h-47.334c0,0-12.883,0.002-12.883-11.665v-8.333
		c0,0,0.883-14.827-23.45-14.827l-3.666-0.004l-3.958-0.008c0,0-17.855,0.816-29.605-10.934l-8.75-8.75
		c-6.166-6.166-18.521-5.811-18.521-5.811h-49.5c-20,0-17-19-17-19v-29"/>
	<path id="Bannan" style="fill:none;stroke:#0071BC;stroke-width:5;stroke-miterlimit:10;" d="M828.768,216.623v46c0,19-16,18-16,18
		h-566.25c-36,0-45,12-45,12s-14,15-32,16s-49,0-49,0c-26,0.444-24,30-24,30v131c1.25,29-16,29-16,29h-16.75"/>
	<path id="Danxin" style="fill:none;stroke:#ED1C24;stroke-width:5;stroke-miterlimit:10;" d="M771.768,347.568l-364.374-0.012
		c0,0-20.855,0.816-32.605-10.934l-18.75-18.75c-10.646-10.646-10.25-25.25-10.25-25.25l-0.002-93l-0.233-165.036
		c0,0,0.964-27.537-27.536-27.537l-120.5,0.073c0,0-9.455-0.955-14.5,4.089l-16.5,15.411c0,0-4.844,4-14,4h-121
		c0,0-9.5,0.5-16.5,7.5l-13.25,13.25"/>
	<path id="Wenhu" style="fill:none;stroke:#A86935;stroke-width:5;stroke-miterlimit:10;" d="M828.768,206.623v-138
		c0-24.889-24-24-24-24l-196-0.075c-29,0-28.088,23.075-28.088,23.075l0.088,40.765c0,13.235,10,12.235,10,12.235h17
		c17,0,11,15,11,15c-7,12-38.088,15-38.088,32v227c0,31,28.088,27,28.088,27h68c22,0,22,24,22,24v26c0,23,25,27,25,27h109"/>
</g>
<g id="interchanges">
	<g id="Nangang_EC">
		<path style="fill:#FFFFFF;" d="M831.817,217.873c2.731,1.133,4.652,3.823,4.652,6.964c0,4.163-3.373,7.536-7.535,7.536
			s-7.536-3.373-7.536-7.536c-0.001-3.097,1.869-5.758,4.539-6.917l-0.03-4.43c-2.67-1.158-4.539-3.82-4.539-6.916
			c0-4.162,3.373-7.536,7.535-7.536s7.537,3.374,7.537,7.536c0,3.14-1.922,5.83-4.652,6.963L831.817,217.873z"/>
		<path style="fill:none;stroke:#000000;" d="M831.817,217.873c2.731,1.133,4.652,3.823,4.652,6.964
			c0,4.163-3.373,7.536-7.535,7.536s-7.536-3.373-7.536-7.536c-0.001-3.097,1.869-5.758,4.539-6.917l-0.03-4.43
			c-2.67-1.158-4.539-3.82-4.539-6.916c0-4.162,3.373-7.536,7.535-7.536s7.537,3.374,7.537,7.536c0,3.14-1.922,5.83-4.652,6.963
			L831.817,217.873z"/>
		<path style="fill:#A86935;" d="M833.101,206.623c0,2.394-1.94,4.334-4.334,4.334c-2.393,0-4.333-1.94-4.333-4.334
			s1.94-4.333,4.333-4.333C831.16,202.29,833.101,204.229,833.101,206.623"/>
		<path style="fill:#0071BC;" d="M833.131,224.874c0,2.394-1.94,4.333-4.334,4.333c-2.393,0-4.333-1.939-4.333-4.333
			s1.94-4.333,4.333-4.333C831.19,220.541,833.131,222.479,833.131,224.874"/>
	</g>
	<g id="Qizhang">
		<path style="fill:#FFFFFF;" d="M536.852,543.17c2.807,0,5.084,2.275,5.084,5.083v13.809c0,2.807-2.277,5.083-5.084,5.083
			s-5.084-2.276-5.084-5.083v-13.809C531.768,545.445,534.045,543.17,536.852,543.17"/>
		<path style="fill:none;stroke:#000000;" d="M536.852,543.17c2.807,0,5.084,2.275,5.084,5.083v13.809
			c0,2.807-2.277,5.083-5.084,5.083s-5.084-2.276-5.084-5.083v-13.809C531.768,545.445,534.045,543.17,536.852,543.17z"/>
		<path style="fill:#006837;" d="M534.676,549.813c1.47,1.562,2.395,3.366,2.432,5.534c0.02,1.127,1.77,1.129,1.75,0
			c-0.045-2.634-1.158-4.872-2.943-6.772C535.14,547.751,533.904,548.991,534.676,549.813"/>
		<path style="fill:#C1D928;" d="M537.107,556.294c-0.052,1.97-0.846,4.043-2.432,5.297c-0.884,0.7,0.363,1.93,1.238,1.238
			c1.932-1.529,2.88-4.148,2.943-6.535C538.888,555.165,537.138,555.168,537.107,556.294"/>
	</g>
	<g id="Beitou">
		<path style="fill:#FFFFFF;" d="M172.252,10.95c-1.133,2.731-3.823,4.652-6.964,4.652c-4.162,0-7.536-3.374-7.536-7.536
			c0-4.162,3.374-7.535,7.536-7.535c3.097-0.001,5.758,1.869,6.917,4.539l4.429-0.031c1.16-2.67,3.821-4.539,6.917-4.539
			c4.162,0,7.536,3.374,7.536,7.536c0,4.162-3.374,7.536-7.536,7.536c-3.14,0-5.831-1.921-6.963-4.652L172.252,10.95z"/>
		<path style="fill:none;stroke:#000000;" d="M172.252,10.95c-1.133,2.731-3.823,4.652-6.964,4.652
			c-4.162,0-7.536-3.374-7.536-7.536c0-4.162,3.374-7.535,7.536-7.535c3.097-0.001,5.758,1.869,6.917,4.539l4.429-0.031
			c1.16-2.67,3.821-4.539,6.917-4.539c4.162,0,7.536,3.374,7.536,7.536c0,4.162-3.374,7.536-7.536,7.536
			c-3.14,0-5.831-1.921-6.963-4.652L172.252,10.95z"/>
		<path style="fill:#C1272D;" d="M183.502,12.232c-2.394,0-4.333-1.94-4.333-4.334c0-2.393,1.939-4.333,4.333-4.333
			s4.333,1.94,4.333,4.333C187.835,10.292,185.896,12.232,183.502,12.232"/>
		<path style="fill:#FFBDC5;" d="M165.251,12.263c-2.394,0-4.333-1.94-4.333-4.334c0-2.393,1.939-4.333,4.333-4.333
			s4.333,1.94,4.333,4.333C169.584,10.323,167.645,12.263,165.251,12.263"/>
	</g>
	<g id="Guting">
		<path style="fill:#FFFFFF;" d="M439.184,405.48c-2.807,0-5.084-2.275-5.084-5.083v-13.809c0-2.807,2.277-5.083,5.084-5.083
			s5.084,2.276,5.084,5.083v13.809C444.268,403.205,441.99,405.48,439.184,405.48"/>
		<path style="fill:none;stroke:#000000;" d="M439.184,405.48c-2.807,0-5.084-2.275-5.084-5.083v-13.809
			c0-2.807,2.277-5.083,5.084-5.083s5.084,2.276,5.084,5.083v13.809C444.268,403.205,441.99,405.48,439.184,405.48z"/>
		<path style="fill:#F7931E;" d="M439.874,400.433v-6.854c0-1.13-1.75-1.13-1.75,0v6.854
			C438.124,401.562,439.874,401.562,439.874,400.433"/>
		<path style="fill:#006837;" d="M439.874,393.159v-5.812c0-1.128-1.75-1.128-1.75,0v5.812
			C438.124,394.288,439.874,394.288,439.874,393.159"/>
	</g>
	<g id="Da_x27_an">
		<path style="fill:#FFFFFF;" d="M583.575,340.723c2.729,1.133,4.652,3.822,4.652,6.963c0,4.164-3.373,7.537-7.535,7.537
			s-7.537-3.373-7.537-7.537c0-3.096,1.869-5.758,4.539-6.916l-0.029-4.43c-2.67-1.158-4.539-3.82-4.539-6.916
			c0-4.162,3.373-7.537,7.535-7.537s7.537,3.375,7.537,7.537c0,3.139-1.922,5.83-4.652,6.963L583.575,340.723z"/>
		<path style="fill:none;stroke:#000000;" d="M583.575,340.723c2.729,1.133,4.652,3.822,4.652,6.963
			c0,4.164-3.373,7.537-7.535,7.537s-7.537-3.373-7.537-7.537c0-3.096,1.869-5.758,4.539-6.916l-0.029-4.43
			c-2.67-1.158-4.539-3.82-4.539-6.916c0-4.162,3.373-7.537,7.535-7.537s7.537,3.375,7.537,7.537c0,3.139-1.922,5.83-4.652,6.963
			L583.575,340.723z"/>
		<path style="fill:#A86935;" d="M584.858,329.473c0,2.395-1.941,4.334-4.334,4.334s-4.334-1.939-4.334-4.334
			s1.941-4.334,4.334-4.334S584.858,327.078,584.858,329.473"/>
		<path style="fill:#C1272D;" d="M584.888,347.723c0,2.395-1.939,4.334-4.334,4.334c-2.393,0-4.332-1.939-4.332-4.334
			c0-2.393,1.939-4.332,4.332-4.332C582.948,343.391,584.888,345.33,584.888,347.723"/>
	</g>
	<g id="Taibei_Main_Sta.">
		<path style="fill:#FFFFFF;" d="M342.753,288.553c-2.73-1.133-4.652-3.822-4.652-6.963c0-4.163,3.375-7.537,7.537-7.537
			c4.162,0,7.535,3.374,7.535,7.537c0,3.096-1.869,5.758-4.539,6.916l0.03,4.43c2.67,1.16,4.54,3.82,4.539,6.916
			c0,4.162-3.374,7.537-7.536,7.537s-7.535-3.375-7.535-7.537c0-3.139,1.921-5.83,4.652-6.963L342.753,288.553z"/>
		<path style="fill:none;stroke:#000000;" d="M342.753,288.553c-2.73-1.133-4.652-3.822-4.652-6.963
			c0-4.163,3.375-7.537,7.537-7.537c4.162,0,7.535,3.374,7.535,7.537c0,3.096-1.869,5.758-4.539,6.916l0.03,4.43
			c2.67,1.16,4.54,3.82,4.539,6.916c0,4.162-3.374,7.537-7.536,7.537s-7.535-3.375-7.535-7.537c0-3.139,1.921-5.83,4.652-6.963
			L342.753,288.553z"/>
		<path style="fill:#C1272D;" d="M341.471,299.803c0-2.395,1.94-4.332,4.334-4.332c2.393,0,4.333,1.938,4.333,4.332
			s-1.94,4.334-4.333,4.334C343.411,304.137,341.471,302.197,341.471,299.803"/>
		<path style="fill:#0071BC;" d="M341.441,281.553c0-2.394,1.94-4.333,4.334-4.333c2.393,0,4.333,1.939,4.333,4.333
			c0,2.393-1.94,4.334-4.333,4.334C343.381,285.887,341.441,283.945,341.441,281.553"/>
	</g>
	<g id="CKS_M._Hall">
		<path style="fill:#FFFFFF;" d="M380.289,359.78c-2.225-1.71-2.645-4.902-0.933-7.128l8.417-10.947
			c1.711-2.225,4.904-2.642,7.129-0.931c2.225,1.71,2.643,4.903,0.932,7.128l-8.416,10.947
			C385.706,361.075,382.514,361.491,380.289,359.78"/>
		<path style="fill:none;stroke:#000000;" d="M380.289,359.78c-2.225-1.71-2.645-4.902-0.933-7.128l8.417-10.947
			c1.711-2.225,4.904-2.642,7.129-0.931c2.225,1.71,2.643,4.903,0.932,7.128l-8.416,10.947
			C385.706,361.075,382.514,361.491,380.289,359.78z"/>
		<path style="fill:#006837;" d="M383.975,356.107c1.393-1.812,2.786-3.623,4.18-5.435c0.687-0.895-0.834-1.765-1.512-0.883
			c-1.393,1.812-2.786,3.623-4.18,5.435C381.775,356.119,383.296,356.989,383.975,356.107"/>
		<path style="fill:#C1272D;" d="M388.408,350.342c1.18-1.535,2.36-3.07,3.541-4.605c0.688-0.896-0.834-1.766-1.512-0.884
			c-1.179,1.535-2.36,3.07-3.541,4.606C386.209,350.354,387.73,351.224,388.408,350.342"/>
	</g>
	<g id="Minquan_Xi_Lu">
		<path style="fill:#FFFFFF;" d="M348.551,153.304c2.731,1.133,4.652,3.823,4.652,6.964c0,4.162-3.373,7.536-7.535,7.536
			c-4.162,0-7.536-3.374-7.536-7.536c-0.001-3.097,1.869-5.758,4.539-6.917l-0.03-4.429c-2.67-1.16-4.539-3.821-4.539-6.917
			c0-4.162,3.373-7.536,7.535-7.536s7.537,3.374,7.537,7.536c0,3.14-1.922,5.831-4.652,6.963L348.551,153.304z"/>
		<path style="fill:none;stroke:#000000;" d="M348.551,153.304c2.731,1.133,4.652,3.823,4.652,6.964
			c0,4.162-3.373,7.536-7.535,7.536c-4.162,0-7.536-3.374-7.536-7.536c-0.001-3.097,1.869-5.758,4.539-6.917l-0.03-4.429
			c-2.67-1.16-4.539-3.821-4.539-6.917c0-4.162,3.373-7.536,7.535-7.536s7.537,3.374,7.537,7.536c0,3.14-1.922,5.831-4.652,6.963
			L348.551,153.304z"/>
		<path style="fill:#C1272D;" d="M349.834,142.054c0,2.394-1.94,4.333-4.334,4.333c-2.393,0-4.333-1.939-4.333-4.333
			s1.94-4.333,4.333-4.333C347.894,137.721,349.834,139.66,349.834,142.054"/>
		<path style="fill:#F7931E;" d="M349.864,160.305c0,2.394-1.94,4.333-4.334,4.333c-2.393,0-4.333-1.939-4.333-4.333
			s1.94-4.333,4.333-4.333C347.924,155.972,349.864,157.911,349.864,160.305"/>
	</g>
	<g id="Zhongxiao_Xinsheng">
		<path style="fill:#FFFFFF;" d="M487.802,268.418c-2.732-1.133-4.652-3.823-4.652-6.964c0-4.163,3.373-7.536,7.535-7.536
			s7.535,3.373,7.535,7.536c0.002,3.097-1.869,5.758-4.539,6.917l0.031,4.429c2.67,1.16,4.539,3.821,4.539,6.917
			c0,4.162-3.373,7.536-7.535,7.536s-7.537-3.374-7.537-7.536c0-3.14,1.922-5.831,4.652-6.963L487.802,268.418z"/>
		<path style="fill:none;stroke:#000000;" d="M487.802,268.418c-2.732-1.133-4.652-3.823-4.652-6.964
			c0-4.163,3.373-7.536,7.535-7.536s7.535,3.373,7.535,7.536c0.002,3.097-1.869,5.758-4.539,6.917l0.031,4.429
			c2.67,1.16,4.539,3.821,4.539,6.917c0,4.162-3.373,7.536-7.535,7.536s-7.537-3.374-7.537-7.536c0-3.14,1.922-5.831,4.652-6.963
			L487.802,268.418z"/>
		<path style="fill:#F7931E;" d="M486.519,279.668c0-2.395,1.939-4.333,4.334-4.333c2.393,0,4.332,1.938,4.332,4.333
			c0,2.394-1.939,4.333-4.332,4.333C488.458,284.001,486.519,282.062,486.519,279.668"/>
		<path style="fill:#0071BC;" d="M486.487,261.417c0-2.394,1.941-4.333,4.334-4.333s4.334,1.939,4.334,4.333
			s-1.941,4.334-4.334,4.334S486.487,263.811,486.487,261.417"/>
	</g>
	<g id="Zhongxiao_Fuxing">
		<path style="fill:#FFFFFF;" d="M583.576,272.724c2.731,1.133,4.652,3.823,4.652,6.963c0,4.165-3.373,7.538-7.535,7.538
			s-7.536-3.373-7.536-7.538c-0.001-3.096,1.869-5.757,4.539-6.916l-0.03-4.43c-2.67-1.158-4.539-3.82-4.539-6.916
			c0-4.162,3.373-7.536,7.535-7.536s7.537,3.374,7.537,7.536c0,3.14-1.922,5.83-4.652,6.963L583.576,272.724z"/>
		<path style="fill:none;stroke:#000000;" d="M583.576,272.724c2.731,1.133,4.652,3.823,4.652,6.963
			c0,4.165-3.373,7.538-7.535,7.538s-7.536-3.373-7.536-7.538c-0.001-3.096,1.869-5.757,4.539-6.916l-0.03-4.43
			c-2.67-1.158-4.539-3.82-4.539-6.916c0-4.162,3.373-7.536,7.535-7.536s7.537,3.374,7.537,7.536c0,3.14-1.922,5.83-4.652,6.963
			L583.576,272.724z"/>
		<path style="fill:#A86935;" d="M584.859,261.474c0,2.394-1.94,4.334-4.334,4.334c-2.393,0-4.333-1.94-4.333-4.334
			s1.94-4.333,4.333-4.333C582.919,257.141,584.859,259.08,584.859,261.474"/>
		<path style="fill:#0071BC;" d="M584.89,279.725c0,2.395-1.94,4.334-4.334,4.334c-2.393,0-4.333-1.939-4.333-4.334
			c0-2.393,1.94-4.333,4.333-4.333C582.949,275.392,584.89,277.332,584.89,279.725"/>
	</g>
	<g id="Dongmen">
		<path style="fill:#FFFFFF;" d="M475.448,361.861c-2.807,0-5.084-2.275-5.084-5.083V342.97c0-2.807,2.277-5.083,5.084-5.083
			s5.084,2.276,5.084,5.083v13.809C480.532,359.586,478.255,361.861,475.448,361.861"/>
		<path style="fill:none;stroke:#000000;" d="M475.448,361.861c-2.807,0-5.084-2.275-5.084-5.083V342.97
			c0-2.807,2.277-5.083,5.084-5.083s5.084,2.276,5.084,5.083v13.809C480.532,359.586,478.255,361.861,475.448,361.861z"/>
		<path style="fill:#F7931E;" d="M476.139,356.813v-6.855c0-1.129-1.75-1.129-1.75,0v6.855
			C474.389,357.942,476.139,357.942,476.139,356.813"/>
		<path style="fill:#C1272D;" d="M476.139,349.54v-5.811c0-1.129-1.75-1.129-1.75,0v5.811
			C474.389,350.669,476.139,350.669,476.139,349.54"/>
	</g>
	<g id="Ximen">
		<path style="fill:#FFFFFF;" d="M276.358,296.782c-2.807,0-5.084-2.275-5.084-5.083V277.89c0-2.806,2.277-5.083,5.084-5.083
			s5.084,2.277,5.084,5.083v13.809C281.442,294.507,279.165,296.782,276.358,296.782"/>
		<path style="fill:none;stroke:#000000;" d="M276.358,296.782c-2.807,0-5.084-2.275-5.084-5.083V277.89
			c0-2.806,2.277-5.083,5.084-5.083s5.084,2.277,5.084,5.083v13.809C281.442,294.507,279.165,296.782,276.358,296.782z"/>
		<path style="fill:#006837;" d="M277.047,291.734v-6.855c0-1.128-1.75-1.128-1.75,0v6.855
			C275.297,292.862,277.047,292.862,277.047,291.734"/>
		<path style="fill:#3A9EB5;" d="M277.047,284.461v-5.811c0-1.127-1.75-1.127-1.75,0v5.811
			C275.297,285.589,277.047,285.589,277.047,284.461"/>
	</g>
	<g id="Daqiaotou">
		<path style="fill:#FFFFFF;" d="M277.505,160.374c0,2.807-2.275,5.083-5.082,5.083h-13.809c-2.806,0-5.084-2.276-5.084-5.083
			c0-2.808,2.278-5.084,5.084-5.084h13.809C275.23,155.29,277.505,157.565,277.505,160.374"/>
		<path style="fill:none;stroke:#000000;" d="M277.505,160.374c0,2.807-2.275,5.083-5.082,5.083h-13.809
			c-2.806,0-5.084-2.276-5.084-5.083c0-2.808,2.278-5.084,5.084-5.084h13.809C275.23,155.29,277.505,157.565,277.505,160.374z"/>
		<path style="fill:#F7931E;" d="M258.823,162.954c4.597-0.025,9.192-0.049,13.789-0.074c1.128-0.006,1.129-1.757,0-1.75
			c-4.597,0.025-9.192,0.049-13.789,0.074C257.695,161.209,257.694,162.959,258.823,162.954"/>
		<path style="fill:#F7931E;" d="M265.034,157.379v4.625c0,1.128,1.75,1.128,1.75,0v-4.625
			C266.784,156.251,265.034,156.251,265.034,157.379"/>
	</g>
</g>
</svg>
